<?xml version="1.0" standalone="no"?>
<!DOCTYPE svg PUBLIC "-//W3C//DTD SVG 1.1//EN" "http://www.w3.org/Graphics/SVG/1.1/DTD/svg11.dtd" >
<svg xmlns="http://www.w3.org/2000/svg" xmlns:xlink="http://www.w3.org/1999/xlink" version="1.1">
<metadata>
Created by FontForge 20190801 at Wed Dec 14 13:04:23 2016
 By www-data
Copyright 2013 The Kurale Project Authors (edu@tipo.net.ar)
</metadata>
<defs>
<font id="KuraleRegular" horiz-adv-x="0" >
  <font-face 
    font-family="KuraleRegular"
    font-weight="400"
    font-stretch="normal"
    units-per-em="1000"
    panose-1="0 0 5 0 0 0 0 0 0 0"
    ascent="800"
    descent="-200"
    x-height="461"
    cap-height="650"
    bbox="-819 -383 1238 1108"
    underline-thickness="25"
    underline-position="-389"
    unicode-range="U+000D-FB02"
  />
<missing-glyph horiz-adv-x="1040" 
d="M130 0v910h780v-910h-780zM195 65h651v781h-651v-781z" />
    <glyph glyph-name="fi" unicode="fi" horiz-adv-x="559" 
d="M-63.5 -191q-31.5 25 -31.5 67q0 35 25.5 58.5t63.5 23.5q17 0 17 -10q0 -2 -7.5 -11.5t-13 -22t-5.5 -31.5q0 -28 14 -44t36 -16q27 0 45.5 24.5t18.5 70.5v476h-80q0 24 3.5 31.5t17.5 11.5l61 13q11 121 66 190t151 69q59 0 97 -28.5t38 -73.5q0 -38 -25.5 -62.5
t-64.5 -24.5q-9 0 -12.5 2t-3.5 7q0 3 6.5 13t11 24.5t4.5 37.5q0 29 -16 46.5t-44 17.5q-66 0 -97.5 -58t-31.5 -160h158q40 0 70 11q13 0 21 -7.5t8 -19.5v-354q0 -31 26 -31q23 0 46 19l17 -23q-24 -26 -51.5 -42t-49.5 -16q-37 0 -53.5 22.5t-16.5 73.5v290
q0 11 -3.5 16t-13.5 5h-158v-406q0 -94 -41 -149t-122 -55q-49 0 -80.5 25z" />
    <glyph glyph-name="fl" unicode="fl" horiz-adv-x="566" 
d="M-63.5 -191q-31.5 25 -31.5 67q0 35 25.5 58.5t63.5 23.5q17 0 17 -10q0 -2 -7.5 -11.5t-13 -22t-5.5 -31.5q0 -28 14 -44t36 -16q27 0 45.5 24.5t18.5 70.5v476h-80q0 24 3.5 31.5t17.5 11.5l61 13q10 121 62 190t143 69q46 0 85 -29q14 11 29.5 17.5t24.5 6.5
q12 0 15 -6.5t3 -21.5v-596q0 -31 28 -31q23 0 45 19l17 -23q-24 -27 -51 -42.5t-50 -15.5q-37 0 -53 22.5t-16 73.5v480q0 47 -22 76t-66 29q-60 0 -87.5 -57.5t-27.5 -160.5h128q0 -19 -6 -34t-16 -22h-106v-406q0 -94 -41 -149t-122 -55q-49 0 -80.5 25z" />
    <glyph glyph-name="f_f" unicode="ff" horiz-adv-x="560" 
d="M-63.5 -191q-31.5 25 -31.5 67q0 35 25.5 58.5t63.5 23.5q17 0 17 -10q0 -2 -7.5 -11.5t-13 -22t-5.5 -31.5q0 -28 14 -44t36 -16q27 0 45.5 24.5t18.5 70.5v476h-78q0 24 4 31.5t18 11.5l58 13q10 121 63 190t145 69q35 0 64.5 -11t46.5 -31q44 42 104 42t98 -28.5
t38 -73.5q0 -38 -25.5 -62.5t-64.5 -24.5q-17 0 -17 9q0 3 6.5 13t11 24.5t4.5 37.5q0 29 -16 46.5t-43 17.5q-40 0 -59 -39.5t-19 -108.5v-70h126q0 -19 -5.5 -34t-15.5 -22h-105v-231q0 -145 -49.5 -230t-143.5 -85q-51 0 -86 25q-40 -89 -142 -89q-49 0 -80.5 25z
M356 450v9q0 42 3.5 66t8.5 41t7 26q0 34 -20 55t-56 21q-60 0 -89.5 -58.5t-29.5 -159.5h176zM329 -55.5q27 57.5 27 158.5v291h-176v-406q0 -39 -5 -63q27 -38 71 -38q56 0 83 57.5z" />
    <glyph glyph-name="f_f_i" unicode="ffi" horiz-adv-x="797" 
d="M-63.5 -191q-31.5 25 -31.5 67q0 35 25.5 58.5t63.5 23.5q17 0 17 -10q0 -2 -7.5 -11.5t-13 -22t-5.5 -31.5q0 -28 14 -44t36 -16q27 0 45.5 24.5t18.5 70.5v476h-78q0 24 4 31.5t18 11.5l58 13q11 121 66 190t151 69q69 0 117 -59q53 59 140 59q59 0 97.5 -28.5
t38.5 -73.5q0 -38 -25.5 -62.5t-64.5 -24.5q-9 0 -13 2t-4 7q0 3 6 13t10.5 24.5t4.5 37.5q0 29 -15.5 46.5t-44.5 17.5q-65 0 -96 -58.5t-31 -159.5h157q40 0 71 11q13 0 20.5 -7.5t7.5 -19.5v-354q0 -31 27 -31q23 0 45 19l18 -23q-24 -27 -51.5 -42.5t-50.5 -15.5
q-37 0 -53 22.5t-16 73.5v290q0 11 -4 16t-14 5h-157v-231q0 -148 -47.5 -231.5t-145.5 -83.5q-51 0 -86 25q-40 -89 -142 -89q-49 0 -80.5 25zM358 450q6 84 36 140q-5 36 -27.5 57t-57.5 21q-66 0 -97.5 -58.5t-31.5 -159.5h178zM328.5 -55.5q27.5 57.5 27.5 158.5v291
h-176v-406q0 -39 -5 -63q25 -38 66 -38q60 0 87.5 57.5z" />
    <glyph glyph-name="f_f_l" unicode="ffl" horiz-adv-x="797" 
d="M-63.5 -191q-31.5 25 -31.5 67q0 35 25.5 58.5t63.5 23.5q17 0 17 -10q0 -2 -7.5 -11.5t-13 -22t-5.5 -31.5q0 -28 14 -44t36 -16q27 0 45.5 24.5t18.5 70.5v476h-78q0 24 4 31.5t18 11.5l58 13q11 121 66 190t151 69q34 0 63.5 -15t51.5 -41q51 56 130 56q48 0 85 -29
q15 11 30.5 17.5t24.5 6.5q12 0 15.5 -6.5t3.5 -21.5l-1 -596q0 -31 27 -31q23 0 46 19l17 -23q-24 -27 -51 -42.5t-50 -15.5q-38 0 -54.5 22.5t-16.5 73.5v480q0 47 -21.5 76t-65.5 29q-59 0 -86.5 -57.5t-27.5 -160.5h126q0 -19 -5.5 -34t-15.5 -22h-105v-231
q0 -148 -47.5 -231.5t-145.5 -83.5q-51 0 -86 25q-40 -89 -142 -89q-49 0 -80.5 25zM358 450q6 82 35 143q-5 34 -27.5 54.5t-56.5 20.5q-66 0 -97.5 -58.5t-31.5 -159.5h178zM328.5 -55.5q27.5 57.5 27.5 158.5v291h-176v-406q0 -39 -5 -63q25 -38 66 -38q60 0 87.5 57.5z
" />
    <glyph glyph-name=".notdef" horiz-adv-x="1040" 
d="M130 0v910h780v-910h-780zM195 65h651v781h-651v-781z" />
    <glyph glyph-name=".null" 
 />
    <glyph glyph-name="nonmarkingreturn" unicode="&#xd;" horiz-adv-x="309" 
 />
    <glyph glyph-name="NULL" 
 />
    <glyph glyph-name="NULL" 
 />
    <glyph glyph-name="space" unicode=" " horiz-adv-x="309" 
 />
    <glyph glyph-name="exclam" unicode="!" horiz-adv-x="246" 
d="M88 221q-14 142 -24 271t-10 180q20 23 58 23q34 0 56 -23q0 -91 -34 -451q-2 -21 -7 -31t-15 -10q-20 0 -24 41zM76 8q-20 21 -20 38q0 19 19.5 39.5t36.5 20.5t36.5 -20.5t19.5 -39.5q0 -17 -20 -38t-36 -21t-36 21z" />
    <glyph glyph-name="quotedbl" unicode="&#x22;" horiz-adv-x="343" 
d="M63 535q-12 49 -20.5 106.5t-8.5 87.5q17 26 47 26t46 -26q0 -27 -7.5 -83.5t-20.5 -110.5q-2 -9 -6 -12.5t-12 -3.5q-17 0 -18 16zM218 522.5q-4 3.5 -6 12.5q-12 48 -20 106t-8 88q14 26 45 26t47 -26q0 -27 -7.5 -83.5t-20.5 -110.5q-3 -16 -19 -16q-7 0 -11 3.5z" />
    <glyph glyph-name="numbersign" unicode="#" horiz-adv-x="696" 
d="M80 0l56 204h-90l16 59h89l35 122h-90l17 58h91l56 207h65l-57 -207h162l56 207h66l-58 -207h91l-17 -58h-90l-35 -122h91l-16 -59h-91l-57 -204h-63l55 204h-162l-56 -204h-64zM217 263h162l32 122h-160z" />
    <glyph glyph-name="dollar" unicode="$" horiz-adv-x="581" 
d="M229 1q-77 7 -128.5 44.5t-51.5 100.5q0 43 27.5 69.5t69.5 26.5q12 0 15.5 -1.5t3.5 -9.5q0 -2 -8 -14t-14 -27t-6 -37q0 -47 36 -74.5t87 -27.5q44 0 76.5 27.5t32.5 73.5q0 32 -17.5 54.5t-43 37.5t-71.5 35q-56 25 -91.5 47t-60.5 59.5t-25 93.5q0 41 18.5 78.5
t57 63t93.5 29.5v118q8 11 25 17t32 6v-143q64 -8 106 -39.5t42 -82.5q0 -41 -28 -68.5t-69 -27.5q-12 0 -16.5 1.5t-4.5 9.5q0 2 8 14t14.5 28t6.5 37q0 37 -28.5 59t-65.5 22q-50 0 -77.5 -29.5t-27.5 -68.5q0 -42 20 -69.5t48.5 -44.5t79.5 -39q54 -23 87.5 -43t56 -54
t22.5 -85q0 -68 -47 -114t-127 -53v-118q-8 -11 -24 -16t-33 -5v139z" />
    <glyph glyph-name="percent" unicode="%" horiz-adv-x="1018" 
d="M83 313q-37 60 -37 144q0 57 20 104t58 74t90 27q74 0 115 -54t41 -138q0 -60 -20 -109.5t-59 -78.5t-92 -29q-79 0 -116 60zM294 0l271 650h66l-274 -650h-63zM271.5 340q21.5 45 21.5 117q0 71 -21.5 116.5t-63.5 45.5q-43 0 -65 -45.5t-22 -116.5q0 -72 22 -117
t65 -45q42 0 63.5 45zM590 47.5q-37 60.5 -37 144.5q0 88 45 146t123 58q74 0 115 -53.5t41 -137.5q0 -60 -20.5 -109.5t-59 -79t-91.5 -29.5q-79 0 -116 60.5zM778.5 75.5q21.5 45.5 21.5 116.5q0 70 -22 116t-63 46q-43 0 -64.5 -45.5t-21.5 -116.5q0 -72 21.5 -117
t64.5 -45q42 0 63.5 45.5z" />
    <glyph glyph-name="ampersand" unicode="&#x26;" horiz-adv-x="668" 
d="M90.5 36.5q-62.5 49.5 -62.5 137.5q0 62 42 108.5t122 68.5q-60 14 -94.5 51.5t-34.5 97.5q0 42 25.5 79.5t76.5 60.5t122 23q64 0 108 -30.5t44 -77.5q0 -36 -21.5 -57.5t-57.5 -21.5q-18 0 -18 9q0 2 9 16.5t9 44.5q0 34 -22 54.5t-61 20.5q-53 0 -83.5 -34.5
t-30.5 -81.5q0 -61 31.5 -93.5t78.5 -32.5q6 0 9.5 -6.5t3.5 -14.5q0 -6 -3 -11.5t-9 -5.5q-71 -19 -107 -64.5t-36 -101.5q0 -36 16 -68t46.5 -52t70.5 -20q62 0 100.5 33t38.5 92q0 46 -22 73l-34 -1q-40 -3 -60 -13t-31.5 -21.5t-15.5 -11.5q-7 0 -12.5 9t-5.5 20
q0 32 34 42.5t101 14.5q52 3 84 9t54.5 22.5t22.5 48.5q0 26 -10 41.5t-24 27.5t-14 16q0 6 12 9.5t27 3.5q40 0 68 -26t28 -68q0 -106 -179 -119q20 -17 32 -42t12 -51q0 -38 -21.5 -74t-69 -59.5t-120.5 -23.5q-106 0 -168.5 49.5z" />
    <glyph glyph-name="quotesingle" unicode="'" horiz-adv-x="178" 
d="M63 535q-12 49 -20.5 106.5t-8.5 87.5q17 26 47 26t46 -26q0 -27 -7.5 -83.5t-20.5 -110.5q-2 -9 -6 -12.5t-12 -3.5q-17 0 -18 16z" />
    <glyph glyph-name="parenleft" unicode="(" horiz-adv-x="352" 
d="M114 47.5q-62 100.5 -62 252.5q0 150 62 251.5t177 149.5v-40q-64 -42 -103 -136t-39 -225q0 -132 39 -225.5t103 -135.5v-40q-115 48 -177 148.5z" />
    <glyph glyph-name="parenright" unicode=")" horiz-adv-x="352" 
d="M28 -61q64 42 102.5 135.5t38.5 225.5q0 131 -39 225.5t-102 135.5v40q115 -48 177 -149t62 -252q0 -152 -62 -253t-177 -148v40z" />
    <glyph glyph-name="asterisk" unicode="*" horiz-adv-x="574" 
d="M326 378q-4 10 -38 80q-19 37 -28 60q-6 -14 -40 -82l-28 -57q-9 -6 -23 -6q-24 0 -37 18t-13 42q6 5 78 74q23 23 32 31l-61 8l-90 13q-15 17 -15 34q0 20 12 35t31 19l135 -74l-6 37q-13 75 -21 115q17 27 46 27q14 0 26.5 -7t20.5 -20l-30 -152q24 11 84 44
q22 13 52 29q20 -4 31.5 -17.5t11.5 -33.5q0 -21 -14 -36q-24 -3 -101 -14l-51 -7l44 -42l66 -63q0 -27 -14 -44t-35 -17q-11 0 -25 6z" />
    <glyph glyph-name="plus" unicode="+" horiz-adv-x="621" 
d="M247 132v158h-158v67h158v160h67v-160h159v-67h-159v-158h-67z" />
    <glyph glyph-name="comma" unicode="," horiz-adv-x="191" 
d="M6 -95l42 82q11 24 11 38q0 10 -5 17.5t-16 15.5l-17 11l-4 22l16 6q27 10 50 10q27 0 43.5 -14t16.5 -46q0 -25 -18 -52t-57 -69l-35 -38z" />
    <glyph glyph-name="hyphen" unicode="-" horiz-adv-x="355" 
d="M35.5 264.5q5.5 17.5 17.5 27.5l239 10q0 -19 -6 -36.5t-18 -28.5l-238 -8q0 18 5.5 35.5z" />
    <glyph glyph-name="period" unicode="." horiz-adv-x="191" 
d="M49.5 8q-19.5 21 -19.5 38q0 19 19 39.5t36 20.5q16 0 37 -21t21 -39q0 -17 -21 -38t-37 -21t-35.5 21z" />
    <glyph glyph-name="slash" unicode="/" horiz-adv-x="371" 
d="M0 -58l271 766h66l-274 -766h-63z" />
    <glyph glyph-name="zero" unicode="0" horiz-adv-x="693" 
d="M160 36q-56 49 -81 126t-25 164q0 94 33 170.5t94.5 121.5t143.5 45q79 0 135 -42t84.5 -114t28.5 -162q0 -99 -32 -180.5t-93 -129.5t-145 -48q-87 0 -143 49zM434.5 119.5q42.5 80.5 42.5 204.5q0 125 -42.5 206.5t-121.5 81.5q-80 0 -122 -81.5t-42 -206.5t42 -205
t122 -80q79 0 121.5 80.5z" />
    <glyph glyph-name="one" unicode="1" horiz-adv-x="418" 
d="M77 31l39 9q25 6 36.5 14t16.5 22.5t5 43.5v438l-111 -72q-20 3 -36 21t-27 41l251 117q23 -5 36 -34l-23 -15v-434q0 -56 9 -89t32 -62l10 -16l-10 -15h-217z" />
    <glyph glyph-name="two" unicode="2" horiz-adv-x="596" 
d="M34 46q145 119 220 198t102 135t27 115q0 56 -35 87.5t-83 31.5q-49 0 -85 -30.5t-36 -85.5q0 -22 6 -36.5t14 -26.5t8 -15q0 -8 -4.5 -9.5t-16.5 -1.5q-41 0 -68.5 27t-27.5 69q0 51 29.5 87t77.5 54t103 18q102 0 161.5 -44t59.5 -126q0 -88 -84.5 -185.5
t-240.5 -225.5h342q0 -24 -7 -46.5t-23 -35.5h-415z" />
    <glyph glyph-name="three" unicode="3" horiz-adv-x="596" 
d="M159 4q-48 17 -77.5 50t-29.5 80q0 42 27.5 68.5t68.5 26.5q12 0 16 -1.5t4 -8.5q0 -3 -8 -15t-13.5 -26.5t-5.5 -35.5q0 -45 34.5 -71t84.5 -26q53 0 92.5 33t39.5 95q0 52 -33.5 94t-122.5 42q-31 0 -50 -4.5t-23 -4.5q-14 0 -14 15q0 12 8.5 18.5t42.5 12.5
q103 19 137.5 61.5t34.5 93.5q0 53 -34 82.5t-79 29.5q-42 0 -71.5 -24.5t-29.5 -68.5q0 -23 6.5 -38.5t13.5 -27t7 -13.5q0 -11 -19 -11q-42 0 -69.5 27t-27.5 69q0 65 56 101t135 36q53 0 102 -18t79.5 -53.5t30.5 -85.5q0 -58 -35 -99.5t-99 -65.5q74 -17 113 -64
t39 -110q0 -86 -61.5 -133t-166.5 -47q-55 0 -103 17z" />
    <glyph glyph-name="four" unicode="4" horiz-adv-x="608" 
d="M254 31l38 9q25 6 36.5 13.5t16 22.5t4.5 44v26h-321l209 504h58l17 -14l-196 -431h233v121q0 29 -4.5 46.5t-16.5 36.5l12 15l99 11v-230h84q0 -43 -20 -59h-63q1 -37 11 -63.5t29 -51.5l11 -16l-11 -15h-216z" />
    <glyph glyph-name="five" unicode="5" horiz-adv-x="596" 
d="M159 4q-48 17 -77.5 50t-29.5 80q0 42 27.5 68.5t68.5 26.5q12 0 16 -1.5t4 -8.5q0 -3 -8 -15t-13.5 -26.5t-5.5 -35.5q0 -45 34.5 -71t84.5 -26q33 0 63.5 15t49.5 44.5t19 70.5q0 59 -40 105t-148 46q-34 0 -97 -12l-19 35l16 301h353q0 -24 -7.5 -46.5t-22.5 -35.5
h-266l-13 -205q55 13 113 13q78 0 129.5 -28t75.5 -73.5t24 -99.5q0 -86 -62.5 -137t-165.5 -51q-55 0 -103 17z" />
    <glyph glyph-name="six" unicode="6" horiz-adv-x="646" 
d="M167 29q-57 42 -86 112.5t-29 155.5q0 102 31.5 185t93.5 132t151 49q80 0 130 -34.5t50 -88.5q0 -46 -27.5 -75t-69.5 -29q-10 0 -14 2t-4 7q0 3 7.5 15.5t13 27t5.5 33.5q0 41 -25.5 66t-67.5 25q-63 0 -102.5 -47t-57 -119t-17.5 -150q0 -29 1 -42q18 57 66 91.5
t121 34.5q89 0 136.5 -51t47.5 -132q0 -59 -24.5 -106.5t-73.5 -75.5t-119 -28q-80 0 -137 42zM379 83.5q31 38.5 31 100.5q0 60 -26.5 97t-79.5 37q-56 0 -87 -40.5t-31 -100.5q0 -59 26 -95.5t79 -36.5q57 0 88 38.5z" />
    <glyph glyph-name="seven" unicode="7" horiz-adv-x="496" 
d="M62 31l20 5q36 10 55.5 29t36.5 61l171 442h-312q-16 13 -23.5 35.5t-7.5 46.5h439l-184 -469q-23 -53 -23 -95q0 -31 14 -55l9 -16l-18 -15h-167z" />
    <glyph glyph-name="eight" unicode="8" horiz-adv-x="616" 
d="M110.5 25q-61.5 40 -61.5 124q0 55 34 98t86 73q-53 29 -79 67t-26 95q0 48 23 90t70 68t115 26q99 0 159.5 -41t60.5 -126q0 -50 -31.5 -91t-79.5 -69q65 -34 96.5 -77.5t31.5 -99.5q0 -80 -63.5 -128.5t-174.5 -48.5q-99 0 -160.5 40zM395 500q0 51 -32.5 83t-90.5 32
q-49 0 -81 -32t-32 -74q0 -38 26.5 -65.5t91.5 -56.5l58 -27q60 71 60 140zM371 62.5q38 27.5 38 75.5q0 45 -22.5 70.5t-76.5 49.5l-97 42q-34 -36 -51 -74.5t-17 -73.5q0 -52 34 -84.5t93 -32.5q61 0 99 27.5z" />
    <glyph glyph-name="nine" unicode="9" horiz-adv-x="646" 
d="M135 22.5q-51 35.5 -51 91.5q0 37 25.5 59.5t65.5 22.5q9 0 14 -3t5 -7q0 -3 -10.5 -22.5t-10.5 -44.5q0 -36 25.5 -58t65.5 -22q85 0 123 77t38 190q0 33 -1 48q-23 -47 -69.5 -75.5t-107.5 -28.5q-56 0 -96 26.5t-60.5 69.5t-20.5 93q0 57 25.5 108.5t75.5 83.5t120 32
q116 0 173 -99t57 -255q0 -92 -28.5 -165t-86 -115t-141.5 -42q-79 0 -130 35.5zM379 357q32 43 32 101q0 59 -30 102.5t-83 43.5q-57 0 -88 -43t-31 -102q0 -58 29 -101.5t81 -43.5q58 0 90 43z" />
    <glyph glyph-name="colon" unicode=":" horiz-adv-x="191" 
d="M49.5 334q-19.5 21 -19.5 38q0 19 19 40t36 21q16 0 37 -21.5t21 -39.5q0 -16 -21 -37.5t-37 -21.5t-35.5 21zM49.5 8q-19.5 21 -19.5 38q0 19 19 39.5t36 20.5q16 0 37 -21t21 -39q0 -17 -21 -38t-37 -21t-35.5 21z" />
    <glyph glyph-name="semicolon" unicode=";" horiz-adv-x="191" 
d="M49.5 334q-19.5 21 -19.5 38q0 19 19 40t36 21q16 0 37 -21.5t21 -39.5q0 -16 -21 -37.5t-37 -21.5t-35.5 21zM6 -95l42 82q11 24 11 38q0 10 -5 17.5t-16 15.5l-17 11l-4 22l16 6q27 10 50 10q27 0 43.5 -14t16.5 -46q0 -25 -18 -52t-57 -69l-35 -38z" />
    <glyph glyph-name="less" unicode="&#x3c;" horiz-adv-x="621" 
d="M473 134l-384 156v67l384 157v-71l-306 -120l306 -119v-70z" />
    <glyph glyph-name="equal" unicode="=" horiz-adv-x="621" 
d="M89 388v67h384v-67h-384zM89 191v69h384v-69h-384z" />
    <glyph glyph-name="greater" unicode="&#x3e;" horiz-adv-x="621" 
d="M89 134v70l307 119l-307 120v71l384 -157v-67z" />
    <glyph glyph-name="question" unicode="?" horiz-adv-x="538" 
d="M148 253q75 65 114 113.5t51.5 84t12.5 72.5q0 56 -30 84.5t-80 28.5q-39 0 -62 -21.5t-23 -56.5q0 -37 10 -54.5t10 -20.5q0 -10 -16 -10q-39 0 -64 25t-25 65q0 36 24.5 64.5t68 44.5t98.5 16q82 0 137.5 -42.5t55.5 -116.5q0 -94 -127 -218q-37 -35 -53 -54t-23 -44
l-4 -18h-18zM175.5 8q-19.5 21 -19.5 38q0 19 19 39.5t36 20.5t37 -21t20 -39q0 -17 -20 -38t-37 -21q-16 0 -35.5 21z" />
    <glyph glyph-name="at" unicode="@" horiz-adv-x="892" 
d="M204.5 -56.5q-73.5 43.5 -114 118t-40.5 165.5q0 104 51.5 192.5t140 140.5t193.5 52q96 0 169.5 -43t114 -118t40.5 -166q0 -59 -23 -117t-67.5 -96.5t-105.5 -38.5q-49 0 -79.5 30.5t-30.5 87.5q-28 -33 -62.5 -51t-67.5 -18q-48 0 -80 39t-32 110q0 70 25 122t70.5 80
t103.5 28q28 0 92 -10l60 -8l6 -9l-8 -16q-10 -15 -11 -25q-20 -228 -20 -240q0 -35 13 -54t34 -19q20 0 42 23.5t37 71t15 114.5q0 78 -28.5 139.5t-83 96.5t-128.5 35q-85 0 -152 -45t-104 -121.5t-37 -168.5q0 -79 28.5 -141t83.5 -97t131 -35q48 0 86.5 9.5t75.5 31.5
l22 -39q-46 -27 -91.5 -40.5t-97.5 -13.5q-97 0 -170.5 43.5zM410.5 164.5q21.5 14.5 41.5 43.5l16 181q-27 20 -59 20q-52 0 -80.5 -47t-28.5 -107q0 -46 20 -75.5t49 -29.5q20 0 41.5 14.5z" />
    <glyph glyph-name="A" unicode="A" horiz-adv-x="639" 
d="M-15 31l21 5q37 11 53 26.5t30 57.5l142 410q10 32 10 44q0 17 -9.5 26.5t-30.5 13.5l-21 5l11 31h174l183 -524q15 -43 31.5 -64t50.5 -47l-12 -15h-205l-10 31l22 5q21 5 30.5 14.5t9.5 26.5q0 10 -4.5 23.5l-6.5 19.5l-43 127h-209l-22 -66q-20 -62 -20 -95t13 -55
l7 -16l-17 -15h-166zM222 304h171l-87 254z" />
    <glyph glyph-name="B" unicode="B" horiz-adv-x="589" 
d="M40 31l22 5q34 11 45.5 27t11.5 57v448q0 12 -4.5 16.5t-14.5 4.5h-53l-11 34q39 15 103 27.5t122 12.5q125 0 185 -49.5t60 -128.5q0 -51 -23.5 -92.5t-71.5 -63.5q60 -20 94 -60.5t34 -89.5q0 -83 -55.5 -131t-178.5 -48h-253zM409 84.5q36 37.5 36 98.5
q0 53 -38.5 89.5t-103.5 36.5q-35 0 -61 11q-13 7 -13 21q0 15 12 15q5 0 17 -2t29 -2q61 0 95.5 35.5t34.5 95.5q0 58 -38.5 94t-107.5 36q-61 0 -61 -43v-404q0 -75 29.5 -97t70.5 -22q63 0 99 37.5z" />
    <glyph glyph-name="C" unicode="C" horiz-adv-x="559" 
d="M162 31.5q-65 44.5 -97.5 121t-32.5 171.5q0 97 32.5 173.5t98 121t161.5 44.5q59 0 105 -17t72 -47t26 -69q0 -46 -27 -75.5t-68 -29.5q-21 0 -21 11q0 2 8 14.5t14 29t6 38.5q0 42 -31.5 68.5t-83.5 26.5q-67 0 -109.5 -42t-61.5 -107.5t-19 -139.5q0 -75 24 -138
t68.5 -99.5t102.5 -36.5t101.5 21.5t69.5 59.5q3 4 6 4q9 0 19 -8.5t10 -17.5q0 -3 -2 -7q-80 -115 -212 -115q-94 0 -159 44.5z" />
    <glyph glyph-name="D" unicode="D" horiz-adv-x="663" 
d="M36 31l22 5q28 9 42.5 24.5t14.5 49.5v458q0 12 -5 16.5t-15 4.5h-52l-11 34q43 15 112 27.5t133 12.5q189 0 272 -94t83 -245q0 -92 -34 -165.5t-101.5 -116t-165.5 -42.5h-284zM534 326q0 77 -26.5 142t-80.5 105t-133 40q-89 0 -89 -43v-411q0 -65 27 -89t71 -24
q231 0 231 280z" />
    <glyph glyph-name="E" unicode="E" horiz-adv-x="551" 
d="M471 -13q-7 7 -15.5 10t-22.5 3h-382l-11 29l20 5q33 10 44 25.5t11 54.5v355q0 54 -9 87t-31 63l-12 17l12 14h277q79 0 102 19l18 12l13 -12v-161l-31 -11l-5 22q-12 49 -31 65t-66 16h-89q-35 0 -46.5 -14t-11.5 -56v-174h115q23 0 39 9t33 32l7 10l18 -10v-155
l-30 -11l-6 23q-10 31 -30 41t-70 10h-76v-185q0 -29 4.5 -43.5t16.5 -19.5t37 -5h97q33 0 51 6.5t28.5 23.5t19.5 50l6 20l30 -9v-156l-17 -9z" />
    <glyph glyph-name="F" unicode="F" horiz-adv-x="495" 
d="M40 15l12 16q23 30 32.5 63t9.5 88v287q0 53 -9.5 86.5t-32.5 63.5l-12 17l12 14h268q41 0 65.5 4.5t39.5 14.5l15 12l14 -12v-161l-29 -11l-7 22q-9 34 -19 50.5t-28 23.5t-51 7h-80q-35 0 -46 -14t-11 -56v-183h107q22 0 38.5 9t31.5 33l8 10l19 -10v-156l-32 -10
l-4 20q-9 31 -30 42t-70 11h-68v-176q0 -42 11 -57.5t46 -26.5l22 -5l-11 -31h-199z" />
    <glyph glyph-name="G" unicode="G" horiz-adv-x="625" 
d="M248.5 -234.5q-37.5 18.5 -56 48.5t-18.5 63q0 46 30.5 78t84.5 32q17 0 17 -9q0 -4 -13 -17.5t-22.5 -32.5t-9.5 -48q0 -37 25 -61t68 -24q60 0 89.5 45.5t29.5 148.5v86q-73 -60 -160 -60q-92 0 -155 43t-94.5 117t-31.5 166q0 88 33.5 161t101 117t164.5 44
q63 0 113 -18t78 -50.5t28 -73.5q0 -47 -27.5 -77t-69.5 -30q-13 0 -15.5 2t-2.5 10q0 3 7.5 15.5t12.5 28.5t5 38q0 47 -35.5 76t-93.5 29q-71 0 -116 -41t-65 -102t-20 -125q0 -75 23 -137t66.5 -98t100.5 -36q92 0 153 61v46q0 41 -12.5 57.5t-47.5 26.5l-19 6l10 32h191
l11 -16l-11 -16q-23 -30 -32.5 -64t-9.5 -88v-104q0 -268 -214 -268q-53 0 -90.5 18.5z" />
    <glyph glyph-name="H" unicode="H" horiz-adv-x="705" 
d="M36 31l22 5q35 11 46 26.5t11 57.5v410q0 42 -11.5 58.5t-45.5 25.5l-22 5l11 31h199l12 -14l-12 -17q-23 -29 -32 -62.5t-9 -87.5v-112h296v173q0 41 -12 58t-47 26l-19 5l11 31h197l14 -14l-14 -17q-22 -30 -31.5 -63.5t-9.5 -86.5v-355q0 -39 11.5 -54.5t44.5 -25.5
l19 -5l-10 -29h-221l-11 31l19 5q36 11 47.5 26.5t11.5 57.5v183h-296v-189q0 -39 11 -54.5t44 -25.5l18 -5l-8 -29h-223z" />
    <glyph glyph-name="I" unicode="I" horiz-adv-x="319" 
d="M36 31l22 5q35 11 46 26.5t11 57.5v410q0 42 -11.5 58.5t-45.5 25.5l-22 5l11 31h199l12 -14l-12 -17q-23 -29 -32 -62.5t-9 -87.5v-355q0 -39 11 -54.5t44 -25.5l18 -5l-8 -29h-223z" />
    <glyph glyph-name="J" unicode="J" horiz-adv-x="425" 
d="M56 5.5q-37 18.5 -55.5 48.5t-18.5 63q0 45 30.5 77.5t84.5 32.5q8 0 12.5 -3t4.5 -7t-13 -18t-22 -32.5t-9 -47.5q0 -37 22 -61t60 -24q95 0 95 125v371q0 41 -12 58t-47 26l-20 5l11 31h197l13 -14l-13 -17q-22 -29 -30.5 -62.5t-8.5 -87.5v-255q0 -118 -50.5 -172.5
t-140.5 -54.5q-53 0 -90 18.5z" />
    <glyph glyph-name="K" unicode="K" horiz-adv-x="605" 
d="M36 31l22 5q35 11 46 26.5t11 57.5v410q0 42 -11.5 58.5t-45.5 25.5l-22 5l11 31h199l12 -14l-12 -17q-23 -29 -32 -62.5t-9 -87.5v-355q0 -39 11 -54.5t44 -25.5l18 -5l-8 -29h-223zM437.5 9q-27.5 22 -51.5 67l-109 196q-9 17 -18.5 25t-28.5 16q-3 2 -3 10q0 22 18 22
h21l124 182q11 19 14.5 29.5t3.5 22.5t-5.5 24.5t-6.5 15.5l-7 17l16 14h165l11 -31l-21 -5q-22 -5 -38.5 -15.5t-32.5 -33.5l-163 -236q40 -18 63 -58l115 -207q11 -16 17.5 -21.5t17.5 -5.5q19 0 35 13l15 -27q-36 -36 -83 -36q-41 0 -68.5 22z" />
    <glyph glyph-name="L" unicode="L" horiz-adv-x="497" 
d="M451 -13q-5 7 -14 10t-25 3h-361l-11 29l20 5q33 10 44 25.5t11 54.5v416q0 42 -11.5 58.5t-45.5 25.5l-22 5l11 31h199l12 -14l-12 -17q-23 -29 -32 -62.5t-9 -87.5v-349q0 -29 4.5 -43.5t16.5 -19.5t37 -5h79q47 0 66.5 16t31.5 64l5 20l32 -9v-156l-19 -9z" />
    <glyph glyph-name="M" unicode="M" horiz-adv-x="834" 
d="M14 31l20 5q36 11 49 26.5t16 57.5l25 359q1 11 2.5 32.5t1.5 37.5q0 31 -11 44t-41 21l-22 5l9 31h166l187 -456l191 456h131l14 -14l-10 -17q-18 -25 -25.5 -50.5t-7.5 -63.5q0 -15 1.5 -39.5t2.5 -40.5l17 -249q5 -56 19.5 -93.5t44.5 -67.5l-12 -15h-199l-11 31l21 5
q29 9 41 23t12 42l-1 34l-28 379l-189 -450h-49l-190 450l-20 -281q-5 -77 -5 -88q0 -37 7.5 -63.5t24.5 -50.5l12 -16l-15 -15h-170z" />
    <glyph glyph-name="N" unicode="N" horiz-adv-x="705" 
d="M31 31l21 5q35 11 46 26.5t11 57.5v410q0 42 -11.5 58.5t-45.5 25.5l-21 5l11 31h146l346 -513v393q0 41 -12 58t-46 26l-22 5l13 31h170l13 -14l-13 -17q-22 -29 -31 -62.5t-9 -87.5v-389q0 -28 13 -49l11 -16l-11 -15h-91l-345 513v-331q0 -56 8.5 -89t31.5 -62l12 -16
l-12 -15h-172z" />
    <glyph glyph-name="O" unicode="O" horiz-adv-x="663" 
d="M166 31.5q-67 44.5 -100.5 120.5t-33.5 172t33.5 173t100.5 121.5t165 44.5t165.5 -44.5t101.5 -121.5t34 -173t-34 -172t-101.5 -120.5t-165.5 -44.5t-165 44.5zM437.5 77.5q46.5 37.5 71.5 101.5t25 142q0 66 -19 132.5t-63 112.5t-115 46q-64 0 -111 -39.5t-71.5 -107
t-24.5 -149.5q0 -120 51.5 -198t145.5 -78q64 0 110.5 37.5z" />
    <glyph glyph-name="P" unicode="P" horiz-adv-x="539" 
d="M36 31l22 5q34 9 45.5 25.5t11.5 58.5v448q0 12 -5 16.5t-15 4.5h-52l-11 34q39 15 103 27.5t123 12.5q133 0 198 -60t65 -155q0 -59 -23.5 -107t-72 -76.5t-120.5 -28.5q-32 0 -56 8.5t-24 23.5q0 9 3.5 15.5t10.5 6.5q3 0 15 -3.5t29 -3.5q68 0 106.5 44t38.5 117
q0 74 -40.5 121.5t-114.5 47.5q-68 0 -68 -43v-388q0 -56 9 -88.5t32 -62.5l12 -16l-12 -15h-199z" />
    <glyph glyph-name="Q" unicode="Q" horiz-adv-x="663" 
d="M542.5 -169.5q-36.5 31.5 -65.5 97.5l-36 76q-50 -17 -110 -17q-92 0 -159.5 41t-103.5 117t-36 179q0 104 36.5 180.5t104 117.5t158.5 41q92 0 160 -41.5t104.5 -118t36.5 -179.5q0 -93 -31.5 -165.5t-89.5 -116.5l46 -101q15 -36 38 -53t56 -17q19 0 33.5 6t16.5 6
q3 0 6 -2.5t3 -6.5q0 -32 -24.5 -53.5t-60.5 -21.5q-46 0 -82.5 31.5zM518 206.5q16 53.5 16 114.5q0 84 -25 150.5t-70 103.5t-102 37q-61 0 -108 -37.5t-73 -104.5t-26 -154q0 -129 54 -201q-2 4 -2 18q0 44 30.5 70t83.5 26q50 0 95.5 -29.5t81.5 -85.5q29 39 45 92.5z
M414 63q-26 54 -62 84.5t-72 30.5q-26 0 -42 -16t-16 -42q0 -36 29 -58t76 -22t87 23z" />
    <glyph glyph-name="R" unicode="R" horiz-adv-x="579" 
d="M409.5 11q-27.5 24 -55.5 83l-69 145q-8 18 -19 26t-42 18q-17 9 -17 23q0 20 15 20q4 0 14 -3t29 -3q67 0 105.5 38t38.5 103q0 69 -41 110.5t-112 41.5q-34 0 -52 -11t-18 -32v-388q0 -55 9 -87.5t33 -63.5l11 -16l-11 -15h-199l-11 31l21 5q34 9 46 26t12 58v448
q0 11 -4.5 16t-15.5 5h-52l-11 34q43 17 107.5 28.5t117.5 11.5q125 0 194.5 -52t69.5 -146q0 -71 -39 -119.5t-108 -65.5q24 -17 38 -44l84 -172q12 -27 35 -27q17 0 34 13l16 -27q-41 -36 -84 -36q-42 0 -69.5 24z" />
    <glyph glyph-name="S" unicode="S" horiz-adv-x="518" 
d="M148.5 5.5q-51.5 18.5 -80 52t-28.5 75.5q0 46 29.5 76t74.5 30q9 0 14 -3t5 -7q0 -3 -8.5 -16t-14.5 -29t-6 -38q0 -48 36 -78t95 -30q52 0 84 27.5t32 75.5q0 39 -20 66t-49.5 44.5t-79.5 39.5q-57 25 -92.5 47t-60 58t-24.5 91q0 46 22.5 86.5t67.5 65t109 24.5
q58 0 104 -17t72 -47t26 -69q0 -46 -27.5 -75.5t-69.5 -29.5q-18 0 -18 11q0 2 7.5 14.5t13.5 29t6 38.5q0 41 -32 68t-82 27q-54 0 -83 -30.5t-29 -74.5q0 -34 19 -58t47 -40.5t78 -38.5q60 -27 97.5 -50t63.5 -61.5t26 -95.5q0 -81 -54.5 -129t-153.5 -48
q-65 0 -116.5 18.5z" />
    <glyph glyph-name="T" unicode="T" horiz-adv-x="539" 
d="M173 15l11 16q23 30 32 62.5t9 88.5v348q0 43 -6 56.5t-26 13.5h-41q-33 0 -50.5 -7t-28 -24t-19.5 -50l-5 -22l-31 11v161l15 12l16 -12q24 -19 102 -19h237q79 0 102 19l16 12l15 -12v-161l-31 -11l-5 22q-13 49 -32 65t-66 16h-42q-19 0 -25.5 -14t-6.5 -56v-410
q0 -42 11.5 -57.5t47.5 -26.5l22 -5l-11 -31h-199z" />
    <glyph glyph-name="U" unicode="U" horiz-adv-x="669" 
d="M167 39.5q-66 52.5 -66 158.5v332q0 42 -11.5 58.5t-46.5 25.5l-22 5l12 31h197l12 -14l-12 -17q-22 -30 -31 -63t-9 -87v-271q0 -71 46 -112t115 -41q68 0 113 41t45 112v332q0 42 -11.5 58.5t-46.5 25.5l-21 5l11 31h172l12 -14l-12 -17q-23 -29 -32 -62.5t-9 -87.5
v-271q0 -106 -64.5 -158.5t-168.5 -52.5q-106 0 -172 52.5z" />
    <glyph glyph-name="V" unicode="V" horiz-adv-x="618" 
d="M86 525q-15 42 -32 64t-50 47l12 14h205l9 -31l-19 -5q-22 -5 -32 -14.5t-10 -25.5q0 -10 5 -25t6 -19l146 -454l128 394q18 54 18 83q-2 52 -42 61l-21 5l11 31h172l12 -14l-14 -17q-32 -39 -50 -90l-175 -529h-102z" />
    <glyph glyph-name="W" unicode="W" horiz-adv-x="984" 
d="M86 525q-15 42 -32 64t-50 47l12 14h205l9 -31l-19 -5q-22 -5 -32 -14.5t-10 -25.5q0 -10 5 -25t6 -19l146 -454l135 421l-8 28q-13 41 -30.5 63t-51.5 48l13 14h203l11 -31l-22 -5q-21 -4 -30.5 -13.5t-9.5 -26.5q0 -12 10 -44l148 -454l126 394q19 52 19 83
q-2 52 -42 61l-20 5l10 31h173l12 -14l-14 -17q-34 -41 -51 -90l-174 -529h-103l-133 395l-132 -395h-102z" />
    <glyph glyph-name="X" unicode="X" horiz-adv-x="615" 
d="M10 31l20 5q23 6 39.5 16.5t31.5 32.5l162 235l-156 219q-40 61 -81 97l11 14h216l10 -31l-22 -5q-34 -8 -34 -39q0 -13 6 -27.5t14 -26.5l93 -132l92 138q13 19 17 29.5t4 22.5q0 14 -13 40l-9 17l19 14h166l11 -31l-21 -5q-22 -5 -38.5 -16t-30.5 -33l-161 -228
l165 -233q19 -29 36.5 -49t42.5 -40l-13 -15h-215l-11 31l22 5q35 9 35 40q0 20 -21 53l-98 138l-95 -144q-12 -19 -16 -29.5t-4 -22.5t11 -40l10 -16l-19 -15h-166z" />
    <glyph glyph-name="Y" unicode="Y" horiz-adv-x="566" 
d="M186 15l11 16q23 30 33 63t10 88v85l-145 254q-26 45 -45 69.5t-46 45.5l12 14h205l9 -31l-19 -5q-22 -5 -32 -14.5t-10 -25.5q0 -11 28 -56l99 -172l101 183q11 22 11 37q0 19 -11 31.5t-27 16.5l-19 5l9 31h173l11 -14l-13 -17q-38 -47 -63 -96l-142 -249v-154
q0 -41 13 -58t48 -26l19 -5l-10 -31h-199z" />
    <glyph glyph-name="Z" unicode="Z" horiz-adv-x="533" 
d="M473 -13q-8 13 -37 13h-418l360 600h-192q-33 0 -51 -7t-28.5 -24t-18.5 -50l-6 -22l-30 11v161l13 12l17 -12q14 -10 38.5 -14.5t65.5 -4.5h331l-358 -598h203q34 0 52 6.5t28 23t19 50.5l7 20l30 -9v-156l-18 -9z" />
    <glyph glyph-name="bracketleft" unicode="[" horiz-adv-x="387" 
d="M114 701h212v-44l-72 -10q-26 -4 -37.5 -14t-11.5 -33v-599q0 -24 11.5 -34t37.5 -14l72 -11v-43h-212v802z" />
    <glyph glyph-name="backslash" unicode="\" horiz-adv-x="371" 
d="M271 -58l-271 766h64l273 -766h-66z" />
    <glyph glyph-name="bracketright" unicode="]" horiz-adv-x="387" 
d="M25 -58l73 11q26 4 37 14t11 34v599q0 23 -11 33t-37 14l-73 10v44h212v-802h-212v43z" />
    <glyph glyph-name="asciicircum" unicode="^" horiz-adv-x="621" 
d="M87 360l154 290h79l155 -290h-74l-122 231l-118 -231h-74z" />
    <glyph glyph-name="underscore" unicode="_" horiz-adv-x="355" 
d="M-17.5 -40.5q5.5 17.5 17.5 27.5h345q0 -19 -5.5 -36.5t-18.5 -27.5h-344q0 19 5.5 36.5z" />
    <glyph glyph-name="grave" unicode="`" horiz-adv-x="288" 
d="M100 566q-27 13 -39 29t-12 36q0 40 38 57l142 -141l-27 -30z" />
    <glyph glyph-name="a" unicode="a" horiz-adv-x="546" 
d="M122.5 12.5q-37.5 25.5 -60 75t-22.5 120.5q0 117 63.5 185t171.5 68q36 0 98 -11q46 -8 83 -11l12 -11l-13 -17q-7 -12 -9.5 -18.5t-2.5 -17.5v-295q0 -28 29 -28q22 0 45 16l17 -23q-24 -27 -51 -42.5t-49 -15.5q-38 0 -55 22.5t-17 73.5q-36 -53 -74.5 -74.5
t-83.5 -21.5q-44 0 -81.5 25.5zM362 140v245q-39 26 -88 26q-65 0 -101.5 -48.5t-36.5 -137.5q0 -86 29.5 -126.5t73.5 -40.5q76 0 123 82z" />
    <glyph glyph-name="b" unicode="b" horiz-adv-x="533" 
d="M160.5 2.5q-45.5 15.5 -72.5 42.5v566q0 11 -4 15.5t-14 4.5h-39l-9 23q26 24 60 39.5t61 15.5q13 0 21 -8t8 -21v-613q39 -29 94 -29q61 0 96 50.5t35 136.5q0 84 -34 135t-91 51q-25 0 -39.5 -5.5t-17.5 -5.5q-5 0 -9.5 6t-4.5 13q0 11 9 18q41 24 92 24q55 0 98.5 -28
t68 -77.5t24.5 -113.5q0 -72 -30.5 -130.5t-83.5 -91.5t-120 -33q-53 0 -98.5 15.5z" />
    <glyph glyph-name="c" unicode="c" horiz-adv-x="460" 
d="M147 18q-50 31 -78.5 85t-28.5 121q0 72 27 125.5t77 82.5t116 29q70 0 114.5 -33.5t44.5 -86.5q0 -39 -25 -63.5t-64 -24.5q-9 0 -13 2t-4 7q0 3 6.5 13t11.5 24.5t5 37.5q0 36 -23.5 56.5t-62.5 20.5q-52 0 -83.5 -50.5t-31.5 -133.5q0 -84 37.5 -133t101.5 -49
q33 0 62 11t58 35q2 2 8 2q8 0 15.5 -8.5t7.5 -17.5q0 -7 -2 -7q-32 -37 -74.5 -56.5t-88.5 -19.5q-63 0 -113 31z" />
    <glyph glyph-name="d" unicode="d" horiz-adv-x="546" 
d="M122.5 12.5q-37.5 25.5 -60 75t-22.5 120.5q0 117 63.5 185t171.5 68q53 0 86 -11v161q0 11 -4 15.5t-13 4.5h-40l-8 23q25 24 59 39.5t59 15.5q13 0 21 -8t8 -21v-600q0 -28 29 -28q22 0 45 16l17 -23q-24 -27 -51 -42.5t-49 -15.5q-38 0 -55 22.5t-17 73.5
q-36 -53 -74.5 -74.5t-83.5 -21.5q-44 0 -81.5 25.5zM362 140v245q-39 26 -88 26q-65 0 -101.5 -48.5t-36.5 -137.5q0 -86 29.5 -126.5t73.5 -40.5q76 0 123 82z" />
    <glyph glyph-name="e" unicode="e" horiz-adv-x="479" 
d="M139 16q-47 29 -73 81.5t-26 121.5q0 72 29 127t82.5 85t123.5 30q74 0 114.5 -39t40.5 -94q0 -38 -20.5 -73t-60 -57t-92.5 -22q-30 0 -65 10.5t-35 31.5q0 8 4 14t9 6q3 0 18.5 -5.5t40.5 -5.5q55 0 85 30t30 72q0 36 -23.5 62t-62.5 26q-59 0 -91.5 -51.5
t-32.5 -146.5q0 -81 34.5 -126.5t99.5 -45.5q80 0 132 52q3 3 8 3q8 0 16.5 -8t8.5 -17q0 -3 -2 -5.5t-2 -3.5q-34 -40 -80.5 -60.5t-99.5 -20.5q-63 0 -110 29z" />
    <glyph glyph-name="f" unicode="f" horiz-adv-x="302" 
d="M-63.5 -191q-31.5 25 -31.5 67q0 35 25.5 58.5t63.5 23.5q17 0 17 -10q0 -2 -7.5 -11.5t-13 -22t-5.5 -31.5q0 -28 14 -44t36 -16q27 0 45.5 24.5t18.5 70.5v476h-80q0 24 3.5 31.5t17.5 11.5l59 13q0 122 42.5 190.5t125.5 68.5q59 0 97 -28.5t38 -73.5
q0 -38 -25.5 -62.5t-63.5 -24.5q-17 0 -17 9q0 3 6.5 13t11 24.5t4.5 37.5q0 29 -16 46.5t-44 17.5q-40 0 -59 -39.5t-19 -108.5v-70h128q0 -19 -6 -34t-16 -22h-106v-406q0 -94 -41 -149t-122 -55q-49 0 -80.5 25z" />
    <glyph glyph-name="g" unicode="g" horiz-adv-x="545" 
d="M171 -234.5q-35 18.5 -52.5 48t-17.5 63.5q0 46 31 78t85 32q8 0 12 -2.5t4 -6.5t-12.5 -17.5t-22 -32.5t-9.5 -48q0 -36 21.5 -60.5t57.5 -24.5q56 0 82 46.5t26 124.5v143q-37 -51 -76.5 -73t-82.5 -22q-44 0 -81.5 22t-59.5 66t-22 106q0 117 63.5 185t172.5 68
q34 0 96 -11q10 -1 36.5 -5t48.5 -6l9 -11l-10 -17q-7 -10 -10 -17t-3 -19v-395q0 -111 -53.5 -172t-146.5 -61q-51 0 -86 18.5zM321.5 103q31.5 20 54.5 63v219q-39 26 -87 26q-66 0 -103.5 -48.5t-37.5 -137.5q0 -73 30 -107.5t76 -34.5q36 0 67.5 20z" />
    <glyph glyph-name="h" unicode="h" horiz-adv-x="578" 
d="M406 8q-16 23 -16 74v215q0 47 -18.5 71t-59.5 24q-39 0 -69 -31t-46.5 -87t-16.5 -129q0 -42 6.5 -68t23.5 -49l11 -14l-11 -14h-159l-11 28l20 5q23 4 30.5 18.5t7.5 49.5v510q0 11 -4 15.5t-14 4.5h-41l-7 23q26 24 59.5 39.5t58.5 15.5q13 0 21.5 -8t8.5 -21v-354
q23 59 71 97t100 38q66 0 93.5 -38.5t27.5 -125.5v-219q0 -31 26 -31q21 0 45 18l19 -22q-25 -27 -52.5 -42.5t-50.5 -15.5q-37 0 -53 23z" />
    <glyph glyph-name="i" unicode="i" horiz-adv-x="282" 
d="M103 558q-20 21 -20 38t19.5 38t35.5 21q17 0 37 -21t20 -38t-20 -38t-37 -21q-15 0 -35 21zM114.5 9.5q-16.5 22.5 -16.5 73.5v280q0 12 -4 17t-14 5h-41l-7 22q26 24 59.5 39t58.5 15q13 0 21.5 -7.5t8.5 -19.5v-354q0 -31 27 -31q21 0 46 19l17 -23q-25 -26 -52.5 -42
t-49.5 -16q-37 0 -53.5 22.5z" />
    <glyph glyph-name="j" unicode="j" horiz-adv-x="264" 
d="M98.5 558q-19.5 21 -19.5 38t19.5 38t35.5 21q17 0 37 -21t20 -38t-20 -38t-37 -21q-16 0 -35.5 21zM-69 -228q-32 25 -32 68q0 35 25.5 58.5t63.5 23.5q17 0 17 -10q0 -2 -7 -11t-12.5 -21.5t-5.5 -31.5q0 -28 14 -44.5t36 -16.5q27 0 45.5 24t18.5 71v481q0 12 -4 17
t-14 5h-41l-7 22q26 24 59.5 39t58.5 15q13 0 21.5 -7.5t8.5 -19.5v-482q0 -94 -41.5 -149.5t-122.5 -55.5q-49 0 -81 25z" />
    <glyph glyph-name="k" unicode="k" horiz-adv-x="528" 
d="M367.5 -2.5q-17.5 10.5 -30 29t-32.5 56.5l-68 128l-8 3q-17 4 -17 18q0 6 3.5 12t10.5 6q3 0 18 -4.5t39 -4.5q49 0 77 29t28 66q0 27 -16 45.5t-46 18.5q-67 0 -106.5 -70t-39.5 -185q0 -43 6.5 -69t23.5 -48l11 -14l-11 -14h-159l-11 28l20 5q23 4 30.5 18.5t7.5 49.5
v510q0 11 -4 15.5t-14 4.5h-41l-7 23q26 24 59.5 39.5t58.5 15.5q13 0 21.5 -8t8.5 -21v-354q23 60 68.5 97.5t96.5 37.5q60 0 92.5 -34t32.5 -83q0 -51 -36 -91.5t-98 -47.5l69 -135q14 -25 38 -25q13 0 26 6.5t22 16.5l20 -23q-43 -58 -98 -58q-28 0 -45.5 10.5z" />
    <glyph glyph-name="l" unicode="l" horiz-adv-x="272" 
d="M104.5 9.5q-16.5 22.5 -16.5 73.5v528q0 11 -4 15.5t-14 4.5h-39l-9 23q26 24 60 39.5t61 15.5q13 0 21 -8t8 -21l-2 -600q0 -15 7 -23t20 -8q25 0 45 19l18 -23q-23 -26 -51 -42t-50 -16q-38 0 -54.5 22.5z" />
    <glyph glyph-name="m" unicode="m" horiz-adv-x="852" 
d="M679.5 9.5q-16.5 22.5 -16.5 73.5v216q0 93 -67 93q-37 0 -66.5 -29.5t-46.5 -83t-18 -123.5v-11q0 -46 7.5 -74t31.5 -57l-11 -14h-109v299q0 46 -17.5 69.5t-51.5 23.5q-39 0 -68.5 -31t-45.5 -87t-16 -129q0 -42 6.5 -68t22.5 -49l11 -14l-11 -14h-159l-9 28l17 5
q24 4 31.5 18.5t7.5 49.5v254q0 11 -4 15.5t-14 4.5h-39l-9 24q26 24 60 39t60 15q13 0 21 -8t8 -20v-99q23 60 68.5 97.5t95.5 37.5q56 0 84 -32.5t32 -102.5q23 59 69 97t95 38q61 0 88.5 -39t27.5 -123v-219q0 -31 26 -31q23 0 45 19l18 -23q-24 -27 -51 -42.5t-50 -15.5
q-37 0 -53.5 22.5z" />
    <glyph glyph-name="n" unicode="n" horiz-adv-x="582" 
d="M410 9.5q-16 22.5 -16 73.5v216q0 46 -20 69.5t-59 23.5t-68.5 -31t-45.5 -87t-16 -129q0 -42 6.5 -68t22.5 -49l11 -14l-11 -14h-159l-9 28l17 5q24 4 31.5 18.5t7.5 49.5v254q0 11 -4 15.5t-14 4.5h-39l-9 24q26 24 60 39t60 15q13 0 21 -8t8 -20v-99q23 59 70 97
t99 38q63 0 92.5 -39t29.5 -123v-219q0 -31 27 -31q22 0 45 19l17 -23q-23 -26 -51 -42t-51 -16q-37 0 -53 22.5z" />
    <glyph glyph-name="o" unicode="o" horiz-adv-x="523" 
d="M100 51.5q-60 64.5 -60 173.5t60 172.5t162 63.5q67 0 117 -29t77 -82t27 -125t-27.5 -126t-77.5 -83t-116 -29q-102 0 -162 64.5zM352.5 87.5q35.5 51.5 35.5 135.5q0 43 -12 86.5t-39.5 74t-71.5 30.5q-59 0 -94.5 -52t-35.5 -138t33.5 -137t91.5 -51q57 0 92.5 51.5z
" />
    <glyph glyph-name="p" unicode="p" horiz-adv-x="539" 
d="M53 -228l10 15q17 23 24 48.5t7 68.5v441q0 13 -4 20t-15 10l-47 11v28q14 13 54 25t70 12q23 0 23 -42v-4q58 56 131 56q55 0 99 -28t68.5 -77.5t24.5 -113.5q0 -72 -26 -130.5t-71.5 -91.5t-101.5 -33q-54 0 -90 25q-9 5 -9 16q0 10 3.5 16.5t10.5 6.5q3 0 19.5 -7.5
t43.5 -7.5q56 0 90.5 53t34.5 136q0 78 -34.5 127.5t-91.5 49.5q-30 0 -54 -8t-47 -27v-508q0 -35 7.5 -49t30.5 -19l18 -4l-8 -27h-160z" />
    <glyph glyph-name="q" unicode="q" horiz-adv-x="533" 
d="M297 -211l28 14q22 8 29.5 21.5t7.5 43.5v215q-36 -53 -74.5 -74.5t-83.5 -21.5q-44 0 -81.5 25.5t-60 75t-22.5 120.5q0 117 63.5 185t171.5 68q35 0 99 -11q47 -8 84 -11l11 -11l-12 -17q-2 -3 -7 -12.5t-5 -23.5v-481q0 -44 4.5 -66t18.5 -41l9 -15l-10 -12h-170v29z
M362 140v245q-39 26 -88 26q-65 0 -101.5 -48.5t-36.5 -137.5q0 -86 29.5 -126.5t73.5 -40.5q76 0 123 82z" />
    <glyph glyph-name="r" unicode="r" horiz-adv-x="396" 
d="M46 28l17 5q24 4 31.5 18.5t7.5 49.5v254q0 11 -4 15.5t-14 4.5h-39l-9 24q26 24 60 39t60 15q13 0 21 -8t8 -20v-99h5q16 61 48.5 98t70.5 37t62.5 -24.5t24.5 -67.5q0 -34 -25 -57t-63 -23q-18 0 -18 9q0 3 7 14t12 22t5 26q0 17 -8 26.5t-21 9.5q-21 0 -44 -26
t-39.5 -83t-16.5 -145q0 -41 6.5 -66.5t22.5 -47.5l11 -14l-11 -14h-159z" />
    <glyph glyph-name="s" unicode="s" horiz-adv-x="436" 
d="M94 18.5q-45 31.5 -45 82.5q0 30 21.5 50.5t54.5 20.5q7 0 13 -3t6 -8q0 -3 -6 -17.5t-6 -34.5q0 -37 26.5 -57t59.5 -20q38 0 62 20t24 52q0 29 -25.5 48t-73.5 39q-44 19 -73.5 36t-50.5 45t-21 68q0 53 47 87t118 34q65 0 107 -24.5t42 -67.5q0 -35 -21 -57t-55 -22
q-20 0 -20 13q0 4 7.5 18t7.5 32q0 32 -23 48.5t-52 16.5q-37 0 -58.5 -18t-21.5 -47q0 -34 28 -55.5t79 -40.5q44 -19 73 -35t49 -40.5t20 -57.5q0 -62 -49.5 -99.5t-130.5 -37.5q-68 0 -113 31.5z" />
    <glyph glyph-name="t" unicode="t" horiz-adv-x="308" 
d="M110 10.5q-21 23.5 -21 64.5v319h-79q0 24 4 31.5t18 11.5q48 12 68 40t30 74q2 14 9.5 17.5t33.5 3.5v-122h117q0 -19 -5.5 -34t-14.5 -22h-97v-293q0 -28 7.5 -39.5t26.5 -11.5q27 0 61 29l17 -24q-23 -30 -56 -49t-61 -19q-37 0 -58 23.5z" />
    <glyph glyph-name="u" unicode="u" horiz-adv-x="572" 
d="M130 26.5q-36 39.5 -36 110.5v226q0 22 -18 22h-41l-7 22q23 24 56.5 39t61.5 15q13 0 21.5 -7.5t8.5 -19.5v-275q0 -54 22 -82.5t65 -28.5q61 0 95 52.5t34 145.5q0 66 -7.5 103.5t-28.5 73.5l-11 14l11 13l112 11v-381q0 -28 24 -28q23 0 45 16l18 -23
q-22 -26 -49.5 -42t-51.5 -16q-36 0 -52 21.5t-16 66.5q-22 -41 -63 -64.5t-92 -23.5q-65 0 -101 39.5z" />
    <glyph glyph-name="v" unicode="v" horiz-adv-x="500" 
d="M166.5 5q-28.5 18 -45 57.5t-26.5 110.5l-30 190q-2 13 -5 17.5t-12 4.5h-39l-9 22q24 23 56.5 38.5t57.5 15.5t30 -27l40 -285q8 -54 24 -78.5t46 -24.5q56 0 85 64t29 156q0 43 -10.5 84.5t-30.5 73.5l-8 14l10 11l109 12q4 -64 4 -96q0 -120 -27.5 -205.5t-73 -129
t-99.5 -43.5q-47 0 -75.5 18z" />
    <glyph glyph-name="w" unicode="w" horiz-adv-x="736" 
d="M166.5 5q-28.5 18 -45 57.5t-26.5 110.5l-30 190q-2 13 -5 17.5t-12 4.5h-39l-9 22q24 23 56.5 38.5t57.5 15.5t30 -27l40 -285q8 -54 24 -78.5t46 -24.5q29 0 51.5 31t34.5 82t12 108q0 43 -10 84.5t-30 73.5l-9 13l10 12l106 11q6 -48 6 -96q0 -44 -6 -88l19 -128
q8 -55 24.5 -79t48.5 -24q29 0 51.5 31.5t35 82t12.5 107.5q0 43 -10 84.5t-30 73.5l-8 13l9 12l107 11q4 -64 4 -96q0 -120 -24.5 -205.5t-65 -129t-88.5 -43.5q-52 0 -82 26t-46 88q-24 -56 -58.5 -85t-75.5 -29q-47 0 -75.5 18z" />
    <glyph glyph-name="x" unicode="x" horiz-adv-x="500" 
d="M303 51l-74 125q-81 -91 -81 -118q0 -9 4.5 -15.5t13.5 -14.5l17 -14l-10 -14h-141l-11 19q105 103 189 191l-100 170q-8 14 -17 19.5t-21 5.5q-10 0 -34 -11l-20 26q38 41 84 41q63 0 96 -62l73 -124q80 92 80 119q0 8 -4 14t-13 15l-20 14l12 13h142l9 -18l-24 -24
q-93 -91 -163 -167l101 -171q8 -15 16.5 -20t21.5 -5q16 0 33 11l21 -27q-22 -22 -41.5 -32t-42.5 -10q-62 0 -96 64z" />
    <glyph glyph-name="y" unicode="y" horiz-adv-x="551" 
d="M178.5 -234.5q-35.5 18.5 -53 48.5t-17.5 63q0 46 31 78t85 32q8 0 12 -2.5t4 -6.5t-12.5 -17.5t-22 -32.5t-9.5 -48q0 -36 21.5 -60.5t57.5 -24.5q56 0 83 46.5t27 124.5v134q-22 -40 -63.5 -63t-92.5 -23q-64 0 -99.5 39.5t-35.5 110.5v200q0 12 -4 17t-14 5h-41l-7 22
q23 24 56.5 39t61.5 15q13 0 21.5 -7.5t8.5 -19.5v-250q0 -54 22 -82t63 -28q61 0 95 45t34 127q0 75 -6 111t-30 66l-10 14l10 13l111 11v-482q0 -111 -54 -172t-147 -61q-50 0 -85.5 18.5z" />
    <glyph glyph-name="z" unicode="z" horiz-adv-x="434" 
d="M337 -4.5q-23 4.5 -66 4.5h-232l-9 28l253 369h-135q-35 0 -48.5 -7.5t-18.5 -30.5l-11 -47l-28 9v139l10 13q20 -14 43 -18.5t66 -4.5h226q17 -16 17 -39l-24 -15l-238 -344h141q35 0 50 8t19 31l10 47l29 -9v-140l-11 -10q-20 12 -43 16.5z" />
    <glyph glyph-name="braceleft" unicode="{" horiz-adv-x="316" 
d="M114 -23q-45 67 -45 168q0 70 -15 99.5t-54 37.5v34q39 8 54 38t15 100q0 102 45 169t142 78l6 -40q-47 -11 -70 -67t-23 -140q0 -71 -26 -107.5t-73 -46.5q47 -10 73 -46t26 -109q0 -83 23 -139t70 -67l-6 -40q-97 11 -142 78z" />
    <glyph glyph-name="bar" unicode="|" horiz-adv-x="351" 
d="M114 -75v749h91v-749h-91z" />
    <glyph glyph-name="braceright" unicode="}" horiz-adv-x="316" 
d="M23 -61q47 11 70 67t23 139q0 73 26 109t73 46q-47 10 -73 46.5t-26 107.5q0 84 -23 140t-70 67l7 40q96 -11 141 -78t45 -169q0 -70 15.5 -100t54.5 -38v-34q-39 -8 -54.5 -37.5t-15.5 -99.5q0 -101 -45 -168t-141 -78z" />
    <glyph glyph-name="asciitilde" unicode="~" horiz-adv-x="621" 
d="M89 292v68q45 -29 92 -29q25 0 46.5 7t55.5 22q32 15 54.5 22.5t48.5 7.5q50 0 87 -30v-68q-43 29 -92 29q-25 0 -48 -7.5t-52 -21.5q-34 -15 -55.5 -22t-47.5 -7q-54 0 -89 29z" />
    <glyph glyph-name="uni00A0" unicode="&#xa0;" horiz-adv-x="309" 
 />
    <glyph glyph-name="exclamdown" unicode="&#xa1;" horiz-adv-x="222" 
d="M74 365q-20 21 -20 39q0 17 20 37.5t36 20.5q17 0 36.5 -20.5t19.5 -37.5q0 -19 -19.5 -39.5t-36.5 -20.5q-16 0 -36 21zM54 -223q0 52 10 181t24 271q5 42 22 42q20 0 24 -42q34 -360 34 -452q-22 -22 -58 -22q-35 0 -56 22z" />
    <glyph glyph-name="cent" unicode="&#xa2;" horiz-adv-x="486" 
d="M216 91q-80 11 -128.5 74.5t-48.5 158.5t47 158t130 78v144q9 12 24.5 17.5t31.5 5.5v-164q64 -2 105 -36.5t41 -84.5q0 -39 -25 -63.5t-65 -24.5q-9 0 -12.5 2t-3.5 6q0 3 6.5 14t11 25.5t4.5 36.5q0 35 -23.5 57t-62.5 22q-51 0 -83 -53t-32 -138q0 -80 35.5 -129
t94.5 -49q63 0 118 46q3 3 9 3q8 0 14.5 -7.5t6.5 -16.5q0 -7 -2 -9q-55 -63 -137 -73v-144q-8 -12 -24 -17.5t-32 -5.5v167z" />
    <glyph glyph-name="sterling" unicode="&#xa3;" horiz-adv-x="539" 
d="M28 39q49 33 77 84t28 101q0 17 -4 49h-101q0 42 20 57h67q-2 9 -10 38t-12 52.5t-4 41.5q0 91 54 146t166 55q75 0 128.5 -32.5t53.5 -91.5q0 -41 -28.5 -69t-68.5 -28q-11 0 -15 2t-4 10q0 2 7.5 13.5t13.5 27.5t6 37q0 38 -28 59.5t-65 21.5q-54 0 -88.5 -34.5
t-34.5 -129.5q0 -41 18 -119h196q0 -17 -5 -32.5t-16 -24.5h-170q0 -49 -16.5 -98.5t-48.5 -92.5h359q0 -24 -7 -46.5t-23 -35.5h-422z" />
    <glyph glyph-name="currency" unicode="&#xa4;" horiz-adv-x="576" 
d="M50 92.5q-7 14.5 -7 28.5l89 90q-31 51 -31 116t31 116l-104 107q10 11 25 17.5t29 6.5l88 -89q49 36 116 36q69 0 119 -37l104 104q11 -10 18 -25t7 -29l-92 -93q31 -53 31 -114q0 -59 -31 -112l107 -108q-29 -25 -55 -25l-89 91q-45 -38 -119 -38q-68 0 -114 35
l-104 -103q-11 11 -18 25.5zM354.5 223q28.5 39 28.5 107t-24.5 105.5t-66.5 37.5q-46 0 -74 -39.5t-28 -108.5q0 -68 24.5 -104.5t65.5 -36.5q46 0 74.5 39z" />
    <glyph glyph-name="yen" unicode="&#xa5;" horiz-adv-x="566" 
d="M194 15l12 16q23 31 32.5 63.5t9.5 87.5v29h-188q0 43 21 57h166l-51 89h-136q0 43 21 57h83l-61 107q-27 46 -45 70t-45 45l10 14h206l10 -31l-20 -5q-22 -4 -31.5 -13.5t-9.5 -26.5q0 -7 9 -24t19 -32l99 -172l101 183q11 22 11 37q0 19 -11.5 31.5t-27.5 16.5l-20 5
l11 31h172l12 -14l-14 -17q-38 -47 -63 -96l-63 -109h111q0 -41 -21 -57h-122l-46 -83v-6h189q0 -41 -21 -57h-168v-91q0 -41 12.5 -58t47.5 -26l19 -5l-10 -31h-198z" />
    <glyph glyph-name="brokenbar" unicode="&#xa6;" horiz-adv-x="317" 
d="M114 410v264h91v-264h-91zM114 -75v265h91v-265h-91z" />
    <glyph glyph-name="section" unicode="&#xa7;" horiz-adv-x="397" 
d="M144 322q-39 47 -59.5 92t-20.5 83q0 68 40.5 116.5t126.5 48.5q60 0 98 -27.5t38 -71.5q0 -39 -25.5 -64.5t-64.5 -25.5q-16 0 -16 10q0 3 6 13t10.5 24.5t4.5 37.5q0 28 -19.5 45.5t-48.5 17.5q-38 0 -63 -23.5t-25 -64.5q0 -33 18.5 -69t65.5 -93q80 -94 80 -170
q0 -15 -8 -45zM69 -203q-38 28 -38 72q0 39 25 63.5t63 24.5q18 0 18 -9q0 -3 -6.5 -13.5t-11 -25t-4.5 -36.5q0 -29 19.5 -46.5t49.5 -17.5q38 0 63 23.5t25 65.5q0 33 -18.5 69.5t-65.5 91.5q-80 98 -80 170q0 25 7 46l140 -168q38 -45 58.5 -90t20.5 -84
q0 -67 -41 -115.5t-127 -48.5q-59 0 -97 28z" />
    <glyph glyph-name="dieresis" unicode="&#xa8;" horiz-adv-x="381" 
d="M68.5 558q-19.5 21 -19.5 38t19.5 38t35.5 21q17 0 37.5 -21t20.5 -38t-20.5 -38t-37.5 -21q-16 0 -35.5 21zM240.5 558q-19.5 21 -19.5 38t19 38t35 21q17 0 38 -21t21 -38t-21 -38t-38 -21q-15 0 -34.5 21z" />
    <glyph glyph-name="copyright" unicode="&#xa9;" horiz-adv-x="704" 
d="M222 224.5q-60 35.5 -95.5 96t-35.5 130.5q0 71 35.5 131t95.5 95.5t131 35.5t131 -35.5t95 -95.5t35 -131q0 -70 -35 -130.5t-95 -96t-131 -35.5t-131 35.5zM471.5 245q54.5 32 86.5 87t32 119q0 65 -32 119.5t-86.5 86.5t-118.5 32q-65 0 -119.5 -32t-87 -86.5
t-32.5 -119.5q0 -64 32.5 -119t87.5 -87t119 -32t118.5 32zM236.5 322.5q-41.5 51.5 -41.5 131.5q0 79 41.5 131t119.5 52q46 0 81 -22l7 16h24v-98q-7 -12 -31 -12l-12 46q-29 37 -69 37q-51 0 -74 -44.5t-23 -105.5q0 -62 27 -103t73 -41q31 0 54.5 12.5t38.5 35.5l24 -19
q-23 -34 -52 -51t-68 -17q-78 0 -119.5 51.5z" />
    <glyph glyph-name="ordfeminine" unicode="&#xaa;" horiz-adv-x="360" 
d="M65.5 349.5q-25.5 23.5 -25.5 59.5q0 47 36 73.5t97 26.5q30 0 49 -4v53q0 66 -44 66q-49 0 -49 -68q-15 -15 -36 -15q-15 0 -25 10t-10 25q0 35 35.5 60.5t84.5 25.5q58 0 85 -28t27 -88v-150q0 -15 13 -15q10 0 32 13l17 -24q-46 -44 -78 -44q-24 0 -36 12t-15 37
q-15 -23 -40 -36t-54 -13q-38 0 -63.5 23.5zM202.5 402.5q18.5 26.5 19.5 67.5q-7 3 -36 3q-35 0 -53.5 -14.5t-18.5 -40.5q0 -19 11 -30.5t31 -11.5q28 0 46.5 26.5z" />
    <glyph glyph-name="guillemotleft" unicode="&#xab;" horiz-adv-x="458" 
d="M65.5 201q-19.5 36 -19.5 53q0 14 20 51.5t80 134.5q23 -2 41 -10t37 -31q-12 -23 -39.5 -54t-84.5 -91q53 -58 82.5 -91.5t41.5 -56.5q-19 -23 -37 -31t-41 -11q-61 101 -80.5 137zM312 104q-47 76 -62.5 105.5t-15.5 44.5q0 14 19 47.5t83 138.5q22 -2 40.5 -10
t35.5 -31q-20 -39 -122 -145q101 -107 122 -148q-17 -23 -35 -31t-41 -11q-15 24 -24 40z" />
    <glyph glyph-name="logicalnot" unicode="&#xac;" horiz-adv-x="563" 
d="M411 151v139h-322v67h384v-206h-62z" />
    <glyph glyph-name="uni00AD" unicode="&#xad;" horiz-adv-x="600" 
d="M35.5 264.5q5.5 17.5 17.5 27.5l239 10q0 -19 -6 -36.5t-18 -28.5l-238 -8q0 18 5.5 35.5z" />
    <glyph glyph-name="registered" unicode="&#xae;" horiz-adv-x="704" 
d="M222 224.5q-60 35.5 -95.5 96t-35.5 130.5q0 71 35.5 131t95.5 95.5t131 35.5t131 -35.5t95 -95.5t35 -131q0 -70 -35 -130.5t-95 -96t-131 -35.5t-131 35.5zM471.5 245q54.5 32 86.5 87t32 119q0 65 -32 119.5t-86.5 86.5t-118.5 32q-65 0 -119.5 -32t-87 -86.5
t-32.5 -119.5q0 -64 32.5 -119t87.5 -87t119 -32t118.5 32zM221 298l20 12q5 3 7 5.5t2 8.5v266l-29 12q0 21 12 29h101q72 0 104.5 -26.5t32.5 -70.5q0 -30 -17 -56.5t-49 -39.5q3 -4 9.5 -10.5t9.5 -11.5l55 -103l27 -9q0 -20 -12 -28h-78l-9 9l4 7q1 3 3 8t2 9
q0 2 -2.5 6.5t-4.5 8.5l-42 81q-5 11 -11.5 15.5t-19.5 4.5h-27v-110l30 -8q0 -21 -14 -31h-104v22zM337 457q37 0 54 21t17 53q0 29 -17.5 46.5t-56.5 17.5q-11 0 -18 -3t-7 -12v-123h28z" />
    <glyph glyph-name="macron" unicode="&#xaf;" horiz-adv-x="368" 
d="M57 600q6 21 18 31h243q0 -21 -5.5 -41.5t-17.5 -30.5h-244q0 20 6 41z" />
    <glyph glyph-name="degree" unicode="&#xb0;" horiz-adv-x="394" 
d="M79.5 372q-43.5 46 -43.5 122q0 77 43.5 122.5t116.5 45.5q75 0 118 -45.5t43 -122.5q0 -76 -43.5 -122t-117.5 -46q-73 0 -116.5 46zM254.5 403.5q24.5 34.5 24.5 93.5t-20.5 90.5t-57.5 31.5q-40 0 -64 -34t-24 -94q0 -58 21 -90t58 -32q38 0 62.5 34.5z" />
    <glyph glyph-name="plusminus" unicode="&#xb1;" horiz-adv-x="563" 
d="M247 132v158h-158v67h158v160h67v-160h159v-67h-159v-158h-67zM89 0v67h384v-67h-384z" />
    <glyph glyph-name="uni00B2" unicode="&#xb2;" horiz-adv-x="351" 
d="M25 295q85 70 129 116t59.5 79t15.5 68q0 30 -17 46t-42 16t-43 -16t-18 -44q0 -12 8.5 -28.5t8.5 -20.5q0 -10 -22 -10q-28 0 -47 17.5t-19 44.5q0 48 39.5 74t94.5 26q65 0 102 -28t37 -78q0 -51 -48 -108t-134 -127h192q0 -18 -5.5 -34.5t-17.5 -26.5h-256z" />
    <glyph glyph-name="uni00B3" unicode="&#xb3;" horiz-adv-x="351" 
d="M74 279q-39 24 -39 68q0 27 19 44.5t48 17.5q14 0 18 -2t4 -11q-1 -1 -3 -3.5t-3 -5.5q-1 -1 -6 -10.5t-5 -24.5q0 -24 18 -38t43 -14q28 0 47 18t19 51q0 29 -16 51.5t-62 22.5q-9 0 -37 -4q-1 -1 -7 -1q-17 0 -17 15q0 11 5.5 16t30.5 9q56 10 75 33t19 52
q0 27 -17.5 42.5t-40.5 15.5q-20 0 -34.5 -13t-14.5 -36q0 -16 10 -36l5 -10q0 -6 -5 -8.5t-15 -2.5q-29 0 -48 16.5t-19 43.5q0 43 35 65.5t87 22.5q54 0 94.5 -26t40.5 -73q0 -31 -18.5 -55t-51.5 -38q39 -14 59.5 -42.5t20.5 -63.5q0 -53 -38.5 -81.5t-106.5 -28.5
q-55 0 -94 24z" />
    <glyph glyph-name="acute" unicode="&#xb4;" horiz-adv-x="261" 
d="M58 547l139 141q39 -18 39 -57q0 -40 -50 -65l-103 -49z" />
    <glyph glyph-name="uni00B5" unicode="&#xb5;" horiz-adv-x="557" 
d="M75 -178l-12 12l12 18q7 9 9.5 18.5t2.5 26.5v448q0 13 -4.5 20t-15.5 10l-47 11v28q15 13 56.5 25t69.5 12q12 0 17 -10t5 -32v-250q0 -111 92 -111q53 0 87 42t34 108v172q0 12 -2 21t-10 20l-12 17l12 11l93 12v-451l-10 -13q-36 0 -53.5 21.5t-17.5 66.5
q-20 -39 -57 -63.5t-77 -24.5q-48 0 -79 31v-207z" />
    <glyph glyph-name="paragraph" unicode="&#xb6;" horiz-adv-x="559" 
d="M180 -155q-37 28 -37 73q0 39 24.5 63.5t62.5 24.5q18 0 18 -9q0 -3 -10.5 -21.5t-10.5 -53.5q0 -29 19.5 -47t49.5 -18q38 0 63.5 24.5t25.5 65.5q0 33 -19 69.5t-66 90.5l-144 168q-48 57 -71.5 112t-23.5 103q0 51 24.5 90.5t68 61t99.5 21.5q50 0 130 -14
q51 -8 73 -10l12 -11l-13 -16q-12 -20 -12 -36v-594q0 -68 -40 -116.5t-126 -48.5q-60 0 -97 28zM360 450q0 76 -33.5 119.5t-100.5 43.5q-38 0 -66.5 -26.5t-28.5 -71.5q0 -39 21.5 -87.5t69.5 -103.5l138 -161v287z" />
    <glyph glyph-name="periodcentered" unicode="&#xb7;" horiz-adv-x="173" 
d="M49.5 253q-19.5 21 -19.5 38q0 19 19 40t36 21q16 0 37 -21.5t21 -39.5q0 -16 -21 -37.5t-37 -21.5t-35.5 21z" />
    <glyph glyph-name="cedilla" unicode="&#xb8;" horiz-adv-x="316" 
d="M79 -248.5q-29 18.5 -29 51.5q0 23 17 37.5t40 14.5q17 0 17 -8q0 -3 -7 -13.5t-7 -26.5t11 -26t26 -10q27 0 42.5 20.5t15.5 47.5q0 28 -15.5 47.5t-45.5 19.5q-24 0 -49 -14l-18 15l92 121h37l-71 -91q17 3 34 3q43 0 72.5 -26.5t29.5 -75.5q0 -44 -35 -74.5t-88 -30.5
q-40 0 -69 18.5z" />
    <glyph glyph-name="uni00B9" unicode="&#xb9;" horiz-adv-x="289" 
d="M59 295l30 9q17 4 22.5 11t5.5 29v237l-54 -34q-16 4 -29.5 17t-20.5 29l159 73q17 -4 33 -29l-17 -9v-247q0 -34 4.5 -53t18.5 -33l11 -14l-12 -14h-141z" />
    <glyph glyph-name="ordmasculine" unicode="&#xba;" horiz-adv-x="394" 
d="M79.5 372q-43.5 46 -43.5 122q0 77 43.5 122.5t116.5 45.5q75 0 118 -45.5t43 -122.5q0 -76 -43.5 -122t-117.5 -46q-73 0 -116.5 46zM258 401.5q21 32.5 21 87.5q0 59 -24.5 95.5t-63.5 36.5q-35 0 -56.5 -34.5t-21.5 -92.5q0 -57 24.5 -91t63.5 -34q36 0 57 32.5z" />
    <glyph glyph-name="guillemotright" unicode="&#xbb;" horiz-adv-x="458" 
d="M82.5 75q-18.5 8 -36.5 31q11 23 42 59t81 89q-52 54 -82 88t-41 57q18 23 36.5 31t41.5 10q62 -102 81 -137t19 -49q0 -16 -16.5 -47t-65.5 -112q-4 -8 -9 -16t-9 -15q-23 3 -41.5 11zM271.5 75q-18.5 8 -37.5 31q12 23 41.5 56.5t82.5 91.5q-57 60 -84.5 91t-39.5 54
q19 23 37.5 31t41.5 10q58 -95 78.5 -133t20.5 -53q0 -18 -20 -55t-79 -135q-23 3 -41.5 11z" />
    <glyph glyph-name="onequarter" unicode="&#xbc;" horiz-adv-x="922" 
d="M116 295l31 9q18 4 23.5 11t5.5 29v237l-55 -34q-16 3 -29.5 16.5t-21.5 29.5l159 73q18 -5 34 -29l-17 -9v-247q0 -33 5 -52t19 -34l9 -14l-11 -14h-140zM266 0l271 650h66l-274 -650h-63zM648 28l32 8q16 4 21 11.5t5 29.5v9h-191l129 309h44l17 -14l-113 -249h114v66
q0 19 -2 28t-11 21l12 13l74 8v-136h50q0 -31 -18 -46h-32q2 -21 7 -34t15 -24l10 -13l-11 -15h-140z" />
    <glyph glyph-name="onehalf" unicode="&#xbd;" horiz-adv-x="922" 
d="M116 295l31 9q18 4 23.5 11t5.5 29v237l-55 -34q-16 3 -29.5 16.5t-21.5 29.5l159 73q18 -5 34 -29l-17 -9v-247q0 -33 5 -52t19 -34l9 -14l-11 -14h-140zM248 0l272 650h65l-273 -650h-64zM525 34q85 70 129.5 116t60 79t15.5 68q0 30 -17 46t-42 16t-43 -16t-18 -44
q0 -12 8.5 -28t8.5 -21q0 -10 -22 -10q-28 0 -47 18t-19 45q0 47 39 73t94 26q65 0 102.5 -28t37.5 -78q0 -51 -48 -107.5t-134 -126.5h192q0 -42 -23 -62h-257z" />
    <glyph glyph-name="threequarters" unicode="&#xbe;" horiz-adv-x="922" 
d="M103 279q-39 24 -39 68q0 27 19.5 44.5t47.5 17.5q13 0 17 -2t4 -11q-2 0 -5 -9q-1 -3 -6 -12.5t-5 -22.5q0 -24 18 -38t43 -14q28 0 47.5 18t19.5 51q0 28 -17 51t-62 23q-9 0 -37 -4q-1 -1 -6 -1q-18 0 -18 15q0 11 5.5 16t30.5 9q56 10 75 33t19 52q0 28 -17 43
t-41 15q-20 0 -34.5 -13t-14.5 -36q0 -16 10 -36l5 -10q0 -6 -4.5 -8.5t-14.5 -2.5q-30 0 -49 16.5t-19 43.5q0 43 35.5 65.5t86.5 22.5q54 0 94 -26t40 -73q0 -32 -18 -55.5t-50 -37.5q38 -14 59 -42.5t21 -63.5q0 -53 -39 -81.5t-107 -28.5q-55 0 -94 24zM294 0l271 650
h66l-274 -650h-63zM648 28l32 8q16 4 21 11.5t5 29.5v9h-191l129 309h44l17 -14l-113 -249h114v66q0 19 -2 28t-11 21l12 13l74 8v-136h50q0 -31 -18 -46h-32q2 -21 7 -34t15 -24l10 -13l-11 -15h-140z" />
    <glyph glyph-name="questiondown" unicode="&#xbf;" horiz-adv-x="486" 
d="M239 365q-20 21 -20 39q0 17 20 37.5t37 20.5q16 0 35.5 -20.5t19.5 -37.5q0 -19 -19 -39.5t-36 -20.5t-37 21zM153.5 -219q-43.5 19 -69.5 55t-26 85q0 97 127 219q36 33 52 52.5t24 44.5l4 18h17l57 -58q-75 -64 -114 -113.5t-51.5 -85.5t-12.5 -72q0 -55 30 -83.5
t80 -28.5q39 0 62 21t23 57t-10 54t-10 21q0 11 17 11q38 0 63 -25.5t25 -64.5q0 -56 -53.5 -91t-137.5 -35q-53 0 -96.5 19z" />
    <glyph glyph-name="Agrave" unicode="&#xc0;" horiz-adv-x="639" 
d="M280 767q-51 23 -51 64q0 40 39 59l141 -143l-25 -30zM-15 31l21 5q37 11 53 26.5t30 57.5l142 410q10 32 10 44q0 17 -9.5 26.5t-30.5 13.5l-21 5l11 31h174l183 -524q15 -43 31.5 -64t50.5 -47l-12 -15h-205l-10 31l22 5q21 5 30.5 14.5t9.5 26.5q0 10 -4.5 23.5
l-6.5 19.5l-43 127h-209l-22 -66q-20 -62 -20 -95t13 -55l7 -16l-17 -15h-166zM222 304h171l-87 254z" />
    <glyph glyph-name="Aacute" unicode="&#xc1;" horiz-adv-x="639" 
d="M230 747l141 143q38 -19 38 -59q0 -41 -50 -64l-102 -50zM-15 31l21 5q37 11 53 26.5t30 57.5l142 410q10 32 10 44q0 17 -9.5 26.5t-30.5 13.5l-21 5l11 31h174l183 -524q15 -43 31.5 -64t50.5 -47l-12 -15h-205l-10 31l22 5q21 5 30.5 14.5t9.5 26.5q0 10 -4.5 23.5
l-6.5 19.5l-43 127h-209l-22 -66q-20 -62 -20 -95t13 -55l7 -16l-17 -15h-166zM222 304h171l-87 254z" />
    <glyph glyph-name="Acircumflex" unicode="&#xc2;" horiz-adv-x="639" 
d="M195 741q28 50 61 91t52 52h23q17 -10 50.5 -51t61.5 -92l-29 -24l-95 74l-93 -74zM-15 31l21 5q37 11 53 26.5t30 57.5l142 410q10 32 10 44q0 17 -9.5 26.5t-30.5 13.5l-21 5l11 31h174l183 -524q15 -43 31.5 -64t50.5 -47l-12 -15h-205l-10 31l22 5q21 5 30.5 14.5
t9.5 26.5q0 10 -4.5 23.5l-6.5 19.5l-43 127h-209l-22 -66q-20 -62 -20 -95t13 -55l7 -16l-17 -15h-166zM222 304h171l-87 254z" />
    <glyph glyph-name="Atilde" unicode="&#xc3;" horiz-adv-x="639" 
d="M172 765q30 40 60.5 63.5t55.5 23.5q13 0 22.5 -4t26.5 -14q11 -8 19 -11.5t17 -3.5q23 0 63 37l30 -29q-28 -40 -59 -64t-56 -24q-15 0 -25 4.5t-27 13.5q-8 5 -17 9.5t-18 4.5q-27 0 -60 -36zM-15 31l21 5q37 11 53 26.5t30 57.5l142 410q10 32 10 44q0 17 -9.5 26.5
t-30.5 13.5l-21 5l11 31h174l183 -524q15 -43 31.5 -64t50.5 -47l-12 -15h-205l-10 31l22 5q21 5 30.5 14.5t9.5 26.5q0 10 -4.5 23.5l-6.5 19.5l-43 127h-209l-22 -66q-20 -62 -20 -95t13 -55l7 -16l-17 -15h-166zM222 304h171l-87 254z" />
    <glyph glyph-name="Adieresis" unicode="&#xc4;" horiz-adv-x="639" 
d="M197.5 758q-19.5 21 -19.5 38t19 38.5t35 21.5q17 0 38 -21.5t21 -38.5t-21 -38t-38 -21q-15 0 -34.5 21zM369 758q-20 21 -20 38t19.5 38.5t35.5 21.5q17 0 37.5 -21.5t20.5 -38.5t-20.5 -38t-37.5 -21q-15 0 -35 21zM-15 31l21 5q37 11 53 26.5t30 57.5l142 410
q10 32 10 44q0 17 -9.5 26.5t-30.5 13.5l-21 5l11 31h174l183 -524q15 -43 31.5 -64t50.5 -47l-12 -15h-205l-10 31l22 5q21 5 30.5 14.5t9.5 26.5q0 10 -4.5 23.5l-6.5 19.5l-43 127h-209l-22 -66q-20 -62 -20 -95t13 -55l7 -16l-17 -15h-166zM222 304h171l-87 254z" />
    <glyph glyph-name="Aring" unicode="&#xc5;" horiz-adv-x="639" 
d="M243 727q-27 27 -27 69q0 43 27 70.5t75 27.5q51 0 78 -27.5t27 -70.5q0 -42 -27 -69t-78 -27q-48 0 -75 27zM347 758.5q10 14.5 10 37.5q0 24 -10 39t-29 15q-17 0 -28 -15.5t-11 -38.5q0 -21 11 -36.5t28 -15.5q19 0 29 14.5zM-15 31l21 5q37 11 53 26.5t30 57.5
l142 410q10 32 10 44q0 17 -9.5 26.5t-30.5 13.5l-21 5l11 31h174l183 -524q15 -43 31.5 -64t50.5 -47l-12 -15h-205l-10 31l22 5q21 5 30.5 14.5t9.5 26.5q0 10 -4.5 23.5l-6.5 19.5l-43 127h-209l-22 -66q-20 -62 -20 -95t13 -55l7 -16l-17 -15h-166zM222 304h171l-87 254
z" />
    <glyph glyph-name="AE" unicode="&#xc6;" horiz-adv-x="873" 
d="M791 -13q-8 13 -38 13h-382l-10 29l20 5q34 10 45 25.5t11 54.5v163h-180l-76 -137q-12 -23 -15.5 -37.5t-3.5 -31.5q0 -12 5.5 -24.5t6.5 -15.5l8 -16l-17 -15h-167l-11 31l22 5q24 6 40.5 16.5t29.5 32.5l315 565h278q80 0 103 19l17 12l15 -12v-161l-32 -11l-5 22
q-9 33 -19.5 50t-28.5 24t-51 7h-88q-35 0 -46.5 -14t-11.5 -56v-202h115q22 0 39 9.5t33 32.5l7 11l18 -11v-154l-31 -11l-5 21q-8 31 -28 41t-70 10h-78v-157q0 -29 4.5 -43.5t16.5 -19.5t37 -5h98q33 0 51 6.5t28.5 23.5t19.5 50l5 20l30 -9v-156l-17 -9zM285 328h152
v275z" />
    <glyph glyph-name="Ccedilla" unicode="&#xc7;" horiz-adv-x="559" 
d="M200 -248.5q-30 18.5 -30 51.5q0 23 17 37.5t41 14.5q16 0 16 -8q0 -3 -7 -13.5t-7 -26.5t11.5 -26t26.5 -10q26 0 41.5 20.5t15.5 47.5q0 28 -15.5 47.5t-45.5 19.5q-24 0 -49 -14l-18 15l65 86q-113 20 -171.5 110.5t-58.5 220.5q0 97 32.5 173.5t98 121t161.5 44.5
q59 0 105 -17t72 -47t26 -69q0 -46 -27 -75.5t-68 -29.5q-21 0 -21 11q0 2 8 14.5t14 29t6 38.5q0 42 -31.5 68.5t-83.5 26.5q-67 0 -109.5 -42t-61.5 -107.5t-19 -139.5q0 -75 24 -138t68.5 -99.5t102.5 -36.5t101.5 21.5t69.5 59.5q3 4 6 4q9 0 19 -8.5t10 -17.5
q0 -3 -2 -7q-80 -115 -212 -115l-26 1l-39 -51q18 3 34 3q43 0 72.5 -26.5t29.5 -75.5q0 -44 -35 -74.5t-87 -30.5q-40 0 -70 18.5z" />
    <glyph glyph-name="Egrave" unicode="&#xc8;" horiz-adv-x="551" 
d="M241 767q-51 23 -51 64q0 40 39 59l141 -143l-26 -30zM471 -13q-7 7 -15.5 10t-22.5 3h-382l-11 29l20 5q33 10 44 25.5t11 54.5v355q0 54 -9 87t-31 63l-12 17l12 14h277q79 0 102 19l18 12l13 -12v-161l-31 -11l-5 22q-12 49 -31 65t-66 16h-89q-35 0 -46.5 -14
t-11.5 -56v-174h115q23 0 39 9t33 32l7 10l18 -10v-155l-30 -11l-6 23q-10 31 -30 41t-70 10h-76v-185q0 -29 4.5 -43.5t16.5 -19.5t37 -5h97q33 0 51 6.5t28.5 23.5t19.5 50l6 20l30 -9v-156l-17 -9z" />
    <glyph glyph-name="Eacute" unicode="&#xc9;" horiz-adv-x="551" 
d="M218 747l140 143q38 -19 38 -59q0 -41 -49 -64l-103 -50zM471 -13q-7 7 -15.5 10t-22.5 3h-382l-11 29l20 5q33 10 44 25.5t11 54.5v355q0 54 -9 87t-31 63l-12 17l12 14h277q79 0 102 19l18 12l13 -12v-161l-31 -11l-5 22q-12 49 -31 65t-66 16h-89q-35 0 -46.5 -14
t-11.5 -56v-174h115q23 0 39 9t33 32l7 10l18 -10v-155l-30 -11l-6 23q-10 31 -30 41t-70 10h-76v-185q0 -29 4.5 -43.5t16.5 -19.5t37 -5h97q33 0 51 6.5t28.5 23.5t19.5 50l6 20l30 -9v-156l-17 -9z" />
    <glyph glyph-name="Ecircumflex" unicode="&#xca;" horiz-adv-x="551" 
d="M165 741q28 50 60.5 91t51.5 52h25q17 -10 50 -51.5t61 -91.5l-28 -24l-96 74l-94 -74zM471 -13q-7 7 -15.5 10t-22.5 3h-382l-11 29l20 5q33 10 44 25.5t11 54.5v355q0 54 -9 87t-31 63l-12 17l12 14h277q79 0 102 19l18 12l13 -12v-161l-31 -11l-5 22q-12 49 -31 65
t-66 16h-89q-35 0 -46.5 -14t-11.5 -56v-174h115q23 0 39 9t33 32l7 10l18 -10v-155l-30 -11l-6 23q-10 31 -30 41t-70 10h-76v-185q0 -29 4.5 -43.5t16.5 -19.5t37 -5h97q33 0 51 6.5t28.5 23.5t19.5 50l6 20l30 -9v-156l-17 -9z" />
    <glyph glyph-name="Edieresis" unicode="&#xcb;" horiz-adv-x="551" 
d="M166 758q-20 21 -20 38t19.5 38.5t35.5 21.5q17 0 38 -21.5t21 -38.5t-21 -38t-38 -21q-15 0 -35 21zM338 758q-20 21 -20 38t19.5 38.5t35.5 21.5q17 0 38 -21.5t21 -38.5t-21 -38t-38 -21q-15 0 -35 21zM471 -13q-7 7 -15.5 10t-22.5 3h-382l-11 29l20 5q33 10 44 25.5
t11 54.5v355q0 54 -9 87t-31 63l-12 17l12 14h277q79 0 102 19l18 12l13 -12v-161l-31 -11l-5 22q-12 49 -31 65t-66 16h-89q-35 0 -46.5 -14t-11.5 -56v-174h115q23 0 39 9t33 32l7 10l18 -10v-155l-30 -11l-6 23q-10 31 -30 41t-70 10h-76v-185q0 -29 4.5 -43.5
t16.5 -19.5t37 -5h97q33 0 51 6.5t28.5 23.5t19.5 50l6 20l30 -9v-156l-17 -9z" />
    <glyph glyph-name="Igrave" unicode="&#xcc;" horiz-adv-x="319" 
d="M120 767q-51 23 -51 64q0 39 39 59l141 -143l-25 -30zM36 31l22 5q35 11 46 26.5t11 57.5v410q0 42 -11.5 58.5t-45.5 25.5l-22 5l11 31h199l12 -14l-12 -17q-23 -29 -32 -62.5t-9 -87.5v-355q0 -39 11 -54.5t44 -25.5l18 -5l-8 -29h-223z" />
    <glyph glyph-name="Iacute" unicode="&#xcd;" horiz-adv-x="319" 
d="M78 747l140 143q39 -20 39 -59q0 -40 -50 -64l-103 -50zM36 31l22 5q35 11 46 26.5t11 57.5v410q0 42 -11.5 58.5t-45.5 25.5l-22 5l11 31h199l12 -14l-12 -17q-23 -29 -32 -62.5t-9 -87.5v-355q0 -39 11 -54.5t44 -25.5l18 -5l-8 -29h-223z" />
    <glyph glyph-name="Icircumflex" unicode="&#xce;" horiz-adv-x="319" 
d="M36 741q28 50 60.5 91t51.5 52h25q17 -10 50.5 -51.5t61.5 -91.5l-29 -24l-96 74l-94 -74zM36 31l22 5q35 11 46 26.5t11 57.5v410q0 42 -11.5 58.5t-45.5 25.5l-22 5l11 31h199l12 -14l-12 -17q-23 -29 -32 -62.5t-9 -87.5v-355q0 -39 11 -54.5t44 -25.5l18 -5l-8 -29
h-223z" />
    <glyph glyph-name="Idieresis" unicode="&#xcf;" horiz-adv-x="319" 
d="M37.5 758q-19.5 21 -19.5 38t19 38.5t35 21.5q17 0 38 -21.5t21 -38.5t-21 -38t-38 -21q-15 0 -34.5 21zM209 758q-20 21 -20 38t19.5 38.5t35.5 21.5q17 0 38 -21.5t21 -38.5t-21 -38t-38 -21q-15 0 -35 21zM36 31l22 5q35 11 46 26.5t11 57.5v410q0 42 -11.5 58.5
t-45.5 25.5l-22 5l11 31h199l12 -14l-12 -17q-23 -29 -32 -62.5t-9 -87.5v-355q0 -39 11 -54.5t44 -25.5l18 -5l-8 -29h-223z" />
    <glyph glyph-name="Eth" unicode="&#xd0;" horiz-adv-x="663" 
d="M36 31l22 5q28 9 42.5 24.5t14.5 49.5v192h-105q0 17 4.5 32.5t15.5 22.5h85v211q0 12 -5 16.5t-15 4.5h-52l-11 34q43 15 112 27.5t133 12.5q189 0 272 -94t83 -245q0 -92 -34 -165.5t-101.5 -116t-165.5 -42.5h-284zM534 326q0 77 -26.5 142t-80.5 105t-133 40
q-89 0 -89 -43v-213h176q0 -16 -5 -31.5t-16 -23.5h-155v-143q0 -65 27 -89t71 -24q231 0 231 280z" />
    <glyph glyph-name="Ntilde" unicode="&#xd1;" horiz-adv-x="705" 
d="M213 765q30 40 60.5 63.5t55.5 23.5q13 0 22.5 -4t26.5 -14q11 -8 19 -11.5t17 -3.5q23 0 63 37l30 -29q-28 -40 -59 -64t-56 -24q-15 0 -25.5 4.5t-25.5 13.5q-2 1 -13 7.5t-22 6.5q-28 0 -61 -36zM31 31l21 5q35 11 46 26.5t11 57.5v410q0 42 -11.5 58.5t-45.5 25.5
l-21 5l11 31h146l346 -513v393q0 41 -12 58t-46 26l-22 5l13 31h170l13 -14l-13 -17q-22 -29 -31 -62.5t-9 -87.5v-389q0 -28 13 -49l11 -16l-11 -15h-91l-345 513v-331q0 -56 8.5 -89t31.5 -62l12 -16l-12 -15h-172z" />
    <glyph glyph-name="Ograve" unicode="&#xd2;" horiz-adv-x="663" 
d="M292 767q-51 23 -51 64q0 39 38 59l142 -143l-26 -30zM166 31.5q-67 44.5 -100.5 120.5t-33.5 172t33.5 173t100.5 121.5t165 44.5t165.5 -44.5t101.5 -121.5t34 -173t-34 -172t-101.5 -120.5t-165.5 -44.5t-165 44.5zM437.5 77.5q46.5 37.5 71.5 101.5t25 142
q0 66 -19 132.5t-63 112.5t-115 46q-64 0 -111 -39.5t-71.5 -107t-24.5 -149.5q0 -120 51.5 -198t145.5 -78q64 0 110.5 37.5z" />
    <glyph glyph-name="Oacute" unicode="&#xd3;" horiz-adv-x="663" 
d="M242 747l141 143q38 -20 38 -59q0 -40 -50 -64l-103 -50zM166 31.5q-67 44.5 -100.5 120.5t-33.5 172t33.5 173t100.5 121.5t165 44.5t165.5 -44.5t101.5 -121.5t34 -173t-34 -172t-101.5 -120.5t-165.5 -44.5t-165 44.5zM437.5 77.5q46.5 37.5 71.5 101.5t25 142
q0 66 -19 132.5t-63 112.5t-115 46q-64 0 -111 -39.5t-71.5 -107t-24.5 -149.5q0 -120 51.5 -198t145.5 -78q64 0 110.5 37.5z" />
    <glyph glyph-name="Ocircumflex" unicode="&#xd4;" horiz-adv-x="663" 
d="M208 741q28 50 60.5 91t51.5 52h24q17 -10 50.5 -51.5t61.5 -91.5l-29 -24l-96 74l-93 -74zM166 31.5q-67 44.5 -100.5 120.5t-33.5 172t33.5 173t100.5 121.5t165 44.5t165.5 -44.5t101.5 -121.5t34 -173t-34 -172t-101.5 -120.5t-165.5 -44.5t-165 44.5zM437.5 77.5
q46.5 37.5 71.5 101.5t25 142q0 66 -19 132.5t-63 112.5t-115 46q-64 0 -111 -39.5t-71.5 -107t-24.5 -149.5q0 -120 51.5 -198t145.5 -78q64 0 110.5 37.5z" />
    <glyph glyph-name="Otilde" unicode="&#xd5;" horiz-adv-x="663" 
d="M185 765q30 40 61 63.5t56 23.5q22 0 48 -18q11 -8 19.5 -11.5t17.5 -3.5q24 0 62 37l30 -29q-29 -40 -60 -64t-56 -24q-15 0 -26 4.5t-25 13.5q-8 5 -17 9.5t-18 4.5q-12 0 -28 -9t-32 -27zM166 31.5q-67 44.5 -100.5 120.5t-33.5 172t33.5 173t100.5 121.5t165 44.5
t165.5 -44.5t101.5 -121.5t34 -173t-34 -172t-101.5 -120.5t-165.5 -44.5t-165 44.5zM437.5 77.5q46.5 37.5 71.5 101.5t25 142q0 66 -19 132.5t-63 112.5t-115 46q-64 0 -111 -39.5t-71.5 -107t-24.5 -149.5q0 -120 51.5 -198t145.5 -78q64 0 110.5 37.5z" />
    <glyph glyph-name="Odieresis" unicode="&#xd6;" horiz-adv-x="663" 
d="M210 758q-20 21 -20 38t19.5 38.5t35.5 21.5q17 0 38 -21.5t21 -38.5t-21 -38t-38 -21q-15 0 -35 21zM381 758q-20 21 -20 38t20 38.5t36 21.5q17 0 37.5 -21.5t20.5 -38.5t-20.5 -38t-37.5 -21q-16 0 -36 21zM166 31.5q-67 44.5 -100.5 120.5t-33.5 172t33.5 173
t100.5 121.5t165 44.5t165.5 -44.5t101.5 -121.5t34 -173t-34 -172t-101.5 -120.5t-165.5 -44.5t-165 44.5zM437.5 77.5q46.5 37.5 71.5 101.5t25 142q0 66 -19 132.5t-63 112.5t-115 46q-64 0 -111 -39.5t-71.5 -107t-24.5 -149.5q0 -120 51.5 -198t145.5 -78
q64 0 110.5 37.5z" />
    <glyph glyph-name="multiply" unicode="&#xd7;" horiz-adv-x="621" 
d="M149 144l-48 48l130 131l-130 131l48 49l131 -131l131 131l49 -49l-131 -131l131 -131l-49 -48l-131 130z" />
    <glyph glyph-name="Oslash" unicode="&#xd8;" horiz-adv-x="663" 
d="M190 18q-78 38 -118 119t-40 187q0 96 33.5 173t100.5 121.5t165 44.5q37 0 85 -11l20 56h65l-27 -77q78 -39 118 -120.5t40 -186.5q0 -96 -34 -172t-101.5 -120.5t-165.5 -44.5q-38 0 -84 11l-19 -56h-64zM396 602q-34 10 -59 10q-64 0 -111 -39.5t-71.5 -107
t-24.5 -149.5q0 -76 21 -137.5t62 -97.5zM437.5 77.5q46.5 37.5 71.5 101.5t25 142q0 68 -20 136.5t-63 109.5l-185 -516q28 -11 61 -11q64 0 110.5 37.5z" />
    <glyph glyph-name="Ugrave" unicode="&#xd9;" horiz-adv-x="669" 
d="M295 767q-51 23 -51 64q0 39 38 59l142 -143l-27 -30zM167 39.5q-66 52.5 -66 158.5v332q0 42 -11.5 58.5t-46.5 25.5l-22 5l12 31h197l12 -14l-12 -17q-22 -30 -31 -63t-9 -87v-271q0 -71 46 -112t115 -41q68 0 113 41t45 112v332q0 42 -11.5 58.5t-46.5 25.5l-21 5
l11 31h172l12 -14l-12 -17q-23 -29 -32 -62.5t-9 -87.5v-271q0 -106 -64.5 -158.5t-168.5 -52.5q-106 0 -172 52.5z" />
    <glyph glyph-name="Uacute" unicode="&#xda;" horiz-adv-x="669" 
d="M277 747l141 143q38 -20 38 -59q0 -40 -50 -64l-102 -50zM167 39.5q-66 52.5 -66 158.5v332q0 42 -11.5 58.5t-46.5 25.5l-22 5l12 31h197l12 -14l-12 -17q-22 -30 -31 -63t-9 -87v-271q0 -71 46 -112t115 -41q68 0 113 41t45 112v332q0 42 -11.5 58.5t-46.5 25.5l-21 5
l11 31h172l12 -14l-12 -17q-23 -29 -32 -62.5t-9 -87.5v-271q0 -106 -64.5 -158.5t-168.5 -52.5q-106 0 -172 52.5z" />
    <glyph glyph-name="Ucircumflex" unicode="&#xdb;" horiz-adv-x="669" 
d="M226 741q28 50 60.5 91t51.5 52h23q18 -10 51.5 -51.5t61.5 -91.5l-30 -24l-95 74l-93 -74zM167 39.5q-66 52.5 -66 158.5v332q0 42 -11.5 58.5t-46.5 25.5l-22 5l12 31h197l12 -14l-12 -17q-22 -30 -31 -63t-9 -87v-271q0 -71 46 -112t115 -41q68 0 113 41t45 112v332
q0 42 -11.5 58.5t-46.5 25.5l-21 5l11 31h172l12 -14l-12 -17q-23 -29 -32 -62.5t-9 -87.5v-271q0 -106 -64.5 -158.5t-168.5 -52.5q-106 0 -172 52.5z" />
    <glyph glyph-name="Udieresis" unicode="&#xdc;" horiz-adv-x="669" 
d="M224.5 758q-19.5 21 -19.5 38t19.5 38.5t35.5 21.5q17 0 37.5 -21.5t20.5 -38.5t-20.5 -38t-37.5 -21q-16 0 -35.5 21zM396 758q-20 21 -20 38t20 38.5t36 21.5t36.5 -21.5t20.5 -38.5t-20 -38t-37 -21q-16 0 -36 21zM167 39.5q-66 52.5 -66 158.5v332q0 42 -11.5 58.5
t-46.5 25.5l-22 5l12 31h197l12 -14l-12 -17q-22 -30 -31 -63t-9 -87v-271q0 -71 46 -112t115 -41q68 0 113 41t45 112v332q0 42 -11.5 58.5t-46.5 25.5l-21 5l11 31h172l12 -14l-12 -17q-23 -29 -32 -62.5t-9 -87.5v-271q0 -106 -64.5 -158.5t-168.5 -52.5
q-106 0 -172 52.5z" />
    <glyph glyph-name="Yacute" unicode="&#xdd;" horiz-adv-x="566" 
d="M237 747l140 143q39 -20 39 -59q0 -40 -51 -64l-102 -50zM186 15l11 16q23 30 33 63t10 88v85l-145 254q-26 45 -45 69.5t-46 45.5l12 14h205l9 -31l-19 -5q-22 -5 -32 -14.5t-10 -25.5q0 -11 28 -56l99 -172l101 183q11 22 11 37q0 19 -11 31.5t-27 16.5l-19 5l9 31h173
l11 -14l-13 -17q-38 -47 -63 -96l-142 -249v-154q0 -41 13 -58t48 -26l19 -5l-10 -31h-199z" />
    <glyph glyph-name="Thorn" unicode="&#xde;" horiz-adv-x="539" 
d="M36 31l22 5q35 11 46 26.5t11 57.5v410q0 42 -11.5 58.5t-45.5 25.5l-22 5l11 31h199l12 -14l-12 -17q-31 -41 -38 -93q47 18 101 18q61 0 109.5 -29t75.5 -78t27 -109q0 -58 -23.5 -105.5t-72 -76t-120.5 -28.5q-33 0 -56.5 8t-23.5 22q0 24 14 24q3 0 15 -3.5t29 -3.5
q68 0 106.5 43.5t38.5 117.5q0 76 -37.5 123.5t-107.5 47.5q-78 0 -78 -46v-337q0 -39 11 -54.5t44 -25.5l18 -5l-8 -29h-223z" />
    <glyph glyph-name="germandbls" unicode="&#xdf;" horiz-adv-x="575" 
d="M290 10q-9 6 -9 18q0 23 15 23q5 0 30.5 -9t68.5 -9q33 0 58.5 18t25.5 55q0 34 -23 60.5t-66 49.5l-69 34q-37 22 -53.5 46t-16.5 61q0 23 13.5 46t40.5 58q32 41 48 69.5t16 61.5q0 37 -21 53.5t-52 16.5q-59 0 -87.5 -46.5t-28.5 -124.5v-309q0 -56 9.5 -88.5
t32.5 -62.5l10 -16l-10 -15h-200l-10 31l21 5q35 11 46.5 26.5t11.5 57.5v357q0 73 28.5 125.5t79.5 79.5t117 27q60 0 98 -30.5t38 -86.5q0 -31 -16.5 -56t-49.5 -60q-28 -30 -41.5 -49.5t-13.5 -41.5q0 -23 11.5 -40t37.5 -31l63 -32q116 -58 116 -151q0 -38 -21 -71.5
t-59 -53t-85 -19.5q-60 0 -104 23z" />
    <glyph glyph-name="agrave" unicode="&#xe0;" horiz-adv-x="546" 
d="M234 566q-27 13 -38.5 29t-11.5 36q0 39 39 57l140 -141l-25 -30zM122.5 12.5q-37.5 25.5 -60 75t-22.5 120.5q0 117 63.5 185t171.5 68q36 0 98 -11q46 -8 83 -11l12 -11l-13 -17q-7 -12 -9.5 -18.5t-2.5 -17.5v-295q0 -28 29 -28q22 0 45 16l17 -23q-24 -27 -51 -42.5
t-49 -15.5q-38 0 -55 22.5t-17 73.5q-36 -53 -74.5 -74.5t-83.5 -21.5q-44 0 -81.5 25.5zM362 140v245q-39 26 -88 26q-65 0 -101.5 -48.5t-36.5 -137.5q0 -86 29.5 -126.5t73.5 -40.5q76 0 123 82z" />
    <glyph glyph-name="aacute" unicode="&#xe1;" horiz-adv-x="546" 
d="M184 547l140 141q38 -17 38 -57q0 -20 -11.5 -36t-37.5 -29l-103 -49zM122.5 12.5q-37.5 25.5 -60 75t-22.5 120.5q0 117 63.5 185t171.5 68q36 0 98 -11q46 -8 83 -11l12 -11l-13 -17q-7 -12 -9.5 -18.5t-2.5 -17.5v-295q0 -28 29 -28q22 0 45 16l17 -23
q-24 -27 -51 -42.5t-49 -15.5q-38 0 -55 22.5t-17 73.5q-36 -53 -74.5 -74.5t-83.5 -21.5q-44 0 -81.5 25.5zM362 140v245q-39 26 -88 26q-65 0 -101.5 -48.5t-36.5 -137.5q0 -86 29.5 -126.5t73.5 -40.5q76 0 123 82z" />
    <glyph glyph-name="acircumflex" unicode="&#xe2;" horiz-adv-x="546" 
d="M149 540q28 50 61 91.5t52 52.5h24q17 -10 49.5 -51.5t61.5 -92.5l-28 -23l-96 73l-93 -73zM122.5 12.5q-37.5 25.5 -60 75t-22.5 120.5q0 117 63.5 185t171.5 68q36 0 98 -11q46 -8 83 -11l12 -11l-13 -17q-7 -12 -9.5 -18.5t-2.5 -17.5v-295q0 -28 29 -28q22 0 45 16
l17 -23q-24 -27 -51 -42.5t-49 -15.5q-38 0 -55 22.5t-17 73.5q-36 -53 -74.5 -74.5t-83.5 -21.5q-44 0 -81.5 25.5zM362 140v245q-39 26 -88 26q-65 0 -101.5 -48.5t-36.5 -137.5q0 -86 29.5 -126.5t73.5 -40.5q76 0 123 82z" />
    <glyph glyph-name="atilde" unicode="&#xe3;" horiz-adv-x="546" 
d="M126 564q30 40 60.5 63.5t55.5 23.5q13 0 24 -4.5t25 -13.5q9 -5 18 -9.5t18 -4.5q24 0 63 36l30 -28q-28 -40 -59 -64t-56 -24q-15 0 -26.5 4.5t-25.5 13.5q-20 13 -35 13q-28 0 -60 -35zM122.5 12.5q-37.5 25.5 -60 75t-22.5 120.5q0 117 63.5 185t171.5 68
q36 0 98 -11q46 -8 83 -11l12 -11l-13 -17q-7 -12 -9.5 -18.5t-2.5 -17.5v-295q0 -28 29 -28q22 0 45 16l17 -23q-24 -27 -51 -42.5t-49 -15.5q-38 0 -55 22.5t-17 73.5q-36 -53 -74.5 -74.5t-83.5 -21.5q-44 0 -81.5 25.5zM362 140v245q-39 26 -88 26q-65 0 -101.5 -48.5
t-36.5 -137.5q0 -86 29.5 -126.5t73.5 -40.5q76 0 123 82z" />
    <glyph glyph-name="adieresis" unicode="&#xe4;" horiz-adv-x="546" 
d="M150.5 558q-19.5 21 -19.5 38t19.5 38t35.5 21q17 0 37.5 -21t20.5 -38t-20.5 -38t-37.5 -21q-16 0 -35.5 21zM322.5 558q-19.5 21 -19.5 38t19 38t35 21q17 0 38 -21t21 -38t-21 -38t-38 -21q-15 0 -34.5 21zM122.5 12.5q-37.5 25.5 -60 75t-22.5 120.5q0 117 63.5 185
t171.5 68q36 0 98 -11q46 -8 83 -11l12 -11l-13 -17q-7 -12 -9.5 -18.5t-2.5 -17.5v-295q0 -28 29 -28q22 0 45 16l17 -23q-24 -27 -51 -42.5t-49 -15.5q-38 0 -55 22.5t-17 73.5q-36 -53 -74.5 -74.5t-83.5 -21.5q-44 0 -81.5 25.5zM362 140v245q-39 26 -88 26
q-65 0 -101.5 -48.5t-36.5 -137.5q0 -86 29.5 -126.5t73.5 -40.5q76 0 123 82z" />
    <glyph glyph-name="aring" unicode="&#xe5;" horiz-adv-x="546" 
d="M197 527q-27 27 -27 69t27 69.5t75 27.5q51 0 78 -27t27 -70q0 -42 -27 -69t-78 -27q-48 0 -75 27zM301.5 558q10.5 15 10.5 38q0 24 -10.5 38.5t-29.5 14.5q-17 0 -28 -15t-11 -38q0 -22 11 -37.5t28 -15.5q19 0 29.5 15zM122.5 12.5q-37.5 25.5 -60 75t-22.5 120.5
q0 117 63.5 185t171.5 68q36 0 98 -11q46 -8 83 -11l12 -11l-13 -17q-7 -12 -9.5 -18.5t-2.5 -17.5v-295q0 -28 29 -28q22 0 45 16l17 -23q-24 -27 -51 -42.5t-49 -15.5q-38 0 -55 22.5t-17 73.5q-36 -53 -74.5 -74.5t-83.5 -21.5q-44 0 -81.5 25.5zM362 140v245
q-39 26 -88 26q-65 0 -101.5 -48.5t-36.5 -137.5q0 -86 29.5 -126.5t73.5 -40.5q76 0 123 82z" />
    <glyph glyph-name="ae" unicode="&#xe6;" horiz-adv-x="784" 
d="M110 5.5q-35 18.5 -52.5 49t-17.5 65.5q0 39 20.5 75.5t60 59t93.5 22.5q31 0 69.5 -11t38.5 -32q0 -7 -4 -13t-9 -6q-4 0 -21.5 6t-46.5 6q-54 0 -84 -32t-30 -76q0 -35 22.5 -59t63.5 -24q63 0 97.5 50t34.5 143q0 82 -34.5 127.5t-99.5 45.5q-47 0 -73.5 -10
t-42 -20.5t-18.5 -10.5q-8 0 -16 9t-8 18q0 10 24 27.5t64.5 31.5t87.5 14q54 0 96.5 -21t70.5 -60q30 39 77.5 60t106.5 21q74 0 114 -39t40 -94q0 -38 -20 -73t-59 -57t-93 -22q-30 0 -66 10.5t-36 31.5q0 8 5 14t10 6q3 0 18 -5.5t40 -5.5q55 0 85 30t30 72
q0 36 -22.5 62t-62.5 26q-59 0 -92 -51.5t-33 -146.5q0 -81 34.5 -126.5t99.5 -45.5q80 0 132 52q3 3 9 3q8 0 15.5 -8t7.5 -17q0 -6 -3 -9q-34 -40 -80 -60.5t-100 -20.5q-62 0 -109 28.5t-73 80.5q-23 -52 -69 -80.5t-108 -28.5q-49 0 -84 18.5z" />
    <glyph glyph-name="ccedilla" unicode="&#xe7;" horiz-adv-x="460" 
d="M140.5 -248.5q-29.5 18.5 -29.5 51.5q0 23 17 37.5t40 14.5q17 0 17 -8q0 -3 -6.5 -13.5t-6.5 -26.5t11 -26t26 -10q26 0 41.5 20.5t15.5 47.5q0 28 -15.5 47.5t-45.5 19.5q-22 0 -49 -14l-18 15l67 88q-75 18 -120 80t-45 149q0 72 27 125.5t77 82.5t116 29
q70 0 114.5 -33.5t44.5 -86.5q0 -39 -25 -63.5t-64 -24.5q-9 0 -13 2t-4 7q0 3 6.5 13t11.5 24.5t5 37.5q0 36 -23.5 56.5t-62.5 20.5q-52 0 -83.5 -50.5t-31.5 -133.5q0 -84 37.5 -133t101.5 -49q33 0 62 11t58 35q2 2 8 2q8 0 15.5 -8.5t7.5 -17.5q0 -7 -2 -7
q-32 -37 -74.5 -56.5t-88.5 -19.5l-24 1l-40 -51q18 3 34 3q43 0 72.5 -26.5t29.5 -75.5q0 -44 -35 -74.5t-87 -30.5q-40 0 -69.5 18.5z" />
    <glyph glyph-name="egrave" unicode="&#xe8;" horiz-adv-x="479" 
d="M200 566q-27 13 -39 29t-12 36q0 38 39 57l141 -141l-25 -30zM139 16q-47 29 -73 81.5t-26 121.5q0 72 29 127t82.5 85t123.5 30q74 0 114.5 -39t40.5 -94q0 -38 -20.5 -73t-60 -57t-92.5 -22q-30 0 -65 10.5t-35 31.5q0 8 4 14t9 6q3 0 18.5 -5.5t40.5 -5.5q55 0 85 30
t30 72q0 36 -23.5 62t-62.5 26q-59 0 -91.5 -51.5t-32.5 -146.5q0 -81 34.5 -126.5t99.5 -45.5q80 0 132 52q3 3 8 3q8 0 16.5 -8t8.5 -17q0 -3 -2 -5.5t-2 -3.5q-34 -40 -80.5 -60.5t-99.5 -20.5q-63 0 -110 29z" />
    <glyph glyph-name="eacute" unicode="&#xe9;" horiz-adv-x="479" 
d="M149 547l141 141q38 -18 38 -57q0 -40 -50 -65l-102 -49zM139 16q-47 29 -73 81.5t-26 121.5q0 72 29 127t82.5 85t123.5 30q74 0 114.5 -39t40.5 -94q0 -38 -20.5 -73t-60 -57t-92.5 -22q-30 0 -65 10.5t-35 31.5q0 8 4 14t9 6q3 0 18.5 -5.5t40.5 -5.5q55 0 85 30
t30 72q0 36 -23.5 62t-62.5 26q-59 0 -91.5 -51.5t-32.5 -146.5q0 -81 34.5 -126.5t99.5 -45.5q80 0 132 52q3 3 8 3q8 0 16.5 -8t8.5 -17q0 -3 -2 -5.5t-2 -3.5q-34 -40 -80.5 -60.5t-99.5 -20.5q-63 0 -110 29z" />
    <glyph glyph-name="ecircumflex" unicode="&#xea;" horiz-adv-x="479" 
d="M116 540q28 50 61 91.5t52 52.5h24q16 -10 49.5 -52t61.5 -92l-28 -23l-96 73l-94 -73zM139 16q-47 29 -73 81.5t-26 121.5q0 72 29 127t82.5 85t123.5 30q74 0 114.5 -39t40.5 -94q0 -38 -20.5 -73t-60 -57t-92.5 -22q-30 0 -65 10.5t-35 31.5q0 8 4 14t9 6
q3 0 18.5 -5.5t40.5 -5.5q55 0 85 30t30 72q0 36 -23.5 62t-62.5 26q-59 0 -91.5 -51.5t-32.5 -146.5q0 -81 34.5 -126.5t99.5 -45.5q80 0 132 52q3 3 8 3q8 0 16.5 -8t8.5 -17q0 -3 -2 -5.5t-2 -3.5q-34 -40 -80.5 -60.5t-99.5 -20.5q-63 0 -110 29z" />
    <glyph glyph-name="edieresis" unicode="&#xeb;" horiz-adv-x="479" 
d="M117.5 558q-19.5 21 -19.5 38t19 38t35 21q17 0 38 -21t21 -38t-21 -38t-38 -21q-15 0 -34.5 21zM289.5 558q-19.5 21 -19.5 38t19 38t35 21q17 0 38 -21t21 -38t-21 -38t-38 -21q-15 0 -34.5 21zM139 16q-47 29 -73 81.5t-26 121.5q0 72 29 127t82.5 85t123.5 30
q74 0 114.5 -39t40.5 -94q0 -38 -20.5 -73t-60 -57t-92.5 -22q-30 0 -65 10.5t-35 31.5q0 8 4 14t9 6q3 0 18.5 -5.5t40.5 -5.5q55 0 85 30t30 72q0 36 -23.5 62t-62.5 26q-59 0 -91.5 -51.5t-32.5 -146.5q0 -81 34.5 -126.5t99.5 -45.5q80 0 132 52q3 3 8 3q8 0 16.5 -8
t8.5 -17q0 -3 -2 -5.5t-2 -3.5q-34 -40 -80.5 -60.5t-99.5 -20.5q-63 0 -110 29z" />
    <glyph glyph-name="igrave" unicode="&#xec;" horiz-adv-x="282" 
d="M103 566q-27 13 -39 29t-12 36q0 39 39 57l140 -141l-25 -30zM114.5 9.5q-16.5 22.5 -16.5 73.5v280q0 12 -4 17t-14 5h-41l-7 22q26 24 59.5 39t58.5 15q13 0 21.5 -7.5t8.5 -19.5v-354q0 -31 27 -31q21 0 46 19l17 -23q-25 -26 -52.5 -42t-49.5 -16q-37 0 -53.5 22.5z
" />
    <glyph glyph-name="iacute" unicode="&#xed;" horiz-adv-x="282" 
d="M52 547l140 141q38 -17 38 -57q0 -20 -11.5 -36t-37.5 -29l-103 -49zM114.5 9.5q-16.5 22.5 -16.5 73.5v280q0 12 -4 17t-14 5h-41l-7 22q26 24 59.5 39t58.5 15q13 0 21.5 -7.5t8.5 -19.5v-354q0 -31 27 -31q21 0 46 19l17 -23q-25 -26 -52.5 -42t-49.5 -16
q-37 0 -53.5 22.5z" />
    <glyph glyph-name="icircumflex" unicode="&#xee;" horiz-adv-x="282" 
d="M18 540q29 51 61 92t51 52h23q17 -10 51 -52t62 -92l-29 -23l-95 73l-94 -73zM114.5 9.5q-16.5 22.5 -16.5 73.5v280q0 12 -4 17t-14 5h-41l-7 22q26 24 59.5 39t58.5 15q13 0 21.5 -7.5t8.5 -19.5v-354q0 -31 27 -31q21 0 46 19l17 -23q-25 -26 -52.5 -42t-49.5 -16
q-37 0 -53.5 22.5z" />
    <glyph glyph-name="idieresis" unicode="&#xef;" horiz-adv-x="282" 
d="M19.5 558q-19.5 21 -19.5 38t19.5 38t35.5 21q17 0 37.5 -21t20.5 -38t-20.5 -38t-37.5 -21q-16 0 -35.5 21zM191.5 558q-19.5 21 -19.5 38t19.5 38t35.5 21q17 0 37.5 -21t20.5 -38t-20.5 -38t-37.5 -21q-16 0 -35.5 21zM114.5 9.5q-16.5 22.5 -16.5 73.5v280
q0 12 -4 17t-14 5h-41l-7 22q26 24 59.5 39t58.5 15q13 0 21.5 -7.5t8.5 -19.5v-354q0 -31 27 -31q21 0 46 19l17 -23q-25 -26 -52.5 -42t-49.5 -16q-37 0 -53.5 22.5z" />
    <glyph glyph-name="eth" unicode="&#xf0;" horiz-adv-x="528" 
d="M99.5 49q-60.5 62 -60.5 167t60.5 166t165.5 61q77 0 126 -53q-16 81 -43 148l-90 -45q0 36 4 52.5t15 20.5l46 23q-48 85 -109 85q-33 0 -51.5 -20.5t-18.5 -51.5q0 -28 9 -44.5t19.5 -27t10.5 -13.5q0 -11 -15 -11q-47 0 -74 28.5t-27 68.5q0 29 16.5 55t50 42t81.5 16
q51 0 94 -26t74 -71l123 63q0 -37 -4 -53.5t-16 -22.5l-75 -36q40 -77 59.5 -176t19.5 -178q0 -69 -28 -121t-78.5 -80t-118.5 -28q-105 0 -165.5 62zM370 82.5q35 46.5 35 125.5q0 83 -39.5 135.5t-103.5 52.5q-59 0 -94 -48.5t-35 -131.5q0 -82 39.5 -131t102.5 -49
q60 0 95 46.5z" />
    <glyph glyph-name="ntilde" unicode="&#xf1;" horiz-adv-x="582" 
d="M144 564q30 40 60.5 63.5t55.5 23.5q22 0 48 -18q9 -5 18.5 -9.5t18.5 -4.5q25 0 62 36l31 -28q-29 -40 -60 -64t-56 -24q-15 0 -25.5 4t-25.5 13q-8 5 -17 9.5t-18 4.5q-12 0 -28 -8.5t-32 -26.5zM410 9.5q-16 22.5 -16 73.5v216q0 46 -20 69.5t-59 23.5t-68.5 -31
t-45.5 -87t-16 -129q0 -42 6.5 -68t22.5 -49l11 -14l-11 -14h-159l-9 28l17 5q24 4 31.5 18.5t7.5 49.5v254q0 11 -4 15.5t-14 4.5h-39l-9 24q26 24 60 39t60 15q13 0 21 -8t8 -20v-99q23 59 70 97t99 38q63 0 92.5 -39t29.5 -123v-219q0 -31 27 -31q22 0 45 19l17 -23
q-23 -26 -51 -42t-51 -16q-37 0 -53 22.5z" />
    <glyph glyph-name="ograve" unicode="&#xf2;" horiz-adv-x="523" 
d="M218 566q-27 13 -39 29t-12 36q0 38 39 57l141 -141l-26 -30zM100 51.5q-60 64.5 -60 173.5t60 172.5t162 63.5q67 0 117 -29t77 -82t27 -125t-27.5 -126t-77.5 -83t-116 -29q-102 0 -162 64.5zM352.5 87.5q35.5 51.5 35.5 135.5q0 43 -12 86.5t-39.5 74t-71.5 30.5
q-59 0 -94.5 -52t-35.5 -138t33.5 -137t91.5 -51q57 0 92.5 51.5z" />
    <glyph glyph-name="oacute" unicode="&#xf3;" horiz-adv-x="523" 
d="M191 547l140 141q39 -19 39 -57q0 -40 -50 -65l-103 -49zM100 51.5q-60 64.5 -60 173.5t60 172.5t162 63.5q67 0 117 -29t77 -82t27 -125t-27.5 -126t-77.5 -83t-116 -29q-102 0 -162 64.5zM352.5 87.5q35.5 51.5 35.5 135.5q0 43 -12 86.5t-39.5 74t-71.5 30.5
q-59 0 -94.5 -52t-35.5 -138t33.5 -137t91.5 -51q57 0 92.5 51.5z" />
    <glyph glyph-name="ocircumflex" unicode="&#xf4;" horiz-adv-x="523" 
d="M141 540q29 51 61 92t51 52h23q17 -10 51 -52t62 -92l-30 -23l-95 73l-94 -73zM100 51.5q-60 64.5 -60 173.5t60 172.5t162 63.5q67 0 117 -29t77 -82t27 -125t-27.5 -126t-77.5 -83t-116 -29q-102 0 -162 64.5zM352.5 87.5q35.5 51.5 35.5 135.5q0 43 -12 86.5t-39.5 74
t-71.5 30.5q-59 0 -94.5 -52t-35.5 -138t33.5 -137t91.5 -51q57 0 92.5 51.5z" />
    <glyph glyph-name="otilde" unicode="&#xf5;" horiz-adv-x="523" 
d="M117 564q30 40 60.5 63.5t55.5 23.5q22 0 50 -18q9 -5 18 -9.5t18 -4.5q25 0 62 36l30 -28q-28 -40 -59 -64t-56 -24q-15 0 -27 4.5t-24 13.5q-9 5 -17.5 9t-17.5 4q-29 0 -61 -35zM100 51.5q-60 64.5 -60 173.5t60 172.5t162 63.5q67 0 117 -29t77 -82t27 -125
t-27.5 -126t-77.5 -83t-116 -29q-102 0 -162 64.5zM352.5 87.5q35.5 51.5 35.5 135.5q0 43 -12 86.5t-39.5 74t-71.5 30.5q-59 0 -94.5 -52t-35.5 -138t33.5 -137t91.5 -51q57 0 92.5 51.5z" />
    <glyph glyph-name="odieresis" unicode="&#xf6;" horiz-adv-x="523" 
d="M142.5 558q-19.5 21 -19.5 38t19.5 38t35.5 21q17 0 37.5 -21t20.5 -38t-20.5 -38t-37.5 -21q-16 0 -35.5 21zM313.5 558q-19.5 21 -19.5 38t19.5 38t35.5 21q17 0 37.5 -21t20.5 -38t-20.5 -38t-37.5 -21q-16 0 -35.5 21zM100 51.5q-60 64.5 -60 173.5t60 172.5
t162 63.5q67 0 117 -29t77 -82t27 -125t-27.5 -126t-77.5 -83t-116 -29q-102 0 -162 64.5zM352.5 87.5q35.5 51.5 35.5 135.5q0 43 -12 86.5t-39.5 74t-71.5 30.5q-59 0 -94.5 -52t-35.5 -138t33.5 -137t91.5 -51q57 0 92.5 51.5z" />
    <glyph glyph-name="divide" unicode="&#xf7;" horiz-adv-x="621" 
d="M244 436.5q-19 20.5 -19 37.5q0 18 19 39t35 21q17 0 37.5 -21t20.5 -39q0 -17 -20.5 -37.5t-37.5 -20.5q-16 0 -35 20.5zM89 290v67h384v-67h-384zM244 134q-19 21 -19 38q0 18 19 38.5t35 20.5q17 0 37.5 -20.5t20.5 -38.5q0 -17 -20.5 -38t-37.5 -21q-16 0 -35 21z
" />
    <glyph glyph-name="oslash" unicode="&#xf8;" horiz-adv-x="523" 
d="M162 7q-58 26 -90 83t-32 135q0 109 60 172.5t162 63.5q28 0 59 -7l21 59h49l-27 -74q56 -27 87.5 -82.5t31.5 -131.5q0 -72 -27.5 -126t-77.5 -83t-116 -29q-24 0 -56 7l-20 -56h-48zM305 406q-19 8 -40 8q-59 0 -94.5 -52t-35.5 -138q0 -106 49 -157zM352.5 87.5
q35.5 51.5 35.5 135.5q0 41 -11 83t-35 71l-118 -334q19 -7 36 -7q57 0 92.5 51.5z" />
    <glyph glyph-name="ugrave" unicode="&#xf9;" horiz-adv-x="557" 
d="M230 566q-27 13 -38.5 29t-11.5 36q0 40 38 57l141 -141l-25 -30zM130 26.5q-36 39.5 -36 110.5v226q0 22 -18 22h-41l-7 22q23 24 56.5 39t61.5 15q13 0 21.5 -7.5t8.5 -19.5v-275q0 -54 22 -82.5t65 -28.5q61 0 95 52.5t34 145.5q0 66 -7.5 103.5t-28.5 73.5l-11 14
l11 13l112 11v-381q0 -28 24 -28q23 0 45 16l18 -23q-22 -26 -49.5 -42t-51.5 -16q-36 0 -52 21.5t-16 66.5q-22 -41 -63 -64.5t-92 -23.5q-65 0 -101 39.5z" />
    <glyph glyph-name="uacute" unicode="&#xfa;" horiz-adv-x="557" 
d="M214 547l140 141q39 -18 39 -57q0 -40 -50 -65l-103 -49zM130 26.5q-36 39.5 -36 110.5v226q0 22 -18 22h-41l-7 22q23 24 56.5 39t61.5 15q13 0 21.5 -7.5t8.5 -19.5v-275q0 -54 22 -82.5t65 -28.5q61 0 95 52.5t34 145.5q0 66 -7.5 103.5t-28.5 73.5l-11 14l11 13
l112 11v-381q0 -28 24 -28q23 0 45 16l18 -23q-22 -26 -49.5 -42t-51.5 -16q-36 0 -52 21.5t-16 66.5q-22 -41 -63 -64.5t-92 -23.5q-65 0 -101 39.5z" />
    <glyph glyph-name="ucircumflex" unicode="&#xfb;" horiz-adv-x="557" 
d="M153 540q28 50 61 91.5t52 52.5h24q17 -10 50.5 -51.5t61.5 -92.5l-29 -23l-96 73l-93 -73zM130 26.5q-36 39.5 -36 110.5v226q0 22 -18 22h-41l-7 22q23 24 56.5 39t61.5 15q13 0 21.5 -7.5t8.5 -19.5v-275q0 -54 22 -82.5t65 -28.5q61 0 95 52.5t34 145.5
q0 66 -7.5 103.5t-28.5 73.5l-11 14l11 13l112 11v-381q0 -28 24 -28q23 0 45 16l18 -23q-22 -26 -49.5 -42t-51.5 -16q-36 0 -52 21.5t-16 66.5q-22 -41 -63 -64.5t-92 -23.5q-65 0 -101 39.5z" />
    <glyph glyph-name="udieresis" unicode="&#xfc;" horiz-adv-x="557" 
d="M156 558q-20 21 -20 38t19.5 38t35.5 21q17 0 37.5 -21t20.5 -38t-20.5 -38t-37.5 -21q-15 0 -35 21zM327.5 558q-19.5 21 -19.5 38t19 38t35 21q17 0 38 -21t21 -38t-21 -38t-38 -21q-15 0 -34.5 21zM130 26.5q-36 39.5 -36 110.5v226q0 22 -18 22h-41l-7 22
q23 24 56.5 39t61.5 15q13 0 21.5 -7.5t8.5 -19.5v-275q0 -54 22 -82.5t65 -28.5q61 0 95 52.5t34 145.5q0 66 -7.5 103.5t-28.5 73.5l-11 14l11 13l112 11v-381q0 -28 24 -28q23 0 45 16l18 -23q-22 -26 -49.5 -42t-51.5 -16q-36 0 -52 21.5t-16 66.5q-22 -41 -63 -64.5
t-92 -23.5q-65 0 -101 39.5z" />
    <glyph glyph-name="yacute" unicode="&#xfd;" horiz-adv-x="551" 
d="M214 547l140 141q39 -18 39 -57q0 -40 -50 -65l-103 -49zM178.5 -234.5q-35.5 18.5 -53 48.5t-17.5 63q0 46 31 78t85 32q8 0 12 -2.5t4 -6.5t-12.5 -17.5t-22 -32.5t-9.5 -48q0 -36 21.5 -60.5t57.5 -24.5q56 0 83 46.5t27 124.5v134q-22 -40 -63.5 -63t-92.5 -23
q-64 0 -99.5 39.5t-35.5 110.5v200q0 12 -4 17t-14 5h-41l-7 22q23 24 56.5 39t61.5 15q13 0 21.5 -7.5t8.5 -19.5v-250q0 -54 22 -82t63 -28q61 0 95 45t34 127q0 75 -6 111t-30 66l-10 14l10 13l111 11v-482q0 -111 -54 -172t-147 -61q-50 0 -85.5 18.5z" />
    <glyph glyph-name="thorn" unicode="&#xfe;" horiz-adv-x="539" 
d="M53 -228l10 15q17 23 24 48.5t7 68.5v699q0 13 -4 20t-15 9l-47 10v30q14 13 54.5 25t69.5 12q23 0 23 -42v-262q58 56 131 56q55 0 99 -28t68.5 -77.5t24.5 -113.5q0 -72 -26 -130.5t-71.5 -91.5t-101.5 -33q-54 0 -90 25q-9 5 -9 16q0 10 3.5 16.5t10.5 6.5
q3 0 19.5 -7.5t43.5 -7.5q56 0 90.5 53t34.5 136q0 78 -34.5 127.5t-91.5 49.5q-30 0 -54 -8t-47 -27v-508q0 -35 7.5 -49t30.5 -19l18 -4l-8 -27h-160z" />
    <glyph glyph-name="ydieresis" unicode="&#xff;" horiz-adv-x="551" 
d="M154 558q-20 21 -20 38t19.5 38t35.5 21q17 0 37.5 -21t20.5 -38t-20.5 -38t-37.5 -21q-15 0 -35 21zM325.5 558q-19.5 21 -19.5 38t19 38t35 21q17 0 38 -21t21 -38t-21 -38t-38 -21q-15 0 -34.5 21zM178.5 -234.5q-35.5 18.5 -53 48.5t-17.5 63q0 46 31 78t85 32
q8 0 12 -2.5t4 -6.5t-12.5 -17.5t-22 -32.5t-9.5 -48q0 -36 21.5 -60.5t57.5 -24.5q56 0 83 46.5t27 124.5v134q-22 -40 -63.5 -63t-92.5 -23q-64 0 -99.5 39.5t-35.5 110.5v200q0 12 -4 17t-14 5h-41l-7 22q23 24 56.5 39t61.5 15q13 0 21.5 -7.5t8.5 -19.5v-250
q0 -54 22 -82t63 -28q61 0 95 45t34 127q0 75 -6 111t-30 66l-10 14l10 13l111 11v-482q0 -111 -54 -172t-147 -61q-50 0 -85.5 18.5z" />
    <glyph glyph-name="Amacron" unicode="&#x100;" horiz-adv-x="639" 
d="M176 800q6 20 18 32h244q0 -22 -5.5 -42t-18.5 -30h-244q0 20 6 40zM-15 31l21 5q37 11 53 26.5t30 57.5l142 410q10 32 10 44q0 17 -9.5 26.5t-30.5 13.5l-21 5l11 31h174l183 -524q15 -43 31.5 -64t50.5 -47l-12 -15h-205l-10 31l22 5q21 5 30.5 14.5t9.5 26.5
q0 10 -4.5 23.5l-6.5 19.5l-43 127h-209l-22 -66q-20 -62 -20 -95t13 -55l7 -16l-17 -15h-166zM222 304h171l-87 254z" />
    <glyph glyph-name="amacron" unicode="&#x101;" horiz-adv-x="546" 
d="M154.5 600q6.5 21 18.5 31h243q0 -20 -5.5 -41t-17.5 -31h-245q0 20 6.5 41zM122.5 12.5q-37.5 25.5 -60 75t-22.5 120.5q0 117 63.5 185t171.5 68q36 0 98 -11q46 -8 83 -11l12 -11l-13 -17q-7 -12 -9.5 -18.5t-2.5 -17.5v-295q0 -28 29 -28q22 0 45 16l17 -23
q-24 -27 -51 -42.5t-49 -15.5q-38 0 -55 22.5t-17 73.5q-36 -53 -74.5 -74.5t-83.5 -21.5q-44 0 -81.5 25.5zM362 140v245q-39 26 -88 26q-65 0 -101.5 -48.5t-36.5 -137.5q0 -86 29.5 -126.5t73.5 -40.5q76 0 123 82z" />
    <glyph glyph-name="Abreve" unicode="&#x102;" horiz-adv-x="639" 
d="M223.5 758q-31.5 32 -31.5 94h50q0 -27 18.5 -42t46.5 -15q27 0 44 15t17 42h50q0 -61 -31 -93.5t-80 -32.5q-52 0 -83.5 32zM-15 31l21 5q37 11 53 26.5t30 57.5l142 410q10 32 10 44q0 17 -9.5 26.5t-30.5 13.5l-21 5l11 31h174l183 -524q15 -43 31.5 -64t50.5 -47
l-12 -15h-205l-10 31l22 5q21 5 30.5 14.5t9.5 26.5q0 10 -4.5 23.5l-6.5 19.5l-43 127h-209l-22 -66q-20 -62 -20 -95t13 -55l7 -16l-17 -15h-166zM222 304h171l-87 254z" />
    <glyph glyph-name="abreve" unicode="&#x103;" horiz-adv-x="546" 
d="M196.5 558q-31.5 33 -31.5 94h50q0 -26 18 -41.5t45 -15.5t45 15.5t18 41.5h50q0 -61 -31.5 -94t-81.5 -33t-81.5 33zM122.5 12.5q-37.5 25.5 -60 75t-22.5 120.5q0 117 63.5 185t171.5 68q36 0 98 -11q46 -8 83 -11l12 -11l-13 -17q-7 -12 -9.5 -18.5t-2.5 -17.5v-295
q0 -28 29 -28q22 0 45 16l17 -23q-24 -27 -51 -42.5t-49 -15.5q-38 0 -55 22.5t-17 73.5q-36 -53 -74.5 -74.5t-83.5 -21.5q-44 0 -81.5 25.5zM362 140v245q-39 26 -88 26q-65 0 -101.5 -48.5t-36.5 -137.5q0 -86 29.5 -126.5t73.5 -40.5q76 0 123 82z" />
    <glyph glyph-name="Aogonek" unicode="&#x104;" horiz-adv-x="639" 
d="M397 -227.5q-28 25.5 -28 70.5q0 41 27 77t87 80h-70l-10 31l22 5q21 5 30.5 14.5t9.5 26.5q0 10 -4.5 23.5l-6.5 19.5l-43 127h-209l-22 -66q-20 -62 -20 -95t13 -55l7 -16l-17 -15h-166l-12 31l21 5q37 11 53 26.5t30 57.5l142 410q10 32 10 44q0 17 -9.5 26.5
t-30.5 13.5l-21 5l11 31h174l183 -524q15 -43 31.5 -64t50.5 -47l-12 -15h-66q-57 -38 -83.5 -73.5t-26.5 -63.5q0 -26 14 -39.5t38 -13.5q25 0 54 15t52 42l30 -27q-38 -47 -77 -70t-83 -23q-45 0 -73 25.5zM222 304h171l-87 254z" />
    <glyph glyph-name="aogonek" unicode="&#x105;" horiz-adv-x="546" 
d="M323 -227.5q-28 25.5 -28 70.5q0 39 25.5 74.5t79.5 75.5q-20 8 -29 30t-9 60q-36 -53 -74.5 -74.5t-83.5 -21.5q-44 0 -81.5 25.5t-60 75t-22.5 120.5q0 117 63.5 185t171.5 68q36 0 98 -11q46 -8 83 -11l12 -11l-13 -17q-7 -12 -9.5 -18.5t-2.5 -17.5v-295
q0 -28 29 -28q22 0 45 16l17 -23q-22 -26 -56 -45q-57 -38 -83 -73t-26 -64q0 -26 14 -39.5t38 -13.5q25 0 53 15t51 42l31 -27q-38 -47 -77 -70t-83 -23q-45 0 -73 25.5zM362 140v245q-39 26 -88 26q-65 0 -101.5 -48.5t-36.5 -137.5q0 -86 29.5 -126.5t73.5 -40.5
q76 0 123 82z" />
    <glyph glyph-name="Cacute" unicode="&#x106;" horiz-adv-x="559" 
d="M237 747l141 142q17 -9 28 -24t11 -33q0 -21 -12.5 -37t-39.5 -29l-102 -50zM162 31.5q-65 44.5 -97.5 121t-32.5 171.5q0 97 32.5 173.5t98 121t161.5 44.5q59 0 105 -17t72 -47t26 -69q0 -46 -27 -75.5t-68 -29.5q-21 0 -21 11q0 2 8 14.5t14 29t6 38.5
q0 42 -31.5 68.5t-83.5 26.5q-67 0 -109.5 -42t-61.5 -107.5t-19 -139.5q0 -75 24 -138t68.5 -99.5t102.5 -36.5t101.5 21.5t69.5 59.5q3 4 6 4q9 0 19 -8.5t10 -17.5q0 -3 -2 -7q-80 -115 -212 -115q-94 0 -159 44.5z" />
    <glyph glyph-name="cacute" unicode="&#x107;" horiz-adv-x="460" 
d="M188 547l140 141q39 -18 39 -57q0 -20 -12 -36t-39 -29l-102 -49zM147 18q-50 31 -78.5 85t-28.5 121q0 72 27 125.5t77 82.5t116 29q70 0 114.5 -33.5t44.5 -86.5q0 -39 -25 -63.5t-64 -24.5q-9 0 -13 2t-4 7q0 3 6.5 13t11.5 24.5t5 37.5q0 36 -23.5 56.5t-62.5 20.5
q-52 0 -83.5 -50.5t-31.5 -133.5q0 -84 37.5 -133t101.5 -49q33 0 62 11t58 35q2 2 8 2q8 0 15.5 -8.5t7.5 -17.5q0 -7 -2 -7q-32 -37 -74.5 -56.5t-88.5 -19.5q-63 0 -113 31z" />
    <glyph glyph-name="Ccircumflex" unicode="&#x108;" horiz-adv-x="559" 
d="M198 742q28 49 61 90t52 52h24q17 -10 50.5 -51.5t60.5 -90.5l-28 -26l-95 75l-94 -75zM162 31.5q-65 44.5 -97.5 121t-32.5 171.5q0 97 32.5 173.5t98 121t161.5 44.5q59 0 105 -17t72 -47t26 -69q0 -46 -27 -75.5t-68 -29.5q-21 0 -21 11q0 2 8 14.5t14 29t6 38.5
q0 42 -31.5 68.5t-83.5 26.5q-67 0 -109.5 -42t-61.5 -107.5t-19 -139.5q0 -75 24 -138t68.5 -99.5t102.5 -36.5t101.5 21.5t69.5 59.5q3 4 6 4q9 0 19 -8.5t10 -17.5q0 -3 -2 -7q-80 -115 -212 -115q-94 0 -159 44.5z" />
    <glyph glyph-name="ccircumflex" unicode="&#x109;" horiz-adv-x="460" 
d="M136 540q28 50 61 91.5t51 52.5h24q17 -10 51 -52t62 -92l-30 -23l-95 73l-94 -73zM147 18q-50 31 -78.5 85t-28.5 121q0 72 27 125.5t77 82.5t116 29q70 0 114.5 -33.5t44.5 -86.5q0 -39 -25 -63.5t-64 -24.5q-9 0 -13 2t-4 7q0 3 6.5 13t11.5 24.5t5 37.5
q0 36 -23.5 56.5t-62.5 20.5q-52 0 -83.5 -50.5t-31.5 -133.5q0 -84 37.5 -133t101.5 -49q33 0 62 11t58 35q2 2 8 2q8 0 15.5 -8.5t7.5 -17.5q0 -7 -2 -7q-32 -37 -74.5 -56.5t-88.5 -19.5q-63 0 -113 31z" />
    <glyph glyph-name="Cdotaccent" unicode="&#x10a;" horiz-adv-x="559" 
d="M281.5 752.5q-22.5 23.5 -22.5 43.5q0 21 22.5 45t41.5 24q20 0 42.5 -24t22.5 -45q0 -20 -22.5 -43.5t-42.5 -23.5q-19 0 -41.5 23.5zM162 31.5q-65 44.5 -97.5 121t-32.5 171.5q0 97 32.5 173.5t98 121t161.5 44.5q59 0 105 -17t72 -47t26 -69q0 -46 -27 -75.5
t-68 -29.5q-21 0 -21 11q0 2 8 14.5t14 29t6 38.5q0 42 -31.5 68.5t-83.5 26.5q-67 0 -109.5 -42t-61.5 -107.5t-19 -139.5q0 -75 24 -138t68.5 -99.5t102.5 -36.5t101.5 21.5t69.5 59.5q3 4 6 4q9 0 19 -8.5t10 -17.5q0 -3 -2 -7q-80 -115 -212 -115q-94 0 -159 44.5z" />
    <glyph glyph-name="cdotaccent" unicode="&#x10b;" horiz-adv-x="460" 
d="M219 551.5q-23 24.5 -23 44.5q0 21 22.5 45t41.5 24q20 0 42.5 -24t22.5 -45t-22.5 -45t-42.5 -24q-18 0 -41 24.5zM147 18q-50 31 -78.5 85t-28.5 121q0 72 27 125.5t77 82.5t116 29q70 0 114.5 -33.5t44.5 -86.5q0 -39 -25 -63.5t-64 -24.5q-9 0 -13 2t-4 7q0 3 6.5 13
t11.5 24.5t5 37.5q0 36 -23.5 56.5t-62.5 20.5q-52 0 -83.5 -50.5t-31.5 -133.5q0 -84 37.5 -133t101.5 -49q33 0 62 11t58 35q2 2 8 2q8 0 15.5 -8.5t7.5 -17.5q0 -7 -2 -7q-32 -37 -74.5 -56.5t-88.5 -19.5q-63 0 -113 31z" />
    <glyph glyph-name="Ccaron" unicode="&#x10c;" horiz-adv-x="559" 
d="M259 775.5q-33 41.5 -61 91.5l31 26l94 -78l95 78l28 -26q-27 -50 -60.5 -92t-50.5 -52h-24q-19 11 -52 52.5zM162 31.5q-65 44.5 -97.5 121t-32.5 171.5q0 97 32.5 173.5t98 121t161.5 44.5q59 0 105 -17t72 -47t26 -69q0 -46 -27 -75.5t-68 -29.5q-21 0 -21 11
q0 2 8 14.5t14 29t6 38.5q0 42 -31.5 68.5t-83.5 26.5q-67 0 -109.5 -42t-61.5 -107.5t-19 -139.5q0 -75 24 -138t68.5 -99.5t102.5 -36.5t101.5 21.5t69.5 59.5q3 4 6 4q9 0 19 -8.5t10 -17.5q0 -3 -2 -7q-80 -115 -212 -115q-94 0 -159 44.5z" />
    <glyph glyph-name="ccaron" unicode="&#x10d;" horiz-adv-x="460" 
d="M197 575.5q-33 41.5 -61 91.5l30 26l94 -77l95 77l30 -26q-28 -50 -62 -92t-51 -52h-24q-18 11 -51 52.5zM147 18q-50 31 -78.5 85t-28.5 121q0 72 27 125.5t77 82.5t116 29q70 0 114.5 -33.5t44.5 -86.5q0 -39 -25 -63.5t-64 -24.5q-9 0 -13 2t-4 7q0 3 6.5 13
t11.5 24.5t5 37.5q0 36 -23.5 56.5t-62.5 20.5q-52 0 -83.5 -50.5t-31.5 -133.5q0 -84 37.5 -133t101.5 -49q33 0 62 11t58 35q2 2 8 2q8 0 15.5 -8.5t7.5 -17.5q0 -7 -2 -7q-32 -37 -74.5 -56.5t-88.5 -19.5q-63 0 -113 31z" />
    <glyph glyph-name="Dcaron" unicode="&#x10e;" horiz-adv-x="663" 
d="M269 775.5q-33 41.5 -61 91.5l30 26l94 -78l95 78l29 -26q-27 -49 -61 -91.5t-51 -52.5h-24q-18 11 -51 52.5zM36 31l22 5q28 9 42.5 24.5t14.5 49.5v458q0 12 -5 16.5t-15 4.5h-52l-11 34q43 15 112 27.5t133 12.5q189 0 272 -94t83 -245q0 -92 -34 -165.5t-101.5 -116
t-165.5 -42.5h-284zM534 326q0 77 -26.5 142t-80.5 105t-133 40q-89 0 -89 -43v-411q0 -65 27 -89t71 -24q231 0 231 280z" />
    <glyph glyph-name="dcaron" unicode="&#x10f;" horiz-adv-x="592" 
d="M479 558l42 82q10 23 10 38q0 17 -20 32l-18 12l-4 21l17 6q27 11 50 11q27 0 43 -14.5t16 -46.5q0 -25 -18 -51.5t-56 -68.5l-35 -39zM122.5 12.5q-37.5 25.5 -60 75t-22.5 120.5q0 117 63.5 185t171.5 68q53 0 86 -11v161q0 11 -4 15.5t-13 4.5h-40l-8 23
q25 24 59 39.5t59 15.5q13 0 21 -8t8 -21v-600q0 -28 29 -28q22 0 45 16l17 -23q-24 -27 -51 -42.5t-49 -15.5q-38 0 -55 22.5t-17 73.5q-36 -53 -74.5 -74.5t-83.5 -21.5q-44 0 -81.5 25.5zM362 140v245q-39 26 -88 26q-65 0 -101.5 -48.5t-36.5 -137.5q0 -86 29.5 -126.5
t73.5 -40.5q76 0 123 82z" />
    <glyph glyph-name="Dcroat" unicode="&#x110;" horiz-adv-x="663" 
d="M36 31l22 5q28 9 42.5 24.5t14.5 49.5v192h-105q0 17 4.5 32.5t15.5 22.5h85v211q0 12 -5 16.5t-15 4.5h-52l-11 34q43 15 112 27.5t133 12.5q189 0 272 -94t83 -245q0 -92 -34 -165.5t-101.5 -116t-165.5 -42.5h-284zM534 326q0 77 -26.5 142t-80.5 105t-133 40
q-89 0 -89 -43v-213h176q0 -16 -5 -31.5t-16 -23.5h-155v-143q0 -65 27 -89t71 -24q231 0 231 280z" />
    <glyph glyph-name="dcroat" unicode="&#x111;" horiz-adv-x="546" 
d="M122.5 12.5q-37.5 25.5 -60 75t-22.5 120.5q0 117 63.5 185t171.5 68q53 0 86 -11v80h-167q0 37 19 51h148v30q0 11 -4 15.5t-13 4.5h-40l-8 23q25 24 59 39.5t59 15.5q13 0 21 -8t8 -21v-99h86q0 -35 -19 -51h-67v-450q0 -28 29 -28q22 0 45 16l17 -23
q-24 -27 -51 -42.5t-49 -15.5q-38 0 -55 22.5t-17 73.5q-36 -53 -74.5 -74.5t-83.5 -21.5q-44 0 -81.5 25.5zM362 140v245q-39 26 -88 26q-65 0 -101.5 -48.5t-36.5 -137.5q0 -86 29.5 -126.5t73.5 -40.5q76 0 123 82z" />
    <glyph glyph-name="Emacron" unicode="&#x112;" horiz-adv-x="551" 
d="M158 800.5q6 19.5 19 31.5h244q0 -22 -6 -42t-19 -30h-244q0 21 6 40.5zM471 -13q-7 7 -15.5 10t-22.5 3h-382l-11 29l20 5q33 10 44 25.5t11 54.5v355q0 54 -9 87t-31 63l-12 17l12 14h277q79 0 102 19l18 12l13 -12v-161l-31 -11l-5 22q-12 49 -31 65t-66 16h-89
q-35 0 -46.5 -14t-11.5 -56v-174h115q23 0 39 9t33 32l7 10l18 -10v-155l-30 -11l-6 23q-10 31 -30 41t-70 10h-76v-185q0 -29 4.5 -43.5t16.5 -19.5t37 -5h97q33 0 51 6.5t28.5 23.5t19.5 50l6 20l30 -9v-156l-17 -9z" />
    <glyph glyph-name="emacron" unicode="&#x113;" horiz-adv-x="479" 
d="M129.5 600q5.5 21 17.5 31h244q0 -21 -5.5 -41.5t-17.5 -30.5h-244q0 20 5.5 41zM139 16q-47 29 -73 81.5t-26 121.5q0 72 29 127t82.5 85t123.5 30q74 0 114.5 -39t40.5 -94q0 -38 -20.5 -73t-60 -57t-92.5 -22q-30 0 -65 10.5t-35 31.5q0 8 4 14t9 6q3 0 18.5 -5.5
t40.5 -5.5q55 0 85 30t30 72q0 36 -23.5 62t-62.5 26q-59 0 -91.5 -51.5t-32.5 -146.5q0 -81 34.5 -126.5t99.5 -45.5q80 0 132 52q3 3 8 3q8 0 16.5 -8t8.5 -17q0 -3 -2 -5.5t-2 -3.5q-34 -40 -80.5 -60.5t-99.5 -20.5q-63 0 -110 29z" />
    <glyph glyph-name="Ebreve" unicode="&#x114;" horiz-adv-x="551" 
d="M205.5 758.5q-31.5 32.5 -31.5 93.5h50q0 -27 18 -42t46 -15q27 0 44 15t17 42h50q0 -61 -31 -93.5t-80 -32.5q-51 0 -82.5 32.5zM471 -13q-7 7 -15.5 10t-22.5 3h-382l-11 29l20 5q33 10 44 25.5t11 54.5v355q0 54 -9 87t-31 63l-12 17l12 14h277q79 0 102 19l18 12
l13 -12v-161l-31 -11l-5 22q-12 49 -31 65t-66 16h-89q-35 0 -46.5 -14t-11.5 -56v-174h115q23 0 39 9t33 32l7 10l18 -10v-155l-30 -11l-6 23q-10 31 -30 41t-70 10h-76v-185q0 -29 4.5 -43.5t16.5 -19.5t37 -5h97q33 0 51 6.5t28.5 23.5t19.5 50l6 20l30 -9v-156l-17 -9z
" />
    <glyph glyph-name="ebreve" unicode="&#x115;" horiz-adv-x="479" 
d="M175 557.5q-31 32.5 -31 94.5h49q0 -26 18.5 -41.5t45.5 -15.5q26 0 44 15.5t18 41.5h50q0 -61 -31.5 -94t-80.5 -33q-51 0 -82 32.5zM139 16q-47 29 -73 81.5t-26 121.5q0 72 29 127t82.5 85t123.5 30q74 0 114.5 -39t40.5 -94q0 -38 -20.5 -73t-60 -57t-92.5 -22
q-30 0 -65 10.5t-35 31.5q0 8 4 14t9 6q3 0 18.5 -5.5t40.5 -5.5q55 0 85 30t30 72q0 36 -23.5 62t-62.5 26q-59 0 -91.5 -51.5t-32.5 -146.5q0 -81 34.5 -126.5t99.5 -45.5q80 0 132 52q3 3 8 3q8 0 16.5 -8t8.5 -17q0 -3 -2 -5.5t-2 -3.5q-34 -40 -80.5 -60.5t-99.5 -20.5
q-63 0 -110 29z" />
    <glyph glyph-name="Edotaccent" unicode="&#x116;" horiz-adv-x="551" 
d="M246.5 752.5q-22.5 23.5 -22.5 43.5q0 21 22.5 45t41.5 24t42 -24t23 -45q0 -20 -23 -43.5t-42 -23.5t-41.5 23.5zM471 -13q-7 7 -15.5 10t-22.5 3h-382l-11 29l20 5q33 10 44 25.5t11 54.5v355q0 54 -9 87t-31 63l-12 17l12 14h277q79 0 102 19l18 12l13 -12v-161
l-31 -11l-5 22q-12 49 -31 65t-66 16h-89q-35 0 -46.5 -14t-11.5 -56v-174h115q23 0 39 9t33 32l7 10l18 -10v-155l-30 -11l-6 23q-10 31 -30 41t-70 10h-76v-185q0 -29 4.5 -43.5t16.5 -19.5t37 -5h97q33 0 51 6.5t28.5 23.5t19.5 50l6 20l30 -9v-156l-17 -9z" />
    <glyph glyph-name="edotaccent" unicode="&#x117;" horiz-adv-x="479" 
d="M212 551.5q-23 24.5 -23 44.5q0 21 22.5 45t41.5 24q20 0 42.5 -24t22.5 -45t-22.5 -45t-42.5 -24q-18 0 -41 24.5zM139 16q-47 29 -73 81.5t-26 121.5q0 72 29 127t82.5 85t123.5 30q74 0 114.5 -39t40.5 -94q0 -38 -20.5 -73t-60 -57t-92.5 -22q-30 0 -65 10.5
t-35 31.5q0 8 4 14t9 6q3 0 18.5 -5.5t40.5 -5.5q55 0 85 30t30 72q0 36 -23.5 62t-62.5 26q-59 0 -91.5 -51.5t-32.5 -146.5q0 -81 34.5 -126.5t99.5 -45.5q80 0 132 52q3 3 8 3q8 0 16.5 -8t8.5 -17q0 -3 -2 -5.5t-2 -3.5q-34 -40 -80.5 -60.5t-99.5 -20.5q-63 0 -110 29z
" />
    <glyph glyph-name="Eogonek" unicode="&#x118;" horiz-adv-x="551" 
d="M288 -227.5q-28 25.5 -28 70.5q0 41 27 77t87 80h-323l-11 29l20 5q33 10 44 25.5t11 54.5v355q0 54 -9 87t-31 63l-12 17l12 14h277q79 0 102 19l18 12l13 -12v-161l-31 -11l-5 22q-12 49 -31 65t-66 16h-89q-35 0 -46.5 -14t-11.5 -56v-174h115q23 0 39 9t33 32l7 10
l18 -10v-155l-30 -11l-6 23q-10 31 -30 41t-70 10h-76v-185q0 -29 4.5 -43.5t16.5 -19.5t37 -5h97q33 0 51 6.5t28.5 23.5t19.5 50l6 20l30 -9v-156l-17 -9l-7 9q-12 12 -29 13q-56 -38 -82 -73t-26 -64q0 -26 13.5 -39.5t38.5 -13.5t53 15t51 42l31 -27q-38 -47 -77 -70
t-84 -23q-44 0 -72 25.5z" />
    <glyph glyph-name="eogonek" unicode="&#x119;" horiz-adv-x="479" 
d="M179.5 -223.5q-28.5 25.5 -28.5 70.5q0 37 22.5 69t71.5 71q-62 1 -108.5 30t-71.5 81.5t-25 120.5q0 72 29 127t82.5 85t123.5 30q74 0 114.5 -39t40.5 -94q0 -38 -20.5 -73t-60 -57t-92.5 -22q-30 0 -65 10.5t-35 31.5q0 8 4 14t9 6q3 0 18.5 -5.5t40.5 -5.5
q55 0 85 30t30 72q0 36 -23.5 62t-62.5 26q-59 0 -91.5 -51.5t-32.5 -146.5q0 -81 34.5 -126.5t99.5 -45.5q80 0 132 52q3 3 8 3q8 0 16.5 -8t8.5 -17q0 -3 -2 -5.5t-2 -3.5q-41 -47 -98 -67q-55 -37 -80 -71.5t-25 -63.5q0 -26 13.5 -40t37.5 -14q25 0 54 15.5t52 42.5
l29 -27q-38 -47 -76 -69.5t-83 -22.5t-73.5 25.5z" />
    <glyph glyph-name="Ecaron" unicode="&#x11a;" horiz-adv-x="551" 
d="M226 775.5q-33 41.5 -61 91.5l30 26l95 -78l95 78l28 -26q-27 -50 -60.5 -92t-50.5 -52h-25q-18 11 -51 52.5zM471 -13q-7 7 -15.5 10t-22.5 3h-382l-11 29l20 5q33 10 44 25.5t11 54.5v355q0 54 -9 87t-31 63l-12 17l12 14h277q79 0 102 19l18 12l13 -12v-161l-31 -11
l-5 22q-12 49 -31 65t-66 16h-89q-35 0 -46.5 -14t-11.5 -56v-174h115q23 0 39 9t33 32l7 10l18 -10v-155l-30 -11l-6 23q-10 31 -30 41t-70 10h-76v-185q0 -29 4.5 -43.5t16.5 -19.5t37 -5h97q33 0 51 6.5t28.5 23.5t19.5 50l6 20l30 -9v-156l-17 -9z" />
    <glyph glyph-name="ecaron" unicode="&#x11b;" horiz-adv-x="479" 
d="M191 575.5q-33 41.5 -61 91.5l30 26l94 -77l95 77l29 -26q-28 -50 -61.5 -92t-50.5 -52h-24q-18 11 -51 52.5zM139 16q-47 29 -73 81.5t-26 121.5q0 72 29 127t82.5 85t123.5 30q74 0 114.5 -39t40.5 -94q0 -38 -20.5 -73t-60 -57t-92.5 -22q-30 0 -65 10.5t-35 31.5
q0 8 4 14t9 6q3 0 18.5 -5.5t40.5 -5.5q55 0 85 30t30 72q0 36 -23.5 62t-62.5 26q-59 0 -91.5 -51.5t-32.5 -146.5q0 -81 34.5 -126.5t99.5 -45.5q80 0 132 52q3 3 8 3q8 0 16.5 -8t8.5 -17q0 -3 -2 -5.5t-2 -3.5q-34 -40 -80.5 -60.5t-99.5 -20.5q-63 0 -110 29z" />
    <glyph glyph-name="Gcircumflex" unicode="&#x11c;" horiz-adv-x="625" 
d="M207 742q28 49 61 90t51 52h24q17 -10 51 -51.5t61 -90.5l-29 -26l-95 75l-94 -75zM248.5 -234.5q-37.5 18.5 -56 48.5t-18.5 63q0 46 30.5 78t84.5 32q17 0 17 -9q0 -4 -13 -17.5t-22.5 -32.5t-9.5 -48q0 -37 25 -61t68 -24q60 0 89.5 45.5t29.5 148.5v86
q-73 -60 -160 -60q-92 0 -155 43t-94.5 117t-31.5 166q0 88 33.5 161t101 117t164.5 44q63 0 113 -18t78 -50.5t28 -73.5q0 -47 -27.5 -77t-69.5 -30q-13 0 -15.5 2t-2.5 10q0 3 7.5 15.5t12.5 28.5t5 38q0 47 -35.5 76t-93.5 29q-71 0 -116 -41t-65 -102t-20 -125
q0 -75 23 -137t66.5 -98t100.5 -36q92 0 153 61v46q0 41 -12.5 57.5t-47.5 26.5l-19 6l10 32h191l11 -16l-11 -16q-23 -30 -32.5 -64t-9.5 -88v-104q0 -268 -214 -268q-53 0 -90.5 18.5z" />
    <glyph glyph-name="gcircumflex" unicode="&#x11d;" horiz-adv-x="545" 
d="M168 540q28 50 61 91.5t51 52.5h25q17 -10 50.5 -52t61.5 -92l-29 -23l-96 73l-94 -73zM171 -234.5q-35 18.5 -52.5 48t-17.5 63.5q0 46 31 78t85 32q8 0 12 -2.5t4 -6.5t-12.5 -17.5t-22 -32.5t-9.5 -48q0 -36 21.5 -60.5t57.5 -24.5q56 0 82 46.5t26 124.5v143
q-37 -51 -76.5 -73t-82.5 -22q-44 0 -81.5 22t-59.5 66t-22 106q0 117 63.5 185t172.5 68q34 0 96 -11q10 -1 36.5 -5t48.5 -6l9 -11l-10 -17q-7 -10 -10 -17t-3 -19v-395q0 -111 -53.5 -172t-146.5 -61q-51 0 -86 18.5zM321.5 103q31.5 20 54.5 63v219q-39 26 -87 26
q-66 0 -103.5 -48.5t-37.5 -137.5q0 -73 30 -107.5t76 -34.5q36 0 67.5 20z" />
    <glyph glyph-name="Gbreve" unicode="&#x11e;" horiz-adv-x="625" 
d="M247.5 758.5q-31.5 32.5 -31.5 93.5h50q0 -27 18 -42t46 -15q27 0 44.5 15t17.5 42h49q0 -61 -31 -93.5t-80 -32.5q-51 0 -82.5 32.5zM248.5 -234.5q-37.5 18.5 -56 48.5t-18.5 63q0 46 30.5 78t84.5 32q17 0 17 -9q0 -4 -13 -17.5t-22.5 -32.5t-9.5 -48q0 -37 25 -61
t68 -24q60 0 89.5 45.5t29.5 148.5v86q-73 -60 -160 -60q-92 0 -155 43t-94.5 117t-31.5 166q0 88 33.5 161t101 117t164.5 44q63 0 113 -18t78 -50.5t28 -73.5q0 -47 -27.5 -77t-69.5 -30q-13 0 -15.5 2t-2.5 10q0 3 7.5 15.5t12.5 28.5t5 38q0 47 -35.5 76t-93.5 29
q-71 0 -116 -41t-65 -102t-20 -125q0 -75 23 -137t66.5 -98t100.5 -36q92 0 153 61v46q0 41 -12.5 57.5t-47.5 26.5l-19 6l10 32h191l11 -16l-11 -16q-23 -30 -32.5 -64t-9.5 -88v-104q0 -268 -214 -268q-53 0 -90.5 18.5z" />
    <glyph glyph-name="gbreve" unicode="&#x11f;" horiz-adv-x="545" 
d="M204.5 558q-31.5 33 -31.5 94h50q0 -26 18 -41.5t45 -15.5q26 0 44 15.5t18 41.5h49q0 -62 -30.5 -94.5t-80.5 -32.5t-81.5 33zM171 -234.5q-35 18.5 -52.5 48t-17.5 63.5q0 46 31 78t85 32q8 0 12 -2.5t4 -6.5t-12.5 -17.5t-22 -32.5t-9.5 -48q0 -36 21.5 -60.5
t57.5 -24.5q56 0 82 46.5t26 124.5v143q-37 -51 -76.5 -73t-82.5 -22q-44 0 -81.5 22t-59.5 66t-22 106q0 117 63.5 185t172.5 68q34 0 96 -11q10 -1 36.5 -5t48.5 -6l9 -11l-10 -17q-7 -10 -10 -17t-3 -19v-395q0 -111 -53.5 -172t-146.5 -61q-51 0 -86 18.5zM321.5 103
q31.5 20 54.5 63v219q-39 26 -87 26q-66 0 -103.5 -48.5t-37.5 -137.5q0 -73 30 -107.5t76 -34.5q36 0 67.5 20z" />
    <glyph glyph-name="Gdotaccent" unicode="&#x120;" horiz-adv-x="625" 
d="M288.5 752.5q-22.5 23.5 -22.5 43.5q0 21 22.5 45t41.5 24t42 -24t23 -45q0 -20 -23 -43.5t-42 -23.5t-41.5 23.5zM248.5 -234.5q-37.5 18.5 -56 48.5t-18.5 63q0 46 30.5 78t84.5 32q17 0 17 -9q0 -4 -13 -17.5t-22.5 -32.5t-9.5 -48q0 -37 25 -61t68 -24
q60 0 89.5 45.5t29.5 148.5v86q-73 -60 -160 -60q-92 0 -155 43t-94.5 117t-31.5 166q0 88 33.5 161t101 117t164.5 44q63 0 113 -18t78 -50.5t28 -73.5q0 -47 -27.5 -77t-69.5 -30q-13 0 -15.5 2t-2.5 10q0 3 7.5 15.5t12.5 28.5t5 38q0 47 -35.5 76t-93.5 29
q-71 0 -116 -41t-65 -102t-20 -125q0 -75 23 -137t66.5 -98t100.5 -36q92 0 153 61v46q0 41 -12.5 57.5t-47.5 26.5l-19 6l10 32h191l11 -16l-11 -16q-23 -30 -32.5 -64t-9.5 -88v-104q0 -268 -214 -268q-53 0 -90.5 18.5z" />
    <glyph glyph-name="gdotaccent" unicode="&#x121;" horiz-adv-x="545" 
d="M260 538.5q-15 11.5 -26 28t-11 29.5q0 21 22 45t41 24q20 0 43 -24t23 -45q0 -20 -23 -44.5t-43 -24.5q-11 0 -26 11.5zM171 -234.5q-35 18.5 -52.5 48t-17.5 63.5q0 46 31 78t85 32q8 0 12 -2.5t4 -6.5t-12.5 -17.5t-22 -32.5t-9.5 -48q0 -36 21.5 -60.5t57.5 -24.5
q56 0 82 46.5t26 124.5v143q-37 -51 -76.5 -73t-82.5 -22q-44 0 -81.5 22t-59.5 66t-22 106q0 117 63.5 185t172.5 68q34 0 96 -11q10 -1 36.5 -5t48.5 -6l9 -11l-10 -17q-7 -10 -10 -17t-3 -19v-395q0 -111 -53.5 -172t-146.5 -61q-51 0 -86 18.5zM321.5 103
q31.5 20 54.5 63v219q-39 26 -87 26q-66 0 -103.5 -48.5t-37.5 -137.5q0 -73 30 -107.5t76 -34.5q36 0 67.5 20z" />
    <glyph glyph-name="Gcommaaccent" unicode="&#x122;" horiz-adv-x="625" 
d="M267 785q0 25 18 52.5t56 68.5l35 38l27 -17l-42 -81q-9 -21 -9 -37q0 -20 19 -35l18 -10l4 -22l-17 -7q-24 -9 -50 -9q-59 0 -59 59zM248.5 -234.5q-37.5 18.5 -56 48.5t-18.5 63q0 46 30.5 78t84.5 32q17 0 17 -9q0 -4 -13 -17.5t-22.5 -32.5t-9.5 -48q0 -37 25 -61
t68 -24q60 0 89.5 45.5t29.5 148.5v86q-73 -60 -160 -60q-92 0 -155 43t-94.5 117t-31.5 166q0 88 33.5 161t101 117t164.5 44q63 0 113 -18t78 -50.5t28 -73.5q0 -47 -27.5 -77t-69.5 -30q-13 0 -15.5 2t-2.5 10q0 3 7.5 15.5t12.5 28.5t5 38q0 47 -35.5 76t-93.5 29
q-71 0 -116 -41t-65 -102t-20 -125q0 -75 23 -137t66.5 -98t100.5 -36q92 0 153 61v46q0 41 -12.5 57.5t-47.5 26.5l-19 6l10 32h191l11 -16l-11 -16q-23 -30 -32.5 -64t-9.5 -88v-104q0 -268 -214 -268q-53 0 -90.5 18.5z" />
    <glyph glyph-name="gcommaaccent" unicode="&#x123;" horiz-adv-x="545" 
d="M224 573q0 25 18 53t55 68l35 38l27 -17l-41 -81q-10 -27 -10 -37q0 -20 19 -34l18 -11l4 -22l-17 -7q-29 -9 -50 -9q-58 0 -58 59zM171 -234.5q-35 18.5 -52.5 48t-17.5 63.5q0 46 31 78t85 32q8 0 12 -2.5t4 -6.5t-12.5 -17.5t-22 -32.5t-9.5 -48q0 -36 21.5 -60.5
t57.5 -24.5q56 0 82 46.5t26 124.5v143q-37 -51 -76.5 -73t-82.5 -22q-44 0 -81.5 22t-59.5 66t-22 106q0 117 63.5 185t172.5 68q34 0 96 -11q10 -1 36.5 -5t48.5 -6l9 -11l-10 -17q-7 -10 -10 -17t-3 -19v-395q0 -111 -53.5 -172t-146.5 -61q-51 0 -86 18.5zM321.5 103
q31.5 20 54.5 63v219q-39 26 -87 26q-66 0 -103.5 -48.5t-37.5 -137.5q0 -73 30 -107.5t76 -34.5q36 0 67.5 20z" />
    <glyph glyph-name="Hcircumflex" unicode="&#x124;" horiz-adv-x="705" 
d="M229 742q28 50 60.5 90.5t51.5 51.5h23q17 -10 51.5 -51.5t61.5 -90.5l-29 -26l-94 75l-95 -75zM36 31l22 5q35 11 46 26.5t11 57.5v410q0 42 -11.5 58.5t-45.5 25.5l-22 5l11 31h199l12 -14l-12 -17q-23 -29 -32 -62.5t-9 -87.5v-112h296v173q0 41 -12 58t-47 26l-19 5
l11 31h197l14 -14l-14 -17q-22 -30 -31.5 -63.5t-9.5 -86.5v-355q0 -39 11.5 -54.5t44.5 -25.5l19 -5l-10 -29h-221l-11 31l19 5q36 11 47.5 26.5t11.5 57.5v183h-296v-189q0 -39 11 -54.5t44 -25.5l18 -5l-8 -29h-223z" />
    <glyph glyph-name="hcircumflex" unicode="&#x125;" horiz-adv-x="578" 
d="M3 742q28 49 61 90t51 52h25q17 -10 50.5 -51.5t60.5 -90.5l-28 -26l-95 75l-95 -75zM406 8q-16 23 -16 74v215q0 47 -18.5 71t-59.5 24q-39 0 -69 -31t-46.5 -87t-16.5 -129q0 -42 6.5 -68t23.5 -49l11 -14l-11 -14h-159l-11 28l20 5q23 4 30.5 18.5t7.5 49.5v510
q0 11 -4 15.5t-14 4.5h-41l-7 23q26 24 59.5 39.5t58.5 15.5q13 0 21.5 -8t8.5 -21v-354q23 59 71 97t100 38q66 0 93.5 -38.5t27.5 -125.5v-219q0 -31 26 -31q21 0 45 18l19 -22q-25 -27 -52.5 -42.5t-50.5 -15.5q-37 0 -53 23z" />
    <glyph glyph-name="Hbar" unicode="&#x126;" horiz-adv-x="705" 
d="M36 31l22 5q35 11 46 26.5t11 57.5v330h-88q0 41 36 56h52v24q0 42 -11.5 58.5t-45.5 25.5l-22 5l11 31h199l12 -14l-12 -17q-19 -24 -28.5 -50t-11.5 -63h295v24q0 41 -12 58t-47 26l-19 5l11 31h197l14 -14l-14 -17q-19 -25 -28.5 -51t-11.5 -62h87q0 -16 -9 -31.5
t-28 -24.5h-51v-336q0 -39 11.5 -54.5t44.5 -25.5l19 -5l-10 -29h-221l-11 31l19 5q36 11 47.5 26.5t11.5 57.5v183h-296v-189q0 -39 11 -54.5t44 -25.5l18 -5l-8 -29h-223zM205 357h296v93h-296v-93z" />
    <glyph glyph-name="hbar" unicode="&#x127;" horiz-adv-x="578" 
d="M406 8q-16 23 -16 74v215q0 47 -18.5 71t-59.5 24q-39 0 -69 -31t-46.5 -87t-16.5 -129q0 -42 6.5 -68t23.5 -49l11 -14l-11 -14h-159l-11 28l20 5q23 4 30.5 18.5t7.5 49.5v429h-85q0 37 18 51h67v30q0 11 -4 15.5t-14 4.5h-41l-7 23q26 24 59.5 39.5t58.5 15.5
q13 0 21.5 -8t8.5 -21v-99h167q0 -36 -19 -51h-148v-204q23 59 71 97t100 38q66 0 93.5 -38.5t27.5 -125.5v-219q0 -31 26 -31q21 0 45 18l19 -22q-25 -27 -52.5 -42.5t-50.5 -15.5q-37 0 -53 23z" />
    <glyph glyph-name="Itilde" unicode="&#x128;" horiz-adv-x="319" 
d="M13 764q29 40 60 63.5t57 23.5q13 0 22.5 -4t25.5 -13q9 -5 18.5 -9.5t18.5 -4.5q25 0 60 35l32 -28q-28 -41 -59 -64.5t-57 -23.5q-15 0 -25.5 4.5t-24.5 13.5q-8 5 -17 9.5t-18 4.5q-23 0 -61 -36zM36 31l22 5q35 11 46 26.5t11 57.5v410q0 42 -11.5 58.5t-45.5 25.5
l-22 5l11 31h199l12 -14l-12 -17q-23 -29 -32 -62.5t-9 -87.5v-355q0 -39 11 -54.5t44 -25.5l18 -5l-8 -29h-223z" />
    <glyph glyph-name="itilde" unicode="&#x129;" horiz-adv-x="263" 
d="M-17 564q30 41 60.5 64t56.5 23q22 0 48 -18q9 -5 18.5 -9.5t18.5 -4.5q25 0 62 36l30 -28q-28 -40 -59 -64t-56 -24q-15 0 -27 5t-24 13q-9 5 -17.5 9t-17.5 4q-12 0 -28 -8.5t-32 -26.5zM114.5 9.5q-16.5 22.5 -16.5 73.5v280q0 12 -4 17t-14 5h-41l-7 22
q26 24 59.5 39t58.5 15q13 0 21.5 -7.5t8.5 -19.5v-354q0 -31 27 -31q21 0 46 19l17 -23q-25 -26 -52.5 -42t-49.5 -16q-37 0 -53.5 22.5z" />
    <glyph glyph-name="Imacron" unicode="&#x12a;" horiz-adv-x="319" 
d="M31.5 800.5q5.5 19.5 18.5 31.5h244q0 -22 -5.5 -42t-17.5 -30h-245q0 21 5.5 40.5zM36 31l22 5q35 11 46 26.5t11 57.5v410q0 42 -11.5 58.5t-45.5 25.5l-22 5l11 31h199l12 -14l-12 -17q-23 -29 -32 -62.5t-9 -87.5v-355q0 -39 11 -54.5t44 -25.5l18 -5l-8 -29h-223z
" />
    <glyph glyph-name="imacron" unicode="&#x12b;" horiz-adv-x="263" 
d="M18.5 600q5.5 21 17.5 31h243q0 -21 -5 -41.5t-17 -30.5h-244q0 20 5.5 41zM114.5 9.5q-16.5 22.5 -16.5 73.5v280q0 12 -4 17t-14 5h-41l-7 22q26 24 59.5 39t58.5 15q13 0 21.5 -7.5t8.5 -19.5v-354q0 -31 27 -31q21 0 46 19l17 -23q-25 -26 -52.5 -42t-49.5 -16
q-37 0 -53.5 22.5z" />
    <glyph glyph-name="Ibreve" unicode="&#x12c;" horiz-adv-x="319" 
d="M78.5 758.5q-31.5 32.5 -31.5 93.5h50q0 -27 18 -42t46 -15q27 0 44.5 15t17.5 42h49q0 -61 -31 -93.5t-80 -32.5q-51 0 -82.5 32.5zM36 31l22 5q35 11 46 26.5t11 57.5v410q0 42 -11.5 58.5t-45.5 25.5l-22 5l11 31h199l12 -14l-12 -17q-23 -29 -32 -62.5t-9 -87.5v-355
q0 -39 11 -54.5t44 -25.5l18 -5l-8 -29h-223z" />
    <glyph glyph-name="ibreve" unicode="&#x12d;" horiz-adv-x="282" 
d="M59.5 557.5q-31.5 32.5 -31.5 94.5h50q0 -26 18 -41.5t46 -15.5q26 0 44 15.5t18 41.5h50q0 -61 -31.5 -94t-80.5 -33q-51 0 -82.5 32.5zM114.5 9.5q-16.5 22.5 -16.5 73.5v280q0 12 -4 17t-14 5h-41l-7 22q26 24 59.5 39t58.5 15q13 0 21.5 -7.5t8.5 -19.5v-354
q0 -31 27 -31q21 0 46 19l17 -23q-25 -26 -52.5 -42t-49.5 -16q-37 0 -53.5 22.5z" />
    <glyph glyph-name="Iogonek" unicode="&#x12e;" horiz-adv-x="319" 
d="M76 -227.5q-28 25.5 -28 70.5q0 41 27 77t87 80h-115l-11 31l22 5q35 11 46 26.5t11 57.5v410q0 42 -11.5 58.5t-45.5 25.5l-22 5l11 31h199l12 -14l-12 -17q-23 -29 -32 -62.5t-9 -87.5v-355q0 -39 11 -54.5t44 -25.5l18 -5l-8 -29h-40q-57 -38 -83 -73t-26 -64
q0 -26 14.5 -39.5t38.5 -13.5q25 0 53 15t51 42l31 -27q-38 -47 -77 -70t-84 -23q-44 0 -72 25.5z" />
    <glyph glyph-name="iogonek" unicode="&#x12f;" horiz-adv-x="282" 
d="M103 558q-20 21 -20 38t19.5 38t35.5 21q17 0 37 -21t20 -38t-20 -38t-37 -21q-15 0 -35 21zM58 -227.5q-28 25.5 -28 70.5q0 40 25 75t80 75q-20 8 -28.5 29.5t-8.5 60.5v280q0 12 -4 17t-14 5h-41l-7 22q26 24 59.5 39t58.5 15q13 0 21.5 -7.5t8.5 -19.5v-354
q0 -31 27 -31q21 0 46 19l17 -23q-24 -27 -57 -45q-57 -38 -83 -73t-26 -64q0 -26 14 -39.5t38 -13.5q25 0 53.5 15t51.5 42l30 -27q-38 -47 -77 -70t-83 -23q-45 0 -73 25.5z" />
    <glyph glyph-name="Idotaccent" unicode="&#x130;" horiz-adv-x="319" 
d="M117.5 752.5q-22.5 23.5 -22.5 43.5q0 21 22.5 45t41.5 24q20 0 42.5 -24t22.5 -45q0 -20 -22.5 -43.5t-42.5 -23.5q-19 0 -41.5 23.5zM36 31l22 5q35 11 46 26.5t11 57.5v410q0 42 -11.5 58.5t-45.5 25.5l-22 5l11 31h199l12 -14l-12 -17q-23 -29 -32 -62.5t-9 -87.5
v-355q0 -39 11 -54.5t44 -25.5l18 -5l-8 -29h-223z" />
    <glyph glyph-name="dotlessi" unicode="&#x131;" horiz-adv-x="282" 
d="M114.5 9.5q-16.5 22.5 -16.5 73.5v280q0 12 -4 17t-14 5h-41l-7 22q26 24 59.5 39t58.5 15q13 0 21.5 -7.5t8.5 -19.5v-354q0 -31 27 -31q21 0 46 19l17 -23q-25 -26 -52.5 -42t-49.5 -16q-37 0 -53.5 22.5z" />
    <glyph glyph-name="IJ" unicode="&#x132;" horiz-adv-x="744" 
d="M36 31l22 5q35 11 46 26.5t11 57.5v410q0 42 -11.5 58.5t-45.5 25.5l-22 5l11 31h199l12 -14l-12 -17q-23 -29 -32 -62.5t-9 -87.5v-355q0 -39 11 -54.5t44 -25.5l18 -5l-8 -29h-223zM377 5.5q-37 18.5 -55.5 48.5t-18.5 63q0 45 30 77.5t84 32.5q9 0 13.5 -3t4.5 -7
t-13 -18t-22 -32.5t-9 -47.5q0 -37 22 -61t60 -24q94 0 94 125v371q0 41 -12 58t-47 26l-20 5l11 31h197l13 -14l-13 -17q-22 -30 -31 -63t-9 -87v-255q0 -118 -50 -172.5t-139 -54.5q-53 0 -90 18.5z" />
    <glyph glyph-name="ij" unicode="&#x133;" horiz-adv-x="545" 
d="M103 558q-20 21 -20 38t19.5 38t35.5 21q17 0 37 -21t20 -38t-20 -38t-37 -21q-15 0 -35 21zM381 558q-20 21 -20 38t20 38t36 21q17 0 37 -21t20 -38t-20 -38t-37 -21q-16 0 -36 21zM114.5 9.5q-16.5 22.5 -16.5 73.5v280q0 12 -4 17t-14 5h-41l-7 22q26 24 59.5 39
t58.5 15q13 0 21.5 -7.5t8.5 -19.5v-354q0 -31 27 -31q21 0 46 19l17 -23q-25 -26 -52.5 -42t-49.5 -16q-37 0 -53.5 22.5zM213.5 -228q-31.5 25 -31.5 68q0 35 25.5 58.5t63.5 23.5q17 0 17 -10q0 -2 -7 -11t-12.5 -21.5t-5.5 -31.5q0 -28 14 -44.5t36 -16.5q27 0 45 24
t18 71v481q0 12 -4 17t-14 5h-40l-7 22q25 24 59 39t59 15q13 0 21 -7.5t8 -19.5v-482q0 -94 -41.5 -149.5t-122.5 -55.5q-49 0 -80.5 25z" />
    <glyph glyph-name="Jcircumflex" unicode="&#x134;" horiz-adv-x="425" 
d="M160 742q28 49 61 90t51 52h24q17 -10 51 -51.5t61 -90.5l-29 -26l-94 75l-95 -75zM56 5.5q-37 18.5 -55.5 48.5t-18.5 63q0 45 30.5 77.5t84.5 32.5q8 0 12.5 -3t4.5 -7t-13 -18t-22 -32.5t-9 -47.5q0 -37 22 -61t60 -24q95 0 95 125v371q0 41 -12 58t-47 26l-20 5
l11 31h197l13 -14l-13 -17q-22 -29 -30.5 -62.5t-8.5 -87.5v-255q0 -118 -50.5 -172.5t-140.5 -54.5q-53 0 -90 18.5z" />
    <glyph glyph-name="jcircumflex" unicode="&#x135;" horiz-adv-x="264" 
d="M11 540q28 50 61 91.5t51 52.5h23q17 -10 51 -52t62 -92l-30 -23l-95 73l-94 -73zM-69 -228q-32 25 -32 68q0 35 25.5 58.5t63.5 23.5q17 0 17 -10q0 -2 -7 -11t-12.5 -21.5t-5.5 -31.5q0 -28 14 -44.5t36 -16.5q27 0 45.5 24t18.5 71v481q0 12 -4 17t-14 5h-41l-7 22
q26 24 59.5 39t58.5 15q13 0 21.5 -7.5t8.5 -19.5v-482q0 -94 -41.5 -149.5t-122.5 -55.5q-49 0 -81 25z" />
    <glyph glyph-name="Kcommaaccent" unicode="&#x136;" horiz-adv-x="605" 
d="M36 31l22 5q35 11 46 26.5t11 57.5v410q0 42 -11.5 58.5t-45.5 25.5l-22 5l11 31h199l12 -14l-12 -17q-23 -29 -32 -62.5t-9 -87.5v-355q0 -39 11 -54.5t44 -25.5l18 -5l-8 -29h-223zM437.5 9q-27.5 22 -51.5 67l-109 196q-9 17 -18.5 25t-28.5 16q-3 2 -3 10q0 22 18 22
h21l124 182q11 19 14.5 29.5t3.5 22.5t-5.5 24.5t-6.5 15.5l-7 17l16 14h165l11 -31l-21 -5q-22 -5 -38.5 -15.5t-32.5 -33.5l-163 -236q40 -18 63 -58l115 -207q11 -16 17.5 -21.5t17.5 -5.5q19 0 35 13l15 -27q-36 -36 -83 -36q-41 0 -68.5 22zM254 -247l41 81
q11 25 11 37q0 20 -20 34l-18 11l-4 21l16 7q27 10 50 10q27 0 43.5 -14.5t16.5 -45.5q0 -26 -18 -52t-57 -69l-35 -38z" />
    <glyph glyph-name="kcommaaccent" unicode="&#x137;" horiz-adv-x="528" 
d="M367.5 -2.5q-17.5 10.5 -30 29t-32.5 56.5l-68 128l-8 3q-17 4 -17 18q0 6 3.5 12t10.5 6q3 0 18 -4.5t39 -4.5q49 0 77 29t28 66q0 27 -16 45.5t-46 18.5q-67 0 -106.5 -70t-39.5 -185q0 -43 6.5 -69t23.5 -48l11 -14l-11 -14h-159l-11 28l20 5q23 4 30.5 18.5t7.5 49.5
v510q0 11 -4 15.5t-14 4.5h-41l-7 23q26 24 59.5 39.5t58.5 15.5q13 0 21.5 -8t8.5 -21v-354q23 60 68.5 97.5t96.5 37.5q60 0 92.5 -34t32.5 -83q0 -51 -36 -91.5t-98 -47.5l69 -135q14 -25 38 -25q13 0 26 6.5t22 16.5l20 -23q-43 -58 -98 -58q-28 0 -45.5 10.5zM196 -247
l42 81q10 23 10 37q0 19 -19 34l-18 11l-4 21l17 7q25 10 49 10q59 0 59 -60q0 -26 -18 -53t-55 -68l-35 -38z" />
    <glyph glyph-name="kgreenlandic" unicode="&#x138;" horiz-adv-x="511" 
d="M28 28l18 6q33 9 43.5 23.5t10.5 52.5v230q0 38 -10.5 53t-43.5 24l-18 6l9 27h181l11 -12l-11 -15q-21 -28 -29 -59t-8 -82v-178q0 -36 9.5 -49t40.5 -23l18 -5l-9 -27h-203zM363.5 7q-24.5 20 -50.5 62l-62 105q-10 16 -18.5 23t-23.5 14q-4 2 -4 11q0 18 16 18h16
l72 99q18 28 18 52q0 16 -7 31l-7 15l15 13h148l9 -28l-17 -5q-20 -5 -36 -15.5t-31 -30.5l-103 -142q39 -20 56 -56l70 -114q9 -13 15 -19t15 -6q18 0 33 12l15 -25q-33 -34 -77 -34q-37 0 -61.5 20z" />
    <glyph glyph-name="Lacute" unicode="&#x139;" horiz-adv-x="497" 
d="M66 747l142 142q17 -9 27.5 -24t10.5 -33q0 -21 -12 -37t-39 -29l-102 -50zM451 -13q-5 7 -14 10t-25 3h-361l-11 29l20 5q33 10 44 25.5t11 54.5v416q0 42 -11.5 58.5t-45.5 25.5l-22 5l11 31h199l12 -14l-12 -17q-23 -29 -32 -62.5t-9 -87.5v-349q0 -29 4.5 -43.5
t16.5 -19.5t37 -5h79q47 0 66.5 16t31.5 64l5 20l32 -9v-156l-19 -9z" />
    <glyph glyph-name="lacute" unicode="&#x13a;" horiz-adv-x="272" 
d="M26 747l141 142q17 -9 28 -24t11 -33q0 -21 -12 -37t-39 -29l-103 -50zM104.5 9.5q-16.5 22.5 -16.5 73.5v528q0 11 -4 15.5t-14 4.5h-39l-9 23q26 24 60 39.5t61 15.5q13 0 21 -8t8 -21l-2 -600q0 -15 7 -23t20 -8q25 0 45 19l18 -23q-23 -26 -51 -42t-50 -16
q-38 0 -54.5 22.5z" />
    <glyph glyph-name="Lcommaaccent" unicode="&#x13b;" horiz-adv-x="497" 
d="M451 -13q-5 7 -14 10t-25 3h-361l-11 29l20 5q33 10 44 25.5t11 54.5v416q0 42 -11.5 58.5t-45.5 25.5l-22 5l11 31h199l12 -14l-12 -17q-23 -29 -32 -62.5t-9 -87.5v-349q0 -29 4.5 -43.5t16.5 -19.5t37 -5h79q47 0 66.5 16t31.5 64l5 20l32 -9v-156l-19 -9zM198 -247
l42 81q10 23 10 37q0 20 -20 34l-17 11l-4 21l17 7q25 10 49 10q27 0 43.5 -14.5t16.5 -45.5q0 -26 -18 -52.5t-56 -68.5l-35 -38z" />
    <glyph glyph-name="lcommaaccent" unicode="&#x13c;" horiz-adv-x="272" 
d="M104.5 9.5q-16.5 22.5 -16.5 73.5v528q0 11 -4 15.5t-14 4.5h-39l-9 23q26 24 60 39.5t61 15.5q13 0 21 -8t8 -21l-2 -600q0 -15 7 -23t20 -8q25 0 45 19l18 -23q-23 -26 -51 -42t-50 -16q-38 0 -54.5 22.5zM68 -247l42 81q10 23 10 37q0 19 -19 34l-18 11l-4 21l17 7
q25 10 50 10q27 0 43 -14.5t16 -45.5q0 -26 -18 -52.5t-56 -68.5l-35 -38z" />
    <glyph glyph-name="Lcaron" unicode="&#x13d;" horiz-adv-x="497" 
d="M297 558l42 82q10 20 10 38t-20 32l-17 12l-4 21l16 6q29 11 50 11q27 0 43.5 -14.5t16.5 -46.5q0 -25 -18 -51t-57 -69l-35 -39zM451 -13q-5 7 -14 10t-25 3h-361l-11 29l20 5q33 10 44 25.5t11 54.5v416q0 42 -11.5 58.5t-45.5 25.5l-22 5l11 31h199l12 -14l-12 -17
q-23 -29 -32 -62.5t-9 -87.5v-349q0 -29 4.5 -43.5t16.5 -19.5t37 -5h79q47 0 66.5 16t31.5 64l5 20l32 -9v-156l-19 -9z" />
    <glyph glyph-name="lcaron" unicode="&#x13e;" horiz-adv-x="319" 
d="M207 558l41 82q11 22 11 38q0 18 -20 32l-17 12l-5 21l16 6q29 11 50 11q27 0 43.5 -14.5t16.5 -46.5q0 -25 -18 -52t-55 -68l-37 -39zM104.5 9.5q-16.5 22.5 -16.5 73.5v528q0 11 -4 15.5t-14 4.5h-39l-9 23q26 24 60 39.5t61 15.5q13 0 21 -8t8 -21l-2 -600
q0 -15 7 -23t20 -8q25 0 45 19l18 -23q-23 -26 -51 -42t-50 -16q-38 0 -54.5 22.5z" />
    <glyph glyph-name="Ldot" unicode="&#x13f;" horiz-adv-x="497" 
d="M451 -13q-5 7 -14 10t-25 3h-361l-11 29l20 5q33 10 44 25.5t11 54.5v416q0 42 -11.5 58.5t-45.5 25.5l-22 5l11 31h199l12 -14l-12 -17q-23 -29 -32 -62.5t-9 -87.5v-349q0 -29 4.5 -43.5t16.5 -19.5t37 -5h79q47 0 66.5 16t31.5 64l5 20l32 -9v-156l-19 -9zM328 345
q-19 21 -19 38q0 18 19 38.5t35 20.5q17 0 37.5 -20.5t20.5 -38.5q0 -17 -20.5 -38t-37.5 -21q-16 0 -35 21z" />
    <glyph glyph-name="ldot" unicode="&#x140;" horiz-adv-x="330" 
d="M104.5 9.5q-16.5 22.5 -16.5 73.5v528q0 11 -4 15.5t-14 4.5h-39l-9 23q26 24 60 39.5t61 15.5q13 0 21 -8t8 -21l-2 -600q0 -15 7 -23t20 -8q25 0 45 19l18 -23q-23 -26 -51 -42t-50 -16q-38 0 -54.5 22.5zM237.5 345q-19.5 21 -19.5 38q0 18 19.5 38.5t35.5 20.5
q17 0 37 -20.5t20 -38.5q0 -17 -20 -38t-37 -21q-16 0 -35.5 21z" />
    <glyph glyph-name="Lslash" unicode="&#x141;" horiz-adv-x="497" 
d="M451 -13q-5 7 -14 10t-25 3h-361l-11 29l20 5q33 10 44 25.5t11 54.5v153l-93 -45q0 38 5 56t18 25l70 35v192q0 42 -11.5 58.5t-45.5 25.5l-22 5l11 31h199l12 -14l-12 -17q-23 -29 -32 -62.5t-9 -87.5v-86l94 47q0 -41 -4.5 -58.5t-18.5 -23.5l-71 -36v-192
q0 -29 4.5 -43.5t16.5 -19.5t37 -5h79q47 0 66.5 16t31.5 64l5 20l32 -9v-156l-19 -9z" />
    <glyph glyph-name="lslash" unicode="&#x142;" horiz-adv-x="272" 
d="M104.5 9.5q-16.5 22.5 -16.5 73.5v185l-93 -46q0 39 4.5 56.5t17.5 24.5l71 35v273q0 11 -4 15.5t-14 4.5h-39l-9 23q26 24 60 39.5t61 15.5q13 0 21 -8t8 -21l-2 -301l101 51q0 -41 -4.5 -58.5t-18.5 -23.5l-78 -39v-229q0 -15 7 -23t20 -8q25 0 45 19l18 -23
q-23 -26 -51 -42t-50 -16q-38 0 -54.5 22.5z" />
    <glyph glyph-name="Nacute" unicode="&#x143;" horiz-adv-x="705" 
d="M287 747l141 142q17 -9 28 -24t11 -33q0 -21 -12 -37t-39 -29l-103 -50zM31 31l21 5q35 11 46 26.5t11 57.5v410q0 42 -11.5 58.5t-45.5 25.5l-21 5l11 31h146l346 -513v393q0 41 -12 58t-46 26l-22 5l13 31h170l13 -14l-13 -17q-22 -29 -31 -62.5t-9 -87.5v-389
q0 -28 13 -49l11 -16l-11 -15h-91l-345 513v-331q0 -56 8.5 -89t31.5 -62l12 -16l-12 -15h-172z" />
    <glyph glyph-name="nacute" unicode="&#x144;" horiz-adv-x="582" 
d="M233 547l141 141q38 -18 38 -57q0 -40 -50 -65l-102 -49zM410 9.5q-16 22.5 -16 73.5v216q0 46 -20 69.5t-59 23.5t-68.5 -31t-45.5 -87t-16 -129q0 -42 6.5 -68t22.5 -49l11 -14l-11 -14h-159l-9 28l17 5q24 4 31.5 18.5t7.5 49.5v254q0 11 -4 15.5t-14 4.5h-39l-9 24
q26 24 60 39t60 15q13 0 21 -8t8 -20v-99q23 59 70 97t99 38q63 0 92.5 -39t29.5 -123v-219q0 -31 27 -31q22 0 45 19l17 -23q-23 -26 -51 -42t-51 -16q-37 0 -53 22.5z" />
    <glyph glyph-name="Ncommaaccent" unicode="&#x145;" horiz-adv-x="705" 
d="M31 31l21 5q35 11 46 26.5t11 57.5v410q0 42 -11.5 58.5t-45.5 25.5l-21 5l11 31h146l346 -513v393q0 41 -12 58t-46 26l-22 5l13 31h170l13 -14l-13 -17q-22 -29 -31 -62.5t-9 -87.5v-389q0 -28 13 -49l11 -16l-11 -15h-91l-345 513v-331q0 -56 8.5 -89t31.5 -62l12 -16
l-12 -15h-172zM283 -247l42 81q11 25 11 37q0 19 -21 34l-17 11l-4 21l17 7q25 10 49 10q27 0 43.5 -14.5t16.5 -45.5q0 -26 -18 -52.5t-56 -68.5l-35 -38z" />
    <glyph glyph-name="ncommaaccent" unicode="&#x146;" horiz-adv-x="582" 
d="M410 9.5q-16 22.5 -16 73.5v216q0 46 -20 69.5t-59 23.5t-68.5 -31t-45.5 -87t-16 -129q0 -42 6.5 -68t22.5 -49l11 -14l-11 -14h-159l-9 28l17 5q24 4 31.5 18.5t7.5 49.5v254q0 11 -4 15.5t-14 4.5h-39l-9 24q26 24 60 39t60 15q13 0 21 -8t8 -20v-99q23 59 70 97
t99 38q63 0 92.5 -39t29.5 -123v-219q0 -31 27 -31q22 0 45 19l17 -23q-23 -26 -51 -42t-51 -16q-37 0 -53 22.5zM224 -247l41 81q10 27 10 37q0 20 -19 34l-18 11l-5 21l17 7q27 10 50 10q27 0 43 -14.5t16 -45.5q0 -26 -18 -53t-55 -68l-36 -38z" />
    <glyph glyph-name="Ncaron" unicode="&#x147;" horiz-adv-x="705" 
d="M290 775q-32 41 -61 92l30 26l95 -78l94 78l29 -26q-27 -50 -61.5 -92t-51.5 -52h-23q-19 11 -51 52zM31 31l21 5q35 11 46 26.5t11 57.5v410q0 42 -11.5 58.5t-45.5 25.5l-21 5l11 31h146l346 -513v393q0 41 -12 58t-46 26l-22 5l13 31h170l13 -14l-13 -17
q-22 -29 -31 -62.5t-9 -87.5v-389q0 -28 13 -49l11 -16l-11 -15h-91l-345 513v-331q0 -56 8.5 -89t31.5 -62l12 -16l-12 -15h-172z" />
    <glyph glyph-name="ncaron" unicode="&#x148;" horiz-adv-x="582" 
d="M229 575.5q-33 41.5 -61 91.5l30 26l94 -77l96 77l29 -26q-28 -50 -61.5 -92t-50.5 -52h-25q-18 11 -51 52.5zM410 9.5q-16 22.5 -16 73.5v216q0 46 -20 69.5t-59 23.5t-68.5 -31t-45.5 -87t-16 -129q0 -42 6.5 -68t22.5 -49l11 -14l-11 -14h-159l-9 28l17 5
q24 4 31.5 18.5t7.5 49.5v254q0 11 -4 15.5t-14 4.5h-39l-9 24q26 24 60 39t60 15q13 0 21 -8t8 -20v-99q23 59 70 97t99 38q63 0 92.5 -39t29.5 -123v-219q0 -31 27 -31q22 0 45 19l17 -23q-23 -26 -51 -42t-51 -16q-37 0 -53 22.5z" />
    <glyph glyph-name="napostrophe" unicode="&#x149;" horiz-adv-x="582" 
d="M-32 437l42 81q10 21 10 37q0 18 -20 34l-18 11l-3 21l16 7q27 10 50 10q59 0 59 -60q0 -25 -18 -52.5t-56 -68.5l-35 -38zM401 9.5q-16 22.5 -16 73.5v216q0 46 -20 69.5t-58 23.5q-39 0 -68.5 -31t-46 -87t-16.5 -129q0 -42 6.5 -67.5t22.5 -49.5l10 -14l-10 -14h-159
l-10 28l18 5q23 4 31 18.5t8 49.5v254q0 11 -4 15.5t-14 4.5h-40l-8 24q27 24 60 39t59 15q13 0 21.5 -8t8.5 -20v-99q23 60 70 97.5t99 37.5q63 0 92.5 -39t29.5 -123v-219q0 -31 26 -31q22 0 45 19l18 -23q-24 -27 -51.5 -42.5t-50.5 -15.5q-37 0 -53 22.5z" />
    <glyph glyph-name="Eng" unicode="&#x14a;" horiz-adv-x="705" 
d="M352 -228q-32 25 -32 68q0 35 25 58.5t64 23.5q18 0 18 -10q0 -2 -7.5 -11t-13 -21.5t-5.5 -31.5q0 -28 14.5 -44.5t35.5 -16.5q28 0 46.5 24t18.5 71v123l-342 508v-331q0 -56 8.5 -89t31.5 -62l12 -16l-12 -15h-172l-11 31l21 5q35 11 46 26.5t11 57.5v410
q0 42 -11.5 58.5t-45.5 25.5l-21 5l11 31h146l346 -513v393q0 41 -12 58t-46 26l-22 5l13 31h170l13 -14l-13 -17q-22 -29 -31 -62.5t-9 -87.5v-517q0 -94 -41 -149.5t-122 -55.5q-50 0 -82 25z" />
    <glyph glyph-name="eng" unicode="&#x14b;" horiz-adv-x="563" 
d="M232 -228q-32 25 -32 68q0 35 25 58.5t65 23.5q17 0 17 -10q0 -2 -7.5 -11t-13.5 -21.5t-6 -31.5q0 -28 14 -44.5t36 -16.5q27 0 45.5 24t18.5 71v417q0 46 -20 69.5t-59 23.5t-68.5 -31t-45.5 -87t-16 -129q0 -42 6.5 -68t22.5 -49l11 -14l-11 -14h-159l-9 28l17 5
q24 4 31.5 18.5t7.5 49.5v254q0 11 -4 15.5t-14 4.5h-39l-9 24q26 24 60 39t60 15q13 0 21 -8t8 -20v-99q23 59 70 97t99 38q63 0 92.5 -39t29.5 -123v-347q0 -95 -41 -150t-122 -55q-49 0 -81 25z" />
    <glyph glyph-name="Omacron" unicode="&#x14c;" horiz-adv-x="663" 
d="M204 800.5q6 19.5 19 31.5h244q0 -22 -6 -42t-19 -30h-244q0 21 6 40.5zM166 31.5q-67 44.5 -100.5 120.5t-33.5 172t33.5 173t100.5 121.5t165 44.5t165.5 -44.5t101.5 -121.5t34 -173t-34 -172t-101.5 -120.5t-165.5 -44.5t-165 44.5zM437.5 77.5q46.5 37.5 71.5 101.5
t25 142q0 66 -19 132.5t-63 112.5t-115 46q-64 0 -111 -39.5t-71.5 -107t-24.5 -149.5q0 -120 51.5 -198t145.5 -78q64 0 110.5 37.5z" />
    <glyph glyph-name="omacron" unicode="&#x14d;" horiz-adv-x="523" 
d="M134.5 600q5.5 21 17.5 31h244q0 -21 -5.5 -41.5t-17.5 -30.5h-244q0 20 5.5 41zM100 51.5q-60 64.5 -60 173.5t60 172.5t162 63.5q67 0 117 -29t77 -82t27 -125t-27.5 -126t-77.5 -83t-116 -29q-102 0 -162 64.5zM352.5 87.5q35.5 51.5 35.5 135.5q0 43 -12 86.5
t-39.5 74t-71.5 30.5q-59 0 -94.5 -52t-35.5 -138t33.5 -137t91.5 -51q57 0 92.5 51.5z" />
    <glyph glyph-name="Obreve" unicode="&#x14e;" horiz-adv-x="663" 
d="M251 758.5q-32 32.5 -32 93.5h51q0 -27 18 -42t46 -15q27 0 44 15t17 42h49q0 -61 -30.5 -93.5t-79.5 -32.5q-51 0 -83 32.5zM166 31.5q-67 44.5 -100.5 120.5t-33.5 172t33.5 173t100.5 121.5t165 44.5t165.5 -44.5t101.5 -121.5t34 -173t-34 -172t-101.5 -120.5
t-165.5 -44.5t-165 44.5zM437.5 77.5q46.5 37.5 71.5 101.5t25 142q0 66 -19 132.5t-63 112.5t-115 46q-64 0 -111 -39.5t-71.5 -107t-24.5 -149.5q0 -120 51.5 -198t145.5 -78q64 0 110.5 37.5z" />
    <glyph glyph-name="obreve" unicode="&#x14f;" horiz-adv-x="523" 
d="M179.5 557.5q-31.5 32.5 -31.5 94.5h50q0 -26 18.5 -41.5t45.5 -15.5q26 0 44 15.5t18 41.5h50q0 -61 -31.5 -94t-80.5 -33q-51 0 -82.5 32.5zM100 51.5q-60 64.5 -60 173.5t60 172.5t162 63.5q67 0 117 -29t77 -82t27 -125t-27.5 -126t-77.5 -83t-116 -29
q-102 0 -162 64.5zM352.5 87.5q35.5 51.5 35.5 135.5q0 43 -12 86.5t-39.5 74t-71.5 30.5q-59 0 -94.5 -52t-35.5 -138t33.5 -137t91.5 -51q57 0 92.5 51.5z" />
    <glyph glyph-name="Ohungarumlaut" unicode="&#x150;" horiz-adv-x="663" 
d="M167 747l141 142q17 -9 27.5 -24t10.5 -33q0 -40 -50 -66l-104 -50zM354 747l141 142q18 -8 28.5 -23.5t10.5 -33.5q0 -21 -11.5 -37t-39.5 -29l-102 -50zM166 31.5q-67 44.5 -100.5 120.5t-33.5 172t33.5 173t100.5 121.5t165 44.5t165.5 -44.5t101.5 -121.5t34 -173
t-34 -172t-101.5 -120.5t-165.5 -44.5t-165 44.5zM437.5 77.5q46.5 37.5 71.5 101.5t25 142q0 66 -19 132.5t-63 112.5t-115 46q-64 0 -111 -39.5t-71.5 -107t-24.5 -149.5q0 -120 51.5 -198t145.5 -78q64 0 110.5 37.5z" />
    <glyph glyph-name="ohungarumlaut" unicode="&#x151;" horiz-adv-x="523" 
d="M106 547l140 141q39 -18 39 -57q0 -20 -12 -36t-39 -29l-102 -49zM294 547l142 141q38 -20 38 -57q0 -40 -52 -65l-102 -49zM100 51.5q-60 64.5 -60 173.5t60 172.5t162 63.5q67 0 117 -29t77 -82t27 -125t-27.5 -126t-77.5 -83t-116 -29q-102 0 -162 64.5zM352.5 87.5
q35.5 51.5 35.5 135.5q0 43 -12 86.5t-39.5 74t-71.5 30.5q-59 0 -94.5 -52t-35.5 -138t33.5 -137t91.5 -51q57 0 92.5 51.5z" />
    <glyph glyph-name="OE" unicode="&#x152;" horiz-adv-x="866" 
d="M784 -13q-9 13 -38 13h-415q-98 0 -165 42.5t-100.5 116t-33.5 165.5t33.5 166t100.5 117t165 43h334q79 0 103 19l16 12l15 -12v-161l-31 -11l-5 22q-9 34 -19.5 50.5t-28.5 23.5t-51 7h-88q-35 0 -46 -13.5t-11 -56.5v-174h114q23 0 39 9t32 32l8 10l17 -10v-155
l-30 -11l-5 23q-8 31 -28.5 41t-70.5 10h-76v-185q0 -30 4.5 -44t16 -19t36.5 -5h98q33 0 50.5 6.5t28 23.5t18.5 50l7 20l31 -9v-156l-18 -9zM429 63v510q-54 38 -108 38q-99 0 -145 -84.5t-46 -202.5q0 -79 25.5 -143.5t73 -102.5t111.5 -38q45 0 89 23z" />
    <glyph glyph-name="oe" unicode="&#x153;" horiz-adv-x="827" 
d="M100 51.5q-60 64.5 -60 173.5t60 172.5t162 63.5q57 0 102 -21.5t74 -61.5q32 40 79.5 61.5t106.5 21.5q74 0 114.5 -39t40.5 -94q0 -38 -20.5 -73t-60 -57t-93.5 -22q-29 0 -64 10.5t-35 31.5q0 8 4.5 14t9.5 6q3 0 18 -5.5t40 -5.5q55 0 85 30t30 72q0 36 -23.5 62
t-63.5 26q-59 0 -91 -51t-32 -147q0 -81 34.5 -126.5t99.5 -45.5q80 0 132 52q3 3 9 3q8 0 15.5 -8t7.5 -17q0 -3 -3 -9q-34 -40 -80 -60.5t-99 -20.5t-95 20.5t-69 57.5q-30 -37 -74 -57.5t-99 -20.5q-102 0 -162 64.5zM352.5 87.5q35.5 51.5 35.5 135.5q0 43 -12 86.5
t-39.5 74t-71.5 30.5q-59 0 -94.5 -52t-35.5 -138t33.5 -137t91.5 -51q57 0 92.5 51.5z" />
    <glyph glyph-name="Racute" unicode="&#x154;" horiz-adv-x="579" 
d="M202 747l142 142q17 -9 28 -24t11 -33q0 -21 -12.5 -37t-39.5 -29l-102 -50zM409.5 11q-27.5 24 -55.5 83l-69 145q-8 18 -19 26t-42 18q-17 9 -17 23q0 20 15 20q4 0 14 -3t29 -3q67 0 105.5 38t38.5 103q0 69 -41 110.5t-112 41.5q-34 0 -52 -11t-18 -32v-388
q0 -55 9 -87.5t33 -63.5l11 -16l-11 -15h-199l-11 31l21 5q34 9 46 26t12 58v448q0 11 -4.5 16t-15.5 5h-52l-11 34q43 17 107.5 28.5t117.5 11.5q125 0 194.5 -52t69.5 -146q0 -71 -39 -119.5t-108 -65.5q24 -17 38 -44l84 -172q12 -27 35 -27q17 0 34 13l16 -27
q-41 -36 -84 -36q-42 0 -69.5 24z" />
    <glyph glyph-name="racute" unicode="&#x155;" horiz-adv-x="396" 
d="M155 547l140 141q39 -19 39 -57q0 -39 -51 -65l-102 -49zM46 28l17 5q24 4 31.5 18.5t7.5 49.5v254q0 11 -4 15.5t-14 4.5h-39l-9 24q26 24 60 39t60 15q13 0 21 -8t8 -20v-99h5q16 61 48.5 98t70.5 37t62.5 -24.5t24.5 -67.5q0 -34 -25 -57t-63 -23q-18 0 -18 9
q0 3 7 14t12 22t5 26q0 17 -8 26.5t-21 9.5q-21 0 -44 -26t-39.5 -83t-16.5 -145q0 -41 6.5 -66.5t22.5 -47.5l11 -14l-11 -14h-159z" />
    <glyph glyph-name="Rcommaaccent" unicode="&#x156;" horiz-adv-x="579" 
d="M409.5 11q-27.5 24 -55.5 83l-69 145q-8 18 -19 26t-42 18q-17 9 -17 23q0 20 15 20q4 0 14 -3t29 -3q67 0 105.5 38t38.5 103q0 69 -41 110.5t-112 41.5q-34 0 -52 -11t-18 -32v-388q0 -55 9 -87.5t33 -63.5l11 -16l-11 -15h-199l-11 31l21 5q34 9 46 26t12 58v448
q0 11 -4.5 16t-15.5 5h-52l-11 34q43 17 107.5 28.5t117.5 11.5q125 0 194.5 -52t69.5 -146q0 -71 -39 -119.5t-108 -65.5q24 -17 38 -44l84 -172q12 -27 35 -27q17 0 34 13l16 -27q-41 -36 -84 -36q-42 0 -69.5 24zM223 -247l41 81q10 23 10 37q0 20 -19 34l-18 11l-5 21
l17 7q27 10 50 10q27 0 43 -14.5t16 -45.5q0 -26 -18 -53t-55 -68l-36 -38z" />
    <glyph glyph-name="rcommaaccent" unicode="&#x157;" horiz-adv-x="396" 
d="M46 28l17 5q24 4 31.5 18.5t7.5 49.5v254q0 11 -4 15.5t-14 4.5h-39l-9 24q26 24 60 39t60 15q13 0 21 -8t8 -20v-99h5q16 61 48.5 98t70.5 37t62.5 -24.5t24.5 -67.5q0 -34 -25 -57t-63 -23q-18 0 -18 9q0 3 7 14t12 22t5 26q0 17 -8 26.5t-21 9.5q-21 0 -44 -26
t-39.5 -83t-16.5 -145q0 -41 6.5 -66.5t22.5 -47.5l11 -14l-11 -14h-159zM61 -247l41 81q10 27 10 37q0 19 -19 34l-18 11l-5 21l17 7q27 10 50 10q27 0 43 -14.5t16 -45.5q0 -26 -18 -53t-55 -68l-36 -38z" />
    <glyph glyph-name="Rcaron" unicode="&#x158;" horiz-adv-x="579" 
d="M189 775.5q-33 41.5 -61 91.5l30 26l95 -78l94 78l29 -26q-27 -49 -61 -91.5t-51 -52.5h-24q-18 11 -51 52.5zM409.5 11q-27.5 24 -55.5 83l-69 145q-8 18 -19 26t-42 18q-17 9 -17 23q0 20 15 20q4 0 14 -3t29 -3q67 0 105.5 38t38.5 103q0 69 -41 110.5t-112 41.5
q-34 0 -52 -11t-18 -32v-388q0 -55 9 -87.5t33 -63.5l11 -16l-11 -15h-199l-11 31l21 5q34 9 46 26t12 58v448q0 11 -4.5 16t-15.5 5h-52l-11 34q43 17 107.5 28.5t117.5 11.5q125 0 194.5 -52t69.5 -146q0 -71 -39 -119.5t-108 -65.5q24 -17 38 -44l84 -172q12 -27 35 -27
q17 0 34 13l16 -27q-41 -36 -84 -36q-42 0 -69.5 24z" />
    <glyph glyph-name="rcaron" unicode="&#x159;" horiz-adv-x="396" 
d="M156 575.5q-33 41.5 -61 91.5l30 26l93 -77l95 77l30 -26q-28 -50 -62 -92t-51 -52h-23q-18 11 -51 52.5zM46 28l17 5q24 4 31.5 18.5t7.5 49.5v254q0 11 -4 15.5t-14 4.5h-39l-9 24q26 24 60 39t60 15q13 0 21 -8t8 -20v-99h5q16 61 48.5 98t70.5 37t62.5 -24.5
t24.5 -67.5q0 -34 -25 -57t-63 -23q-18 0 -18 9q0 3 7 14t12 22t5 26q0 17 -8 26.5t-21 9.5q-21 0 -44 -26t-39.5 -83t-16.5 -145q0 -41 6.5 -66.5t22.5 -47.5l11 -14l-11 -14h-159z" />
    <glyph glyph-name="Sacute" unicode="&#x15a;" horiz-adv-x="518" 
d="M191 747l141 142q17 -9 28 -24t11 -33q0 -21 -12 -37t-39 -29l-103 -50zM148.5 5.5q-51.5 18.5 -80 52t-28.5 75.5q0 46 29.5 76t74.5 30q9 0 14 -3t5 -7q0 -3 -8.5 -16t-14.5 -29t-6 -38q0 -48 36 -78t95 -30q52 0 84 27.5t32 75.5q0 39 -20 66t-49.5 44.5t-79.5 39.5
q-57 25 -92.5 47t-60 58t-24.5 91q0 46 22.5 86.5t67.5 65t109 24.5q58 0 104 -17t72 -47t26 -69q0 -46 -27.5 -75.5t-69.5 -29.5q-18 0 -18 11q0 2 7.5 14.5t13.5 29t6 38.5q0 41 -32 68t-82 27q-54 0 -83 -30.5t-29 -74.5q0 -34 19 -58t47 -40.5t78 -38.5q60 -27 97.5 -50
t63.5 -61.5t26 -95.5q0 -81 -54.5 -129t-153.5 -48q-65 0 -116.5 18.5z" />
    <glyph glyph-name="sacute" unicode="&#x15b;" horiz-adv-x="436" 
d="M142 547l139 141q39 -18 39 -57q0 -20 -11.5 -36t-37.5 -29l-104 -49zM94 18.5q-45 31.5 -45 82.5q0 30 21.5 50.5t54.5 20.5q7 0 13 -3t6 -8q0 -3 -6 -17.5t-6 -34.5q0 -37 26.5 -57t59.5 -20q38 0 62 20t24 52q0 29 -25.5 48t-73.5 39q-44 19 -73.5 36t-50.5 45t-21 68
q0 53 47 87t118 34q65 0 107 -24.5t42 -67.5q0 -35 -21 -57t-55 -22q-20 0 -20 13q0 4 7.5 18t7.5 32q0 32 -23 48.5t-52 16.5q-37 0 -58.5 -18t-21.5 -47q0 -34 28 -55.5t79 -40.5q44 -19 73 -35t49 -40.5t20 -57.5q0 -62 -49.5 -99.5t-130.5 -37.5q-68 0 -113 31.5z" />
    <glyph glyph-name="Scircumflex" unicode="&#x15c;" horiz-adv-x="518" 
d="M134 742q28 49 61 90t51 52h25q17 -10 51 -51.5t61 -90.5l-29 -26l-95 75l-95 -75zM148.5 5.5q-51.5 18.5 -80 52t-28.5 75.5q0 46 29.5 76t74.5 30q9 0 14 -3t5 -7q0 -3 -8.5 -16t-14.5 -29t-6 -38q0 -48 36 -78t95 -30q52 0 84 27.5t32 75.5q0 39 -20 66t-49.5 44.5
t-79.5 39.5q-57 25 -92.5 47t-60 58t-24.5 91q0 46 22.5 86.5t67.5 65t109 24.5q58 0 104 -17t72 -47t26 -69q0 -46 -27.5 -75.5t-69.5 -29.5q-18 0 -18 11q0 2 7.5 14.5t13.5 29t6 38.5q0 41 -32 68t-82 27q-54 0 -83 -30.5t-29 -74.5q0 -34 19 -58t47 -40.5t78 -38.5
q60 -27 97.5 -50t63.5 -61.5t26 -95.5q0 -81 -54.5 -129t-153.5 -48q-65 0 -116.5 18.5z" />
    <glyph glyph-name="scircumflex" unicode="&#x15d;" horiz-adv-x="436" 
d="M99 540q28 50 61 91.5t51 52.5h23q17 -10 51 -52t62 -92l-29 -23l-95 73l-94 -73zM94 18.5q-45 31.5 -45 82.5q0 30 21.5 50.5t54.5 20.5q7 0 13 -3t6 -8q0 -3 -6 -17.5t-6 -34.5q0 -37 26.5 -57t59.5 -20q38 0 62 20t24 52q0 29 -25.5 48t-73.5 39q-44 19 -73.5 36
t-50.5 45t-21 68q0 53 47 87t118 34q65 0 107 -24.5t42 -67.5q0 -35 -21 -57t-55 -22q-20 0 -20 13q0 4 7.5 18t7.5 32q0 32 -23 48.5t-52 16.5q-37 0 -58.5 -18t-21.5 -47q0 -34 28 -55.5t79 -40.5q44 -19 73 -35t49 -40.5t20 -57.5q0 -62 -49.5 -99.5t-130.5 -37.5
q-68 0 -113 31.5z" />
    <glyph glyph-name="Scedilla" unicode="&#x15e;" horiz-adv-x="518" 
d="M179.5 -248.5q-29.5 18.5 -29.5 51.5q0 23 17 37.5t41 14.5q17 0 17 -8q0 -3 -7 -13.5t-7 -26.5t11 -26t26 -10q26 0 42 20.5t16 47.5q0 28 -16 47.5t-46 19.5q-22 0 -49 -14l-17 15l61 81q-89 5 -144 45t-55 100q0 46 29.5 76t74.5 30q9 0 14 -3t5 -7q0 -3 -8.5 -16
t-14.5 -29t-6 -38q0 -48 36 -78t95 -30q52 0 84 27.5t32 75.5q0 39 -20 66t-49.5 44.5t-79.5 39.5q-57 25 -92.5 47t-60 58t-24.5 91q0 46 22.5 86.5t67.5 65t109 24.5q58 0 104 -17t72 -47t26 -69q0 -46 -27.5 -75.5t-69.5 -29.5q-18 0 -18 11q0 2 7.5 14.5t13.5 29t6 38.5
q0 41 -32 68t-82 27q-54 0 -83 -30.5t-29 -74.5q0 -34 19 -58t47 -40.5t78 -38.5q60 -27 97.5 -50t63.5 -61.5t26 -95.5q0 -79 -51.5 -126.5t-146.5 -50.5l-39 -50q18 3 35 3q42 0 71.5 -26.5t29.5 -75.5q0 -44 -35.5 -74.5t-87.5 -30.5q-40 0 -69.5 18.5z" />
    <glyph glyph-name="scedilla" unicode="&#x15f;" horiz-adv-x="436" 
d="M142.5 -248.5q-29.5 18.5 -29.5 51.5q0 23 17 37.5t40 14.5q18 0 18 -8q0 -3 -7 -13.5t-7 -26.5t11 -26t26 -10q26 0 41.5 20.5t15.5 47.5q0 28 -15.5 47.5t-45.5 19.5q-22 0 -49 -14l-17 15l60 80q-67 2 -109.5 32.5t-42.5 81.5q0 30 21.5 50.5t54.5 20.5q7 0 13 -3
t6 -8q0 -3 -6 -17.5t-6 -34.5q0 -37 26.5 -57t59.5 -20q38 0 62 20t24 52q0 29 -25.5 48t-73.5 39q-44 19 -73.5 36t-50.5 45t-21 68q0 53 47 87t118 34q65 0 107 -24.5t42 -67.5q0 -35 -21 -57t-55 -22q-20 0 -20 13q0 4 7.5 18t7.5 32q0 32 -23 48.5t-52 16.5
q-37 0 -58.5 -18t-21.5 -47q0 -34 28 -55.5t79 -40.5q44 -19 73 -35t49 -40.5t20 -57.5q0 -56 -40 -91.5t-108 -43.5l-41 -52q18 3 34 3q43 0 73 -26.5t30 -75.5q0 -44 -35.5 -74.5t-87.5 -30.5q-40 0 -69.5 18.5z" />
    <glyph glyph-name="Scaron" unicode="&#x160;" horiz-adv-x="518" 
d="M202 776q-32 41 -61 91l29 27l94 -78l95 78l30 -27q-28 -50 -62 -91.5t-51 -50.5h-23q-19 10 -51 51zM148.5 5.5q-51.5 18.5 -80 52t-28.5 75.5q0 46 29.5 76t74.5 30q9 0 14 -3t5 -7q0 -3 -8.5 -16t-14.5 -29t-6 -38q0 -48 36 -78t95 -30q52 0 84 27.5t32 75.5
q0 39 -20 66t-49.5 44.5t-79.5 39.5q-57 25 -92.5 47t-60 58t-24.5 91q0 46 22.5 86.5t67.5 65t109 24.5q58 0 104 -17t72 -47t26 -69q0 -46 -27.5 -75.5t-69.5 -29.5q-18 0 -18 11q0 2 7.5 14.5t13.5 29t6 38.5q0 41 -32 68t-82 27q-54 0 -83 -30.5t-29 -74.5q0 -34 19 -58
t47 -40.5t78 -38.5q60 -27 97.5 -50t63.5 -61.5t26 -95.5q0 -81 -54.5 -129t-153.5 -48q-65 0 -116.5 18.5z" />
    <glyph glyph-name="scaron" unicode="&#x161;" horiz-adv-x="418" 
d="M146 575.5q-33 41.5 -61 91.5l30 26l94 -77l96 77l29 -26q-28 -50 -61.5 -92t-50.5 -52h-25q-18 11 -51 52.5zM94 18.5q-45 31.5 -45 82.5q0 30 21.5 50.5t54.5 20.5q7 0 13 -3t6 -8q0 -3 -6 -17.5t-6 -34.5q0 -37 26.5 -57t59.5 -20q38 0 62 20t24 52q0 29 -25.5 48
t-73.5 39q-44 19 -73.5 36t-50.5 45t-21 68q0 53 47 87t118 34q65 0 107 -24.5t42 -67.5q0 -35 -21 -57t-55 -22q-20 0 -20 13q0 4 7.5 18t7.5 32q0 32 -23 48.5t-52 16.5q-37 0 -58.5 -18t-21.5 -47q0 -34 28 -55.5t79 -40.5q44 -19 73 -35t49 -40.5t20 -57.5
q0 -62 -49.5 -99.5t-130.5 -37.5q-68 0 -113 31.5z" />
    <glyph glyph-name="uni0162" unicode="&#x162;" horiz-adv-x="539" 
d="M181.5 -248.5q-29.5 18.5 -29.5 51.5q0 23 17 37.5t41 14.5q17 0 17 -8q0 -3 -7 -13.5t-7 -26.5t11 -26t26 -10q26 0 42 20.5t16 47.5q0 28 -16 47.5t-46 19.5q-22 0 -49 -14l-17 15l70 93h-66l-11 15l11 16q23 30 32 62.5t9 88.5v348q0 43 -6 56.5t-26 13.5h-41
q-33 0 -50.5 -7t-28 -24t-19.5 -50l-5 -22l-31 11v161l15 12l16 -12q24 -19 102 -19h237q79 0 102 19l16 12l15 -12v-161l-31 -11l-5 22q-13 49 -32 65t-66 16h-42q-19 0 -25.5 -14t-6.5 -56v-410q0 -42 11.5 -57.5t47.5 -26.5l22 -5l-11 -31h-96l-49 -63q18 3 34 3
q43 0 72.5 -26.5t29.5 -75.5q0 -44 -35.5 -74.5t-87.5 -30.5q-40 0 -69.5 18.5z" />
    <glyph glyph-name="uni0163" unicode="&#x163;" horiz-adv-x="308" 
d="M76.5 -248.5q-29.5 18.5 -29.5 51.5q0 23 16.5 37.5t40.5 14.5q16 0 16 -8q0 -3 -6.5 -13.5t-6.5 -26.5t11.5 -26t26.5 -10q26 0 41 20.5t15 47.5q0 28 -15 47.5t-45 19.5q-24 0 -49 -14l-18 15l64 84q-49 17 -49 84v319h-79q0 24 4 31.5t18 11.5q48 12 68 40t30 74
q2 14 9.5 17.5t33.5 3.5v-122h117q0 -19 -5.5 -34t-14.5 -22h-97v-293q0 -28 7.5 -39.5t26.5 -11.5q27 0 61 29l17 -24q-22 -29 -53.5 -47.5t-59.5 -20.5l-40 -50q18 3 34 3q43 0 72.5 -26.5t29.5 -75.5q0 -44 -35 -74.5t-87 -30.5q-40 0 -69.5 18.5z" />
    <glyph glyph-name="Tcaron" unicode="&#x164;" horiz-adv-x="539" 
d="M206 775q-32 41 -61 92l30 26l95 -78l93 78l30 -26q-27 -50 -61.5 -92t-51.5 -52h-23q-19 11 -51 52zM173 15l11 16q23 30 32 62.5t9 88.5v348q0 43 -6 56.5t-26 13.5h-41q-33 0 -50.5 -7t-28 -24t-19.5 -50l-5 -22l-31 11v161l15 12l16 -12q24 -19 102 -19h237
q79 0 102 19l16 12l15 -12v-161l-31 -11l-5 22q-13 49 -32 65t-66 16h-42q-19 0 -25.5 -14t-6.5 -56v-410q0 -42 11.5 -57.5t47.5 -26.5l22 -5l-11 -31h-199z" />
    <glyph glyph-name="tcaron" unicode="&#x165;" horiz-adv-x="335" 
d="M217 558l42 82q11 22 11 38q0 17 -21 32l-18 12l-3 21l16 6q29 11 50 11q27 0 43.5 -14.5t16.5 -46.5q0 -25 -18 -51t-57 -69l-35 -39zM110 10.5q-21 23.5 -21 64.5v319h-79q0 24 4 31.5t18 11.5q48 12 68 40t30 74q2 14 9.5 17.5t33.5 3.5v-122h117q0 -19 -5.5 -34
t-14.5 -22h-97v-293q0 -28 7.5 -39.5t26.5 -11.5q27 0 61 29l17 -24q-23 -30 -56 -49t-61 -19q-37 0 -58 23.5z" />
    <glyph glyph-name="Tbar" unicode="&#x166;" horiz-adv-x="539" 
d="M173 15l11 16q23 30 32 62.5t9 88.5v117h-179q0 17 5.5 33t18.5 23h155v175q0 43 -6 56.5t-26 13.5h-41q-33 0 -50.5 -7t-28 -24t-19.5 -50l-5 -22l-31 11v161l15 12l16 -12q24 -19 102 -19h237q79 0 102 19l16 12l15 -12v-161l-31 -11l-5 22q-13 49 -32 65t-66 16h-42
q-19 0 -25.5 -14t-6.5 -56v-175h178q0 -16 -6 -31.5t-18 -24.5h-154v-179q0 -42 11.5 -57.5t47.5 -26.5l22 -5l-11 -31h-199z" />
    <glyph glyph-name="tbar" unicode="&#x167;" horiz-adv-x="308" 
d="M110 10.5q-21 23.5 -21 64.5v143h-83q0 42 15 56h68v120h-79q0 24 4 31.5t18 11.5q48 12 68 40t30 74q2 14 9.5 17.5t33.5 3.5v-122h117q0 -19 -5.5 -34t-14.5 -22h-97v-120h120q0 -16 -4 -32t-13 -24h-103v-117q0 -28 7.5 -39.5t26.5 -11.5q27 0 61 29l17 -24
q-23 -30 -56 -49t-61 -19q-37 0 -58 23.5z" />
    <glyph glyph-name="Utilde" unicode="&#x168;" horiz-adv-x="669" 
d="M206 764q29 40 60 63.5t57 23.5q13 0 22.5 -4t25.5 -13q9 -5 18.5 -9.5t18.5 -4.5q25 0 61 35l31 -28q-28 -41 -59 -64.5t-56 -23.5q-15 0 -26 4.5t-25 13.5q-2 1 -13 7.5t-22 6.5q-22 0 -61 -36zM167 39.5q-66 52.5 -66 158.5v332q0 42 -11.5 58.5t-46.5 25.5l-22 5
l12 31h197l12 -14l-12 -17q-22 -30 -31 -63t-9 -87v-271q0 -71 46 -112t115 -41q68 0 113 41t45 112v332q0 42 -11.5 58.5t-46.5 25.5l-21 5l11 31h172l12 -14l-12 -17q-23 -29 -32 -62.5t-9 -87.5v-271q0 -106 -64.5 -158.5t-168.5 -52.5q-106 0 -172 52.5z" />
    <glyph glyph-name="utilde" unicode="&#x169;" horiz-adv-x="572" 
d="M140 564q30 40 60.5 63.5t55.5 23.5q13 0 24 -4.5t25 -13.5q9 -5 18 -9.5t18 -4.5q25 0 62 36l31 -28q-29 -41 -59.5 -64.5t-56.5 -23.5q-15 0 -26.5 4.5t-24.5 12.5q-2 1 -13 7.5t-23 6.5t-27.5 -8.5t-31.5 -26.5zM130 26.5q-36 39.5 -36 110.5v226q0 22 -18 22h-41
l-7 22q23 24 56.5 39t61.5 15q13 0 21.5 -7.5t8.5 -19.5v-275q0 -54 22 -82.5t65 -28.5q61 0 95 52.5t34 145.5q0 66 -7.5 103.5t-28.5 73.5l-11 14l11 13l112 11v-381q0 -28 24 -28q23 0 45 16l18 -23q-22 -26 -49.5 -42t-51.5 -16q-36 0 -52 21.5t-16 66.5
q-22 -41 -63 -64.5t-92 -23.5q-65 0 -101 39.5z" />
    <glyph glyph-name="Umacron" unicode="&#x16a;" horiz-adv-x="669" 
d="M225 800q6 20 18 32h244q0 -22 -6 -42t-18 -30h-244q0 20 6 40zM167 39.5q-66 52.5 -66 158.5v332q0 42 -11.5 58.5t-46.5 25.5l-22 5l12 31h197l12 -14l-12 -17q-22 -30 -31 -63t-9 -87v-271q0 -71 46 -112t115 -41q68 0 113 41t45 112v332q0 42 -11.5 58.5t-46.5 25.5
l-21 5l11 31h172l12 -14l-12 -17q-23 -29 -32 -62.5t-9 -87.5v-271q0 -106 -64.5 -158.5t-168.5 -52.5q-106 0 -172 52.5z" />
    <glyph glyph-name="umacron" unicode="&#x16b;" horiz-adv-x="572" 
d="M158.5 600q6.5 21 18.5 31h243q0 -20 -6 -41t-18 -31h-244q0 20 6.5 41zM130 26.5q-36 39.5 -36 110.5v226q0 22 -18 22h-41l-7 22q23 24 56.5 39t61.5 15q13 0 21.5 -7.5t8.5 -19.5v-275q0 -54 22 -82.5t65 -28.5q61 0 95 52.5t34 145.5q0 66 -7.5 103.5t-28.5 73.5
l-11 14l11 13l112 11v-381q0 -28 24 -28q23 0 45 16l18 -23q-22 -26 -49.5 -42t-51.5 -16q-36 0 -52 21.5t-16 66.5q-22 -41 -63 -64.5t-92 -23.5q-65 0 -101 39.5z" />
    <glyph glyph-name="Ubreve" unicode="&#x16c;" horiz-adv-x="669" 
d="M261.5 758q-31.5 32 -31.5 94h50q0 -27 18.5 -42t46.5 -15q27 0 44 15t17 42h50q0 -61 -31 -93.5t-80 -32.5q-52 0 -83.5 32zM167 39.5q-66 52.5 -66 158.5v332q0 42 -11.5 58.5t-46.5 25.5l-22 5l12 31h197l12 -14l-12 -17q-22 -30 -31 -63t-9 -87v-271q0 -71 46 -112
t115 -41q68 0 113 41t45 112v332q0 42 -11.5 58.5t-46.5 25.5l-21 5l11 31h172l12 -14l-12 -17q-23 -29 -32 -62.5t-9 -87.5v-271q0 -106 -64.5 -158.5t-168.5 -52.5q-106 0 -172 52.5z" />
    <glyph glyph-name="ubreve" unicode="&#x16d;" horiz-adv-x="572" 
d="M196.5 558q-31.5 33 -31.5 94h50q0 -26 18 -41.5t45 -15.5t45 15.5t18 41.5h50q0 -61 -31.5 -94t-81.5 -33t-81.5 33zM130 26.5q-36 39.5 -36 110.5v226q0 22 -18 22h-41l-7 22q23 24 56.5 39t61.5 15q13 0 21.5 -7.5t8.5 -19.5v-275q0 -54 22 -82.5t65 -28.5
q61 0 95 52.5t34 145.5q0 66 -7.5 103.5t-28.5 73.5l-11 14l11 13l112 11v-381q0 -28 24 -28q23 0 45 16l18 -23q-22 -26 -49.5 -42t-51.5 -16q-36 0 -52 21.5t-16 66.5q-22 -41 -63 -64.5t-92 -23.5q-65 0 -101 39.5z" />
    <glyph glyph-name="Uring" unicode="&#x16e;" horiz-adv-x="669" 
d="M258.5 727q-27.5 27 -27.5 69q0 43 27.5 70.5t76.5 27.5t76 -27.5t27 -70.5q0 -42 -27 -69t-76 -27t-76.5 27zM363.5 758.5q10.5 14.5 10.5 37.5t-10.5 38t-28.5 15t-28.5 -15t-10.5 -38t10.5 -37.5t28.5 -14.5t28.5 14.5zM167 39.5q-66 52.5 -66 158.5v332
q0 42 -11.5 58.5t-46.5 25.5l-22 5l12 31h197l12 -14l-12 -17q-22 -30 -31 -63t-9 -87v-271q0 -71 46 -112t115 -41q68 0 113 41t45 112v332q0 42 -11.5 58.5t-46.5 25.5l-21 5l11 31h172l12 -14l-12 -17q-23 -29 -32 -62.5t-9 -87.5v-271q0 -106 -64.5 -158.5t-168.5 -52.5
q-106 0 -172 52.5z" />
    <glyph glyph-name="uring" unicode="&#x16f;" horiz-adv-x="572" 
d="M211 527q-27 27 -27 69t27 69.5t75 27.5q50 0 77.5 -27.5t27.5 -69.5t-27.5 -69t-77.5 -27q-48 0 -75 27zM315 558q10 15 10 38q0 24 -10 38.5t-29 14.5q-17 0 -28 -15t-11 -38q0 -22 11 -37.5t28 -15.5q19 0 29 15zM130 26.5q-36 39.5 -36 110.5v226q0 22 -18 22h-41
l-7 22q23 24 56.5 39t61.5 15q13 0 21.5 -7.5t8.5 -19.5v-275q0 -54 22 -82.5t65 -28.5q61 0 95 52.5t34 145.5q0 66 -7.5 103.5t-28.5 73.5l-11 14l11 13l112 11v-381q0 -28 24 -28q23 0 45 16l18 -23q-22 -26 -49.5 -42t-51.5 -16q-36 0 -52 21.5t-16 66.5
q-22 -41 -63 -64.5t-92 -23.5q-65 0 -101 39.5z" />
    <glyph glyph-name="Uhungarumlaut" unicode="&#x170;" horiz-adv-x="669" 
d="M179 747l140 142q18 -8 28 -23.5t10 -33.5q0 -21 -11.5 -37t-37.5 -29l-104 -50zM365 747l142 142q17 -9 28 -24t11 -33q0 -21 -12.5 -37t-39.5 -29l-101 -50zM167 39.5q-66 52.5 -66 158.5v332q0 42 -11.5 58.5t-46.5 25.5l-22 5l12 31h197l12 -14l-12 -17
q-22 -30 -31 -63t-9 -87v-271q0 -71 46 -112t115 -41q68 0 113 41t45 112v332q0 42 -11.5 58.5t-46.5 25.5l-21 5l11 31h172l12 -14l-12 -17q-23 -29 -32 -62.5t-9 -87.5v-271q0 -106 -64.5 -158.5t-168.5 -52.5q-106 0 -172 52.5z" />
    <glyph glyph-name="uhungarumlaut" unicode="&#x171;" horiz-adv-x="572" 
d="M112 547l141 141q38 -18 38 -57q0 -40 -50 -65l-103 -49zM300 547l141 141q39 -19 39 -57q0 -40 -52 -65l-102 -49zM130 26.5q-36 39.5 -36 110.5v226q0 22 -18 22h-41l-7 22q23 24 56.5 39t61.5 15q13 0 21.5 -7.5t8.5 -19.5v-275q0 -54 22 -82.5t65 -28.5q61 0 95 52.5
t34 145.5q0 66 -7.5 103.5t-28.5 73.5l-11 14l11 13l112 11v-381q0 -28 24 -28q23 0 45 16l18 -23q-22 -26 -49.5 -42t-51.5 -16q-36 0 -52 21.5t-16 66.5q-22 -41 -63 -64.5t-92 -23.5q-65 0 -101 39.5z" />
    <glyph glyph-name="Uogonek" unicode="&#x172;" horiz-adv-x="669" 
d="M259 -227.5q-28 25.5 -28 70.5q0 38 23.5 71.5t74.5 72.5q-103 2 -165.5 54.5t-62.5 156.5v332q0 42 -11.5 58.5t-46.5 25.5l-22 5l12 31h197l12 -14l-12 -17q-22 -30 -31 -63t-9 -87v-271q0 -71 46 -112t115 -41q68 0 113 41t45 112v332q0 42 -11.5 58.5t-46.5 25.5
l-21 5l11 31h172l12 -14l-12 -17q-23 -29 -32 -62.5t-9 -87.5v-271q0 -88 -45 -139t-122 -65q-51 -37 -75 -70.5t-24 -60.5q0 -26 13.5 -39.5t37.5 -13.5q26 0 54 15t51 42l30 -27q-38 -48 -76.5 -70.5t-83.5 -22.5t-73 25.5z" />
    <glyph glyph-name="uogonek" unicode="&#x173;" horiz-adv-x="572" 
d="M344.5 -227.5q-28.5 25.5 -28.5 70.5q0 39 25.5 74.5t80.5 76.5q-19 8 -27.5 27.5t-8.5 53.5q-22 -41 -63 -64.5t-92 -23.5q-65 0 -101 39.5t-36 110.5v226q0 22 -18 22h-41l-7 22q23 24 56.5 39t61.5 15q13 0 21.5 -7.5t8.5 -19.5v-275q0 -54 22 -82.5t65 -28.5
q61 0 95 52.5t34 145.5q0 66 -7.5 103.5t-28.5 73.5l-11 14l11 13l112 11v-381q0 -28 24 -28q23 0 45 16l18 -23q-26 -32 -58 -47q-55 -38 -80.5 -72.5t-25.5 -62.5q0 -26 13.5 -39.5t37.5 -13.5q26 0 54.5 15t51.5 42l30 -27q-38 -48 -76.5 -70.5t-83.5 -22.5t-73.5 25.5z
" />
    <glyph glyph-name="Wcircumflex" unicode="&#x174;" horiz-adv-x="984" 
d="M368 742q28 49 61 90t51 52h24q17 -10 51 -51.5t61 -90.5l-29 -26l-95 75l-95 -75zM86 525q-15 42 -32 64t-50 47l12 14h205l9 -31l-19 -5q-22 -5 -32 -14.5t-10 -25.5q0 -10 5 -25t6 -19l146 -454l135 421l-8 28q-13 41 -30.5 63t-51.5 48l13 14h203l11 -31l-22 -5
q-21 -4 -30.5 -13.5t-9.5 -26.5q0 -12 10 -44l148 -454l126 394q19 52 19 83q-2 52 -42 61l-20 5l10 31h173l12 -14l-14 -17q-34 -41 -51 -90l-174 -529h-103l-133 395l-132 -395h-102z" />
    <glyph glyph-name="wcircumflex" unicode="&#x175;" horiz-adv-x="736" 
d="M243 540q28 50 61 91.5t51 52.5h24q17 -10 50.5 -52t61.5 -92l-29 -23l-95 73l-94 -73zM166.5 5q-28.5 18 -45 57.5t-26.5 110.5l-30 190q-2 13 -5 17.5t-12 4.5h-39l-9 22q24 23 56.5 38.5t57.5 15.5t30 -27l40 -285q8 -54 24 -78.5t46 -24.5q29 0 51.5 31t34.5 82
t12 108q0 43 -10 84.5t-30 73.5l-9 13l10 12l106 11q6 -48 6 -96q0 -44 -6 -88l19 -128q8 -55 24.5 -79t48.5 -24q29 0 51.5 31.5t35 82t12.5 107.5q0 43 -10 84.5t-30 73.5l-8 13l9 12l107 11q4 -64 4 -96q0 -120 -24.5 -205.5t-65 -129t-88.5 -43.5q-52 0 -82 26t-46 88
q-24 -56 -58.5 -85t-75.5 -29q-47 0 -75.5 18z" />
    <glyph glyph-name="Ycircumflex" unicode="&#x176;" horiz-adv-x="566" 
d="M172 742q28 49 60.5 90t50.5 52h25q17 -10 51 -51.5t61 -90.5l-29 -26l-95 75l-95 -75zM186 15l11 16q23 30 33 63t10 88v85l-145 254q-26 45 -45 69.5t-46 45.5l12 14h205l9 -31l-19 -5q-22 -5 -32 -14.5t-10 -25.5q0 -11 28 -56l99 -172l101 183q11 22 11 37
q0 19 -11 31.5t-27 16.5l-19 5l9 31h173l11 -14l-13 -17q-38 -47 -63 -96l-142 -249v-154q0 -41 13 -58t48 -26l19 -5l-10 -31h-199z" />
    <glyph glyph-name="ycircumflex" unicode="&#x177;" horiz-adv-x="551" 
d="M148 540q29 51 62 92t51 52h24q17 -10 49.5 -51.5t61.5 -92.5l-28 -23l-96 73l-93 -73zM178.5 -234.5q-35.5 18.5 -53 48.5t-17.5 63q0 46 31 78t85 32q8 0 12 -2.5t4 -6.5t-12.5 -17.5t-22 -32.5t-9.5 -48q0 -36 21.5 -60.5t57.5 -24.5q56 0 83 46.5t27 124.5v134
q-22 -40 -63.5 -63t-92.5 -23q-64 0 -99.5 39.5t-35.5 110.5v200q0 12 -4 17t-14 5h-41l-7 22q23 24 56.5 39t61.5 15q13 0 21.5 -7.5t8.5 -19.5v-250q0 -54 22 -82t63 -28q61 0 95 45t34 127q0 75 -6 111t-30 66l-10 14l10 13l111 11v-482q0 -111 -54 -172t-147 -61
q-50 0 -85.5 18.5z" />
    <glyph glyph-name="Ydieresis" unicode="&#x178;" horiz-adv-x="566" 
d="M186 758q-20 21 -20 38t20 38.5t36 21.5t36.5 -21.5t20.5 -38.5t-20 -38t-37 -21q-16 0 -36 21zM357.5 758q-19.5 21 -19.5 38t19.5 38.5t35.5 21.5q17 0 37.5 -21.5t20.5 -38.5t-20.5 -38t-37.5 -21q-16 0 -35.5 21zM186 15l11 16q23 30 33 63t10 88v85l-145 254
q-26 45 -45 69.5t-46 45.5l12 14h205l9 -31l-19 -5q-22 -5 -32 -14.5t-10 -25.5q0 -11 28 -56l99 -172l101 183q11 22 11 37q0 19 -11 31.5t-27 16.5l-19 5l9 31h173l11 -14l-13 -17q-38 -47 -63 -96l-142 -249v-154q0 -41 13 -58t48 -26l19 -5l-10 -31h-199z" />
    <glyph glyph-name="Zacute" unicode="&#x179;" horiz-adv-x="533" 
d="M214 747l141 142q17 -9 28 -24t11 -33q0 -21 -12 -37t-39 -29l-103 -50zM473 -13q-8 13 -37 13h-418l360 600h-192q-33 0 -51 -7t-28.5 -24t-18.5 -50l-6 -22l-30 11v161l13 12l17 -12q14 -10 38.5 -14.5t65.5 -4.5h331l-358 -598h203q34 0 52 6.5t28 23t19 50.5l7 20
l30 -9v-156l-18 -9z" />
    <glyph glyph-name="zacute" unicode="&#x17a;" horiz-adv-x="434" 
d="M169 547l141 141q38 -18 38 -57q0 -40 -50 -65l-103 -49zM337 -4.5q-23 4.5 -66 4.5h-232l-9 28l253 369h-135q-35 0 -48.5 -7.5t-18.5 -30.5l-11 -47l-28 9v139l10 13q20 -14 43 -18.5t66 -4.5h226q17 -16 17 -39l-24 -15l-238 -344h141q35 0 50 8t19 31l10 47l29 -9
v-140l-11 -10q-20 12 -43 16.5z" />
    <glyph glyph-name="Zdotaccent" unicode="&#x17b;" horiz-adv-x="533" 
d="M248.5 752.5q-22.5 23.5 -22.5 43.5q0 21 22.5 45t41.5 24t41.5 -24t22.5 -45q0 -20 -22.5 -43.5t-41.5 -23.5t-41.5 23.5zM473 -13q-8 13 -37 13h-418l360 600h-192q-33 0 -51 -7t-28.5 -24t-18.5 -50l-6 -22l-30 11v161l13 12l17 -12q14 -10 38.5 -14.5t65.5 -4.5h331
l-358 -598h203q34 0 52 6.5t28 23t19 50.5l7 20l30 -9v-156l-18 -9z" />
    <glyph glyph-name="zdotaccent" unicode="&#x17c;" horiz-adv-x="434" 
d="M184 551.5q-23 24.5 -23 44.5q0 21 22.5 45t41.5 24q20 0 42.5 -24t22.5 -45t-22.5 -45t-42.5 -24q-18 0 -41 24.5zM337 -4.5q-23 4.5 -66 4.5h-232l-9 28l253 369h-135q-35 0 -48.5 -7.5t-18.5 -30.5l-11 -47l-28 9v139l10 13q20 -14 43 -18.5t66 -4.5h226
q17 -16 17 -39l-24 -15l-238 -344h141q35 0 50 8t19 31l10 47l29 -9v-140l-11 -10q-20 12 -43 16.5z" />
    <glyph glyph-name="Zcaron" unicode="&#x17d;" horiz-adv-x="533" 
d="M221 776q-33 41 -61 91l30 27l93 -78l96 78l29 -27q-28 -50 -62 -91.5t-50 -50.5h-24q-18 10 -51 51zM473 -13q-8 13 -37 13h-418l360 600h-192q-33 0 -51 -7t-28.5 -24t-18.5 -50l-6 -22l-30 11v161l13 12l17 -12q14 -10 38.5 -14.5t65.5 -4.5h331l-358 -598h203
q34 0 52 6.5t28 23t19 50.5l7 20l30 -9v-156l-18 -9z" />
    <glyph glyph-name="zcaron" unicode="&#x17e;" horiz-adv-x="434" 
d="M159 575.5q-33 41.5 -61 91.5l30 26l94 -77l94 77l30 -26q-28 -50 -62 -92t-51 -52h-23q-18 11 -51 52.5zM337 -4.5q-23 4.5 -66 4.5h-232l-9 28l253 369h-135q-35 0 -48.5 -7.5t-18.5 -30.5l-11 -47l-28 9v139l10 13q20 -14 43 -18.5t66 -4.5h226q17 -16 17 -39l-24 -15
l-238 -344h141q35 0 50 8t19 31l10 47l29 -9v-140l-11 -10q-20 12 -43 16.5z" />
    <glyph glyph-name="florin" unicode="&#x192;" horiz-adv-x="419" 
d="M-40 -191q-31 25 -31 67q0 35 25 58.5t63 23.5q17 0 17 -10q0 -2 -7 -11.5t-12 -22t-5 -31.5q0 -28 13.5 -44t35.5 -16q27 0 45.5 24.5t18.5 70.5v355h-121q0 42 20 57h101v17q0 146 52.5 231t154.5 85q60 0 98.5 -28t38.5 -72q0 -39 -26 -64t-65 -25q-17 0 -17 10
q0 2 7.5 12t13 25t5.5 38q0 27 -19.5 43t-52.5 16q-108 0 -108 -212v-76h169q0 -16 -5 -32t-15 -25h-149v-285q0 -94 -42 -149t-123 -55q-49 0 -80 25z" />
    <glyph glyph-name="Aringacute" unicode="&#x1fa;" horiz-adv-x="639" 
d="M220.5 727q-26.5 27 -26.5 69q0 43 26.5 70.5t75.5 27.5q19 0 47 -10l99 98q15 -7 24.5 -20.5t9.5 -30.5q0 -18 -11 -32t-35 -26l-44 -22q15 -27 15 -55q0 -42 -27.5 -69t-77.5 -27q-49 0 -75.5 27zM325.5 758.5q10.5 14.5 10.5 37.5t-10.5 38t-29.5 15q-18 0 -28 -15
t-10 -38q0 -22 10 -37t28 -15q19 0 29.5 14.5zM-15 31l21 5q37 11 53 26.5t30 57.5l142 410q10 32 10 44q0 17 -9.5 26.5t-30.5 13.5l-21 5l11 31h174l183 -524q15 -43 31.5 -64t50.5 -47l-12 -15h-205l-10 31l22 5q21 5 30.5 14.5t9.5 26.5q0 10 -4.5 23.5l-6.5 19.5
l-43 127h-209l-22 -66q-20 -62 -20 -95t13 -55l7 -16l-17 -15h-166zM222 304h171l-87 254z" />
    <glyph glyph-name="aringacute" unicode="&#x1fb;" horiz-adv-x="546" 
d="M187.5 527q-26.5 27 -26.5 69t27 69.5t75 27.5q20 0 48 -8l96 98q34 -17 34 -53q0 -37 -45 -58l-43 -22q15 -22 15 -54q0 -42 -27.5 -69t-77.5 -27q-49 0 -75.5 27zM292.5 558q10.5 15 10.5 38t-10.5 38t-29.5 15q-18 0 -28 -15t-10 -38t10.5 -38t27.5 -15q19 0 29.5 15z
M122.5 12.5q-37.5 25.5 -60 75t-22.5 120.5q0 117 63.5 185t171.5 68q36 0 98 -11q46 -8 83 -11l12 -11l-13 -17q-7 -12 -9.5 -18.5t-2.5 -17.5v-295q0 -28 29 -28q22 0 45 16l17 -23q-24 -27 -51 -42.5t-49 -15.5q-38 0 -55 22.5t-17 73.5q-36 -53 -74.5 -74.5t-83.5 -21.5
q-44 0 -81.5 25.5zM362 140v245q-39 26 -88 26q-65 0 -101.5 -48.5t-36.5 -137.5q0 -86 29.5 -126.5t73.5 -40.5q76 0 123 82z" />
    <glyph glyph-name="AEacute" unicode="&#x1fc;" horiz-adv-x="873" 
d="M507 747l141 142q17 -9 28 -24t11 -33q0 -21 -12 -37t-39 -29l-103 -50zM791 -13q-8 13 -38 13h-382l-10 29l20 5q34 10 45 25.5t11 54.5v163h-180l-76 -137q-12 -23 -15.5 -37.5t-3.5 -31.5q0 -12 5.5 -24.5t6.5 -15.5l8 -16l-17 -15h-167l-11 31l22 5q24 6 40.5 16.5
t29.5 32.5l315 565h278q80 0 103 19l17 12l15 -12v-161l-32 -11l-5 22q-9 33 -19.5 50t-28.5 24t-51 7h-88q-35 0 -46.5 -14t-11.5 -56v-202h115q22 0 39 9.5t33 32.5l7 11l18 -11v-154l-31 -11l-5 21q-8 31 -28 41t-70 10h-78v-157q0 -29 4.5 -43.5t16.5 -19.5t37 -5h98
q33 0 51 6.5t28.5 23.5t19.5 50l5 20l30 -9v-156l-17 -9zM285 328h152v275z" />
    <glyph glyph-name="aeacute" unicode="&#x1fd;" horiz-adv-x="784" 
d="M311 547l140 141q38 -17 38 -57q0 -20 -11.5 -36t-38.5 -29l-102 -49zM110 5.5q-35 18.5 -52.5 49t-17.5 65.5q0 39 20.5 75.5t60 59t93.5 22.5q31 0 69.5 -11t38.5 -32q0 -7 -4 -13t-9 -6q-4 0 -21.5 6t-46.5 6q-54 0 -84 -32t-30 -76q0 -35 22.5 -59t63.5 -24
q63 0 97.5 50t34.5 143q0 82 -34.5 127.5t-99.5 45.5q-47 0 -73.5 -10t-42 -20.5t-18.5 -10.5q-8 0 -16 9t-8 18q0 10 24 27.5t64.5 31.5t87.5 14q54 0 96.5 -21t70.5 -60q30 39 77.5 60t106.5 21q74 0 114 -39t40 -94q0 -38 -20 -73t-59 -57t-93 -22q-30 0 -66 10.5
t-36 31.5q0 8 5 14t10 6q3 0 18 -5.5t40 -5.5q55 0 85 30t30 72q0 36 -22.5 62t-62.5 26q-59 0 -92 -51.5t-33 -146.5q0 -81 34.5 -126.5t99.5 -45.5q80 0 132 52q3 3 9 3q8 0 15.5 -8t7.5 -17q0 -6 -3 -9q-34 -40 -80 -60.5t-100 -20.5q-62 0 -109 28.5t-73 80.5
q-23 -52 -69 -80.5t-108 -28.5q-49 0 -84 18.5z" />
    <glyph glyph-name="Oslashacute" unicode="&#x1fe;" horiz-adv-x="663" 
d="M242 747l142 142q17 -9 27.5 -24t10.5 -33q0 -21 -12 -37t-39 -29l-103 -50zM190 18q-78 38 -118 119t-40 187q0 96 33.5 173t100.5 121.5t165 44.5q37 0 85 -11l20 56h65l-27 -77q78 -39 118 -120.5t40 -186.5q0 -96 -34 -172t-101.5 -120.5t-165.5 -44.5q-38 0 -84 11
l-19 -56h-64zM396 602q-34 10 -59 10q-64 0 -111 -39.5t-71.5 -107t-24.5 -149.5q0 -76 21 -137.5t62 -97.5zM437.5 77.5q46.5 37.5 71.5 101.5t25 142q0 68 -20 136.5t-63 109.5l-185 -516q28 -11 61 -11q64 0 110.5 37.5z" />
    <glyph glyph-name="oslashacute" unicode="&#x1ff;" horiz-adv-x="523" 
d="M191 547l140 141q39 -19 39 -57q0 -40 -50 -65l-103 -49zM162 7q-58 26 -90 83t-32 135q0 109 60 172.5t162 63.5q28 0 59 -7l21 59h49l-27 -74q56 -27 87.5 -82.5t31.5 -131.5q0 -72 -27.5 -126t-77.5 -83t-116 -29q-24 0 -56 7l-20 -56h-48zM305 406q-19 8 -40 8
q-59 0 -94.5 -52t-35.5 -138q0 -106 49 -157zM352.5 87.5q35.5 51.5 35.5 135.5q0 41 -11 83t-35 71l-118 -334q19 -7 36 -7q57 0 92.5 51.5z" />
    <glyph glyph-name="Scommaaccent" unicode="&#x218;" horiz-adv-x="518" 
d="M148.5 5.5q-51.5 18.5 -80 52t-28.5 75.5q0 46 29.5 76t74.5 30q9 0 14 -3t5 -7q0 -3 -8.5 -16t-14.5 -29t-6 -38q0 -48 36 -78t95 -30q52 0 84 27.5t32 75.5q0 39 -20 66t-49.5 44.5t-79.5 39.5q-57 25 -92.5 47t-60 58t-24.5 91q0 46 22.5 86.5t67.5 65t109 24.5
q58 0 104 -17t72 -47t26 -69q0 -46 -27.5 -75.5t-69.5 -29.5q-18 0 -18 11q0 2 7.5 14.5t13.5 29t6 38.5q0 41 -32 68t-82 27q-54 0 -83 -30.5t-29 -74.5q0 -34 19 -58t47 -40.5t78 -38.5q60 -27 97.5 -50t63.5 -61.5t26 -95.5q0 -81 -54.5 -129t-153.5 -48
q-65 0 -116.5 18.5zM191 -247l41 81q11 25 11 37q0 19 -19 34l-18 11l-5 21l17 7q25 10 50 10q27 0 43 -14.5t16 -45.5q0 -26 -18 -53t-55 -68l-36 -38z" />
    <glyph glyph-name="scommaaccent" unicode="&#x219;" horiz-adv-x="436" 
d="M94 18.5q-45 31.5 -45 82.5q0 30 21.5 50.5t54.5 20.5q7 0 13 -3t6 -8q0 -3 -6 -17.5t-6 -34.5q0 -37 26.5 -57t59.5 -20q38 0 62 20t24 52q0 29 -25.5 48t-73.5 39q-44 19 -73.5 36t-50.5 45t-21 68q0 53 47 87t118 34q65 0 107 -24.5t42 -67.5q0 -35 -21 -57t-55 -22
q-20 0 -20 13q0 4 7.5 18t7.5 32q0 32 -23 48.5t-52 16.5q-37 0 -58.5 -18t-21.5 -47q0 -34 28 -55.5t79 -40.5q44 -19 73 -35t49 -40.5t20 -57.5q0 -62 -49.5 -99.5t-130.5 -37.5q-68 0 -113 31.5zM145 -247l41 81q10 27 10 37q0 19 -19 34l-18 11l-4 21l17 7q27 10 50 10
q27 0 42.5 -14.5t15.5 -45.5q0 -26 -18 -53t-55 -68l-35 -38z" />
    <glyph glyph-name="uni021A" unicode="&#x21a;" horiz-adv-x="539" 
d="M173 15l11 16q23 30 32 62.5t9 88.5v348q0 43 -6 56.5t-26 13.5h-41q-33 0 -50.5 -7t-28 -24t-19.5 -50l-5 -22l-31 11v161l15 12l16 -12q24 -19 102 -19h237q79 0 102 19l16 12l15 -12v-161l-31 -11l-5 22q-13 49 -32 65t-66 16h-42q-19 0 -25.5 -14t-6.5 -56v-410
q0 -42 11.5 -57.5t47.5 -26.5l22 -5l-11 -31h-199zM200 -247l42 81q11 25 11 37q0 19 -21 34l-17 11l-4 21l17 7q25 10 49 10q27 0 43.5 -14.5t16.5 -45.5q0 -26 -18 -52.5t-56 -68.5l-35 -38z" />
    <glyph glyph-name="uni021B" unicode="&#x21b;" horiz-adv-x="308" 
d="M110 10.5q-21 23.5 -21 64.5v319h-79q0 24 4 31.5t18 11.5q48 12 68 40t30 74q2 14 9.5 17.5t33.5 3.5v-122h117q0 -19 -5.5 -34t-14.5 -22h-97v-293q0 -28 7.5 -39.5t26.5 -11.5q27 0 61 29l17 -24q-23 -30 -56 -49t-61 -19q-37 0 -58 23.5zM77 -247l41 81q11 25 11 37
q0 20 -20 34l-17 11l-5 21l17 7q25 10 49 10q27 0 43.5 -14.5t16.5 -45.5q0 -26 -18 -53t-55 -68l-36 -38z" />
    <glyph glyph-name="uni0237" unicode="&#x237;" horiz-adv-x="264" 
d="M-69 -228q-32 25 -32 68q0 35 25.5 58.5t63.5 23.5q17 0 17 -10q0 -2 -7 -11t-12.5 -21.5t-5.5 -31.5q0 -28 14 -44.5t36 -16.5q27 0 45.5 24t18.5 71v481q0 12 -4 17t-14 5h-41l-7 22q26 24 59.5 39t58.5 15q13 0 21.5 -7.5t8.5 -19.5v-482q0 -94 -41.5 -149.5
t-122.5 -55.5q-49 0 -81 25z" />
    <glyph glyph-name="uni02BC" unicode="&#x2bc;" horiz-adv-x="123" 
d="M-32 437l42 81q10 21 10 37q0 18 -20 34l-18 11l-3 21l16 7q27 10 50 10q59 0 59 -60q0 -25 -18 -52.5t-56 -68.5l-35 -38z" />
    <glyph glyph-name="circumflex" unicode="&#x2c6;" horiz-adv-x="338" 
d="M46 540q28 50 61 91.5t51 52.5h24q17 -10 50.5 -52t61.5 -92l-29 -23l-96 73l-93 -73z" />
    <glyph glyph-name="caron" unicode="&#x2c7;" horiz-adv-x="338" 
d="M107 575.5q-33 41.5 -61 91.5l30 26l93 -77l96 77l29 -26q-28 -50 -61.5 -92t-50.5 -52h-24q-18 11 -51 52.5z" />
    <glyph glyph-name="breve" unicode="&#x2d8;" horiz-adv-x="311" 
d="M74.5 558q-31.5 33 -31.5 94h50q0 -26 18 -41.5t45 -15.5q26 0 44 15.5t18 41.5h50q0 -62 -31 -94.5t-81 -32.5t-81.5 33z" />
    <glyph glyph-name="dotaccent" unicode="&#x2d9;" horiz-adv-x="294" 
d="M105 551.5q-23 24.5 -23 44.5q0 21 22.5 45t41.5 24q20 0 42.5 -24t22.5 -45t-22.5 -45t-42.5 -24q-18 0 -41 24.5z" />
    <glyph glyph-name="ring" unicode="&#x2da;" horiz-adv-x="286" 
d="M67 527q-27 27 -27 69t27 69.5t76 27.5q50 0 77 -27.5t27 -69.5t-27 -69t-77 -27q-49 0 -76 27zM172 558q10 15 10 38q0 24 -10 38.5t-29 14.5q-18 0 -28.5 -15t-10.5 -38q0 -22 10.5 -37.5t28.5 -15.5q19 0 29 15z" />
    <glyph glyph-name="ogonek" unicode="&#x2db;" horiz-adv-x="351" 
d="M74 -227.5q-28 25.5 -28 70.5q0 48 37.5 90t123.5 99l22 -32q-57 -38 -83.5 -73t-26.5 -64q0 -26 14.5 -39.5t38.5 -13.5q25 0 53 15t51 42l31 -27q-38 -47 -77 -70t-84 -23q-44 0 -72 25.5z" />
    <glyph glyph-name="tilde" unicode="&#x2dc;" horiz-adv-x="368" 
d="M37 564q30 40 60.5 63.5t55.5 23.5q22 0 50 -18q9 -5 18 -9.5t18 -4.5q24 0 63 36l29 -28q-28 -40 -59 -64t-56 -24q-16 0 -27.5 4.5t-23.5 13.5q-9 5 -17.5 9t-17.5 4q-29 0 -61 -35z" />
    <glyph glyph-name="hungarumlaut" unicode="&#x2dd;" horiz-adv-x="480" 
d="M58 547l139 141q39 -18 39 -57q0 -40 -50 -65l-103 -49zM245 547l142 141q38 -20 38 -57q0 -40 -52 -65l-102 -49z" />
    <glyph glyph-name="gravecomb" unicode="&#x300;" 
d="M-188 566q-27 13 -39 29t-12 36q0 40 38 57l142 -141l-27 -30z" />
    <glyph glyph-name="acutecomb" unicode="&#x301;" 
d="M-203 547l139 141q39 -18 39 -57q0 -40 -50 -65l-103 -49z" />
    <glyph glyph-name="uni0302" unicode="&#x302;" 
d="M-292 540q28 50 61 91.5t51 52.5h24q17 -10 50.5 -52t61.5 -92l-29 -23l-96 73l-93 -73z" />
    <glyph glyph-name="tildecomb" unicode="&#x303;" 
d="M-331 564q30 40 60.5 63.5t55.5 23.5q22 0 50 -18q9 -5 18 -9.5t18 -4.5q24 0 63 36l29 -28q-28 -40 -59 -64t-56 -24q-16 0 -27.5 4.5t-23.5 13.5q-9 5 -17.5 9t-17.5 4q-29 0 -61 -35z" />
    <glyph glyph-name="uni0304" unicode="&#x304;" 
d="M-311 600q6 21 18 31h243q0 -21 -5.5 -41.5t-17.5 -30.5h-244q0 20 6 41z" />
    <glyph glyph-name="uni0306" unicode="&#x306;" 
d="M-236.5 558q-31.5 33 -31.5 94h50q0 -26 18 -41.5t45 -15.5q26 0 44 15.5t18 41.5h50q0 -62 -31 -94.5t-81 -32.5t-81.5 33z" />
    <glyph glyph-name="uni0307" unicode="&#x307;" 
d="M-189 551.5q-23 24.5 -23 44.5q0 21 22.5 45t41.5 24q20 0 42.5 -24t22.5 -45t-22.5 -45t-42.5 -24q-18 0 -41 24.5z" />
    <glyph glyph-name="uni0308" unicode="&#x308;" 
d="M-312.5 558q-19.5 21 -19.5 38t19.5 38t35.5 21q17 0 37.5 -21t20.5 -38t-20.5 -38t-37.5 -21q-16 0 -35.5 21zM-140.5 558q-19.5 21 -19.5 38t19 38t35 21q17 0 38 -21t21 -38t-21 -38t-38 -21q-15 0 -34.5 21z" />
    <glyph glyph-name="uni030A" unicode="&#x30a;" 
d="M-219 527q-27 27 -27 69t27 69.5t76 27.5q50 0 77 -27.5t27 -69.5t-27 -69t-77 -27q-49 0 -76 27zM-114 558q10 15 10 38q0 24 -10 38.5t-29 14.5q-18 0 -28.5 -15t-10.5 -38q0 -22 10.5 -37.5t28.5 -15.5q19 0 29 15z" />
    <glyph glyph-name="uni030B" unicode="&#x30b;" 
d="M-422 547l139 141q39 -18 39 -57q0 -40 -50 -65l-103 -49zM-235 547l142 141q38 -20 38 -57q0 -40 -52 -65l-102 -49z" />
    <glyph glyph-name="uni030C" unicode="&#x30c;" 
d="M-231 575.5q-33 41.5 -61 91.5l30 26l93 -77l96 77l29 -26q-28 -50 -61.5 -92t-50.5 -52h-24q-18 11 -51 52.5z" />
    <glyph glyph-name="uni0326" unicode="&#x326;" 
d="M-167 -247l42 81q11 25 11 37q0 19 -21 34l-17 11l-4 21l16 7q27 10 50 10q27 0 43.5 -14.5t16.5 -45.5q0 -26 -18 -52t-57 -69l-35 -38z" />
    <glyph glyph-name="uni0327" unicode="&#x327;" 
d="M-237 -248.5q-29 18.5 -29 51.5q0 23 17 37.5t40 14.5q17 0 17 -8q0 -3 -7 -13.5t-7 -26.5t11 -26t26 -10q27 0 42.5 20.5t15.5 47.5q0 28 -15.5 47.5t-45.5 19.5q-24 0 -49 -14l-18 15l92 121h37l-71 -91q17 3 34 3q43 0 72.5 -26.5t29.5 -75.5q0 -44 -35 -74.5
t-88 -30.5q-40 0 -69 18.5z" />
    <glyph glyph-name="uni0328" unicode="&#x328;" 
d="M-277 -227.5q-28 25.5 -28 70.5q0 48 37.5 90t123.5 99l22 -32q-57 -38 -83.5 -73t-26.5 -64q0 -26 14.5 -39.5t38.5 -13.5q25 0 53 15t51 42l31 -27q-38 -47 -77 -70t-84 -23q-44 0 -72 25.5z" />
    <glyph glyph-name="uni0335" unicode="&#x335;" 
d="M-335 337h257q0 -36 -19 -51h-257q0 37 19 51z" />
    <glyph glyph-name="uni0394" unicode="&#x394;" horiz-adv-x="631" 
d="M46 0l224 650h91l226 -650h-541zM134 56h339l-171 501z" />
    <glyph glyph-name="uni03A9" unicode="&#x3a9;" horiz-adv-x="690" 
d="M88 28l57 12q35 9 48.5 19.5t17.5 37.5l6 30q-82 39 -122.5 101.5t-40.5 140.5q0 83 32.5 149.5t98 105t160.5 38.5t160.5 -38.5t98 -105t32.5 -149.5q0 -77 -41 -140t-121 -102l5 -30q4 -27 17.5 -37.5t49.5 -19.5l56 -12v-28h-176l-26 137q72 36 105.5 97t33.5 135
q0 107 -49.5 175.5t-144.5 68.5q-94 0 -144.5 -68.5t-50.5 -175.5q0 -74 34 -135t106 -97l-25 -137h-177v28z" />
    <glyph glyph-name="uni03BC" unicode="&#x3bc;" horiz-adv-x="557" 
d="M75 -178l-12 12l12 18q7 9 9.5 18.5t2.5 26.5v448q0 13 -4.5 20t-15.5 10l-47 11v28q15 13 56.5 25t69.5 12q12 0 17 -10t5 -32v-250q0 -111 92 -111q53 0 87 42t34 108v172q0 12 -2 21t-10 20l-12 17l12 11l93 12v-451l-10 -13q-36 0 -53.5 21.5t-17.5 66.5
q-20 -39 -57 -63.5t-77 -24.5q-48 0 -79 31v-207z" />
    <glyph glyph-name="pi" unicode="&#x3c0;" horiz-adv-x="576" 
d="M345 3q-14 16 -14 47q0 17 7 50l50 284h-154l-44 -250l-3 -23q-3 -21 -3 -36q0 -23 8 -47l6 -14l-12 -14h-153l5 30l30 13q21 9 28 21t11 42l51 278h-40l-66 -88q-13 0 -23.5 4.5t-12.5 12.5q30 63 51 91.5t42.5 37t58.5 8.5h399l-7 -47l-49 -7q-22 -3 -32 -11t-12 -23
q-24 -128 -37.5 -207t-13.5 -85q0 -28 24 -28q25 0 64 20l11 -32q-74 -43 -122 -43q-34 0 -48 16z" />
    <glyph glyph-name="uni0400" unicode="&#x400;" horiz-adv-x="551" 
d="M471 -13q-7 7 -15.5 10t-22.5 3h-382l-11 29l20 5q33 10 44 25.5t11 54.5v355q0 54 -9 87t-31 63l-12 17l12 14h277q79 0 102 19l18 12l13 -12v-161l-31 -11l-5 22q-12 49 -31 65t-66 16h-89q-35 0 -46.5 -14t-11.5 -56v-174h115q23 0 39 9t33 32l7 10l18 -10v-155
l-30 -11l-6 23q-10 31 -30 41t-70 10h-76v-185q0 -29 4.5 -43.5t16.5 -19.5t37 -5h97q33 0 51 6.5t28.5 23.5t19.5 50l6 20l30 -9v-156l-17 -9zM197 766q-27 13 -39 29t-12 37q0 18 11 33t28 24l141 -142l-27 -31z" />
    <glyph glyph-name="uni0401" unicode="&#x401;" horiz-adv-x="551" 
d="M471 -13q-7 7 -15.5 10t-22.5 3h-382l-11 29l20 5q33 10 44 25.5t11 54.5v355q0 54 -9 87t-31 63l-12 17l12 14h277q79 0 102 19l18 12l13 -12v-161l-31 -11l-5 22q-12 49 -31 65t-66 16h-89q-35 0 -46.5 -14t-11.5 -56v-174h115q23 0 39 9t33 32l7 10l18 -10v-155
l-30 -11l-6 23q-10 31 -30 41t-70 10h-76v-185q0 -29 4.5 -43.5t16.5 -19.5t37 -5h97q33 0 51 6.5t28.5 23.5t19.5 50l6 20l30 -9v-156l-17 -9zM162.5 757.5q-19.5 20.5 -19.5 38.5q0 19 19 39.5t36 20.5t37 -21t20 -39t-20 -38.5t-37 -20.5q-16 0 -35.5 20.5zM333 757.5
q-20 20.5 -20 38.5t20 39t37 21q16 0 36 -21t20 -39t-20 -38.5t-36 -20.5q-17 0 -37 20.5z" />
    <glyph glyph-name="uni0402" unicode="&#x402;" horiz-adv-x="698" 
d="M447.5 -37q-17.5 16 -17.5 37q0 10 3.5 15t8.5 5t18 -7t24 -7q20 0 40.5 20t33.5 61t13 98q0 82 -34 124.5t-97 42.5q-50 0 -127 -25v-207q0 -41 6 -57t24 -27l21 -5l-10 -31h-170l-11 15l11 16q23 30 32 62.5t9 88.5v348q0 43 -6 56.5t-26 13.5h-41q-33 0 -50.5 -7
t-28 -24t-19.5 -50l-5 -22l-31 11v161l15 12l16 -12q24 -19 102 -19h237q79 0 102 19l16 12l15 -12v-161l-31 -11l-5 22q-13 49 -32 65t-66 16h-42q-19 0 -25.5 -14t-6.5 -56v-150q87 35 159 35q91 0 144 -55.5t53 -163.5q0 -66 -23.5 -123.5t-63.5 -91.5t-87 -34
q-30 0 -47.5 16z" />
    <glyph glyph-name="uni0403" unicode="&#x403;" horiz-adv-x="482" 
d="M40 15l12 16q23 30 32.5 63t9.5 88v287q0 53 -9.5 86.5t-32.5 63.5l-12 17l12 14h267q41 0 65 4.5t38 14.5l16 12l15 -12v-161l-31 -11l-5 22q-8 34 -18.5 50.5t-29 23.5t-51.5 7h-78q-35 0 -46 -14t-11 -56v-410q0 -42 11 -57.5t46 -26.5l22 -5l-11 -31h-199zM269 747
l142 142q17 -9 27.5 -24t10.5 -33q0 -21 -12 -37t-39 -29l-102 -50z" />
    <glyph glyph-name="uni0404" unicode="&#x404;" horiz-adv-x="559" 
d="M162 31.5q-65 44.5 -97.5 121t-32.5 171.5q0 97 32.5 173.5t98 121t161.5 44.5q59 0 105 -17t72 -47t26 -69q0 -46 -27 -75.5t-68 -29.5q-21 0 -21 11q0 2 8 14.5t14 29t6 38.5q0 42 -31.5 68.5t-83.5 26.5q-93 0 -139 -76.5t-51 -187.5h284q0 -39 -22 -57h-261
q5 -69 30 -124t67 -86.5t97 -31.5q58 0 101.5 21.5t69.5 59.5q3 4 6 4q9 0 19 -8.5t10 -17.5q0 -3 -2 -7q-80 -115 -212 -115q-94 0 -159 44.5z" />
    <glyph glyph-name="uni0405" unicode="&#x405;" horiz-adv-x="518" 
d="M148.5 5.5q-51.5 18.5 -80 52t-28.5 75.5q0 46 29.5 76t74.5 30q9 0 14 -3t5 -7q0 -3 -8.5 -16t-14.5 -29t-6 -38q0 -48 36 -78t95 -30q52 0 84 27.5t32 75.5q0 39 -20 66t-49.5 44.5t-79.5 39.5q-57 25 -92.5 47t-60 58t-24.5 91q0 46 22.5 86.5t67.5 65t109 24.5
q58 0 104 -17t72 -47t26 -69q0 -46 -27.5 -75.5t-69.5 -29.5q-18 0 -18 11q0 2 7.5 14.5t13.5 29t6 38.5q0 41 -32 68t-82 27q-54 0 -83 -30.5t-29 -74.5q0 -34 19 -58t47 -40.5t78 -38.5q60 -27 97.5 -50t63.5 -61.5t26 -95.5q0 -81 -54.5 -129t-153.5 -48
q-65 0 -116.5 18.5z" />
    <glyph glyph-name="uni0406" unicode="&#x406;" horiz-adv-x="319" 
d="M36 31l22 5q35 11 46 26.5t11 57.5v410q0 42 -11.5 58.5t-45.5 25.5l-22 5l11 31h199l12 -14l-12 -17q-23 -29 -32 -62.5t-9 -87.5v-355q0 -39 11 -54.5t44 -25.5l18 -5l-8 -29h-223z" />
    <glyph glyph-name="uni0407" unicode="&#x407;" horiz-adv-x="319" 
d="M36 31l22 5q35 11 46 26.5t11 57.5v410q0 42 -11.5 58.5t-45.5 25.5l-22 5l11 31h199l12 -14l-12 -17q-23 -29 -32 -62.5t-9 -87.5v-355q0 -39 11 -54.5t44 -25.5l18 -5l-8 -29h-223zM2.5 757.5q-19.5 20.5 -19.5 38.5q0 19 19 39.5t36 20.5t37 -21t20 -39t-20 -38.5
t-37 -20.5q-16 0 -35.5 20.5zM173 757.5q-20 20.5 -20 38.5t20 39t37 21q16 0 36 -21t20 -39t-20 -38.5t-36 -20.5q-17 0 -37 20.5z" />
    <glyph glyph-name="uni0408" unicode="&#x408;" horiz-adv-x="425" 
d="M56 5.5q-37 18.5 -55.5 48.5t-18.5 63q0 45 30.5 77.5t84.5 32.5q8 0 12.5 -3t4.5 -7t-13 -18t-22 -32.5t-9 -47.5q0 -37 22 -61t60 -24q95 0 95 125v371q0 41 -12 58t-47 26l-20 5l11 31h197l13 -14l-13 -17q-22 -29 -30.5 -62.5t-8.5 -87.5v-255q0 -118 -50.5 -172.5
t-140.5 -54.5q-53 0 -90 18.5z" />
    <glyph glyph-name="uni0409" unicode="&#x409;" horiz-adv-x="916" 
d="M37 11q-27 24 -27 67q0 26 12.5 41t30.5 15q11 0 17.5 -7.5t11.5 -24.5q10 -43 35 -43q35 0 60 46.5t43 148.5t34 275q7 73 -65 86l-21 4l12 31h406l12 -14l-12 -17q-23 -29 -32 -62.5t-9 -87.5v-303q0 -75 29.5 -97t71.5 -22q63 0 99 40.5t36 106.5q0 60 -40 100.5
t-104 40.5q-24 0 -40 -4t-20 -4q-13 0 -13 21q0 16 25.5 24t62.5 8q67 0 117.5 -26t78 -69.5t27.5 -94.5q0 -88 -55.5 -139t-178.5 -51h-254l-11 31l21 5q34 9 46 26t12 58v410q0 42 -11.5 56t-46.5 14h-26q-27 0 -41 -7.5t-16 -29.5q-19 -229 -48 -355t-67.5 -173.5
t-94.5 -47.5q-40 0 -67 24z" />
    <glyph glyph-name="uni040A" unicode="&#x40a;" horiz-adv-x="962" 
d="M36 31l22 5q35 11 46 26.5t11 57.5v410q0 42 -11.5 58.5t-45.5 25.5l-22 5l11 31h199l12 -14l-12 -17q-23 -29 -32 -62.5t-9 -87.5v-112h296v173q0 41 -12.5 58.5t-46.5 25.5l-19 5l11 31h197l14 -14l-14 -17q-22 -31 -31.5 -64.5t-9.5 -85.5v-303q0 -75 30 -97t72 -22
q63 0 99 40.5t36 106.5q0 60 -40 100.5t-104 40.5q-24 0 -40.5 -4t-19.5 -4q-12 0 -12 21q0 16 25.5 24t62.5 8q67 0 117.5 -26t78 -69.5t27.5 -94.5q0 -88 -57 -139t-179 -51h-252l-11 31l19 5q35 9 47 26t12 58v183h-296v-189q0 -39 11 -54.5t44 -25.5l18 -5l-8 -29h-223z
" />
    <glyph glyph-name="uni040B" unicode="&#x40b;" horiz-adv-x="704" 
d="M542 247q0 53 -26.5 77t-80.5 24q-49 0 -79.5 -16.5t-61.5 -46.5v-165q0 -42 11.5 -57.5t47.5 -26.5l21 -5l-11 -31h-199l-11 15l11 16q23 30 32 62.5t9 88.5v348q0 43 -6 56.5t-25 13.5h-22q-48 0 -68 -16t-30 -65l-5 -22l-31 11v161l15 12l16 -12q24 -19 102 -19h237
q79 0 102 19l16 12l15 -12v-161l-31 -11l-5 22q-10 48 -30 64.5t-68 16.5h-62q-19 0 -25 -14t-6 -56v-179q44 31 83.5 46.5t94.5 15.5q77 0 117.5 -35.5t40.5 -106.5v-113q0 -54 6 -80t21 -48l12 -15l-12 -16l-115 -13v261z" />
    <glyph glyph-name="uni040C" unicode="&#x40c;" horiz-adv-x="616" 
d="M216 59.5q11 -15.5 44 -25.5l18 -5l-8 -29h-223l-11 31l22 5q35 11 46 26.5t11 57.5v410q0 42 -11.5 58.5t-45.5 25.5l-22 5l11 31h199l12 -14l-12 -17q-23 -29 -32 -62.5t-9 -87.5v-355q0 -39 11 -54.5zM611 23q-35 -36 -87 -36q-41 0 -69.5 22t-51.5 67l-82 165
q-13 28 -35.5 44.5t-55.5 27.5q-3 2 -3 10q0 22 18 22h21l148 188q17 23 17 49q0 23 -13 39l-10 15l17 14h155l11 -31l-22 -5q-20 -5 -36.5 -16t-33.5 -33l-184 -234q44 -7 73 -30.5t52 -68.5l86 -168q7 -14 15.5 -20.5t20.5 -6.5q18 0 35 13zM291 747l142 142
q17 -9 27.5 -24t10.5 -33q0 -21 -12 -37t-39 -29l-102 -50z" />
    <glyph glyph-name="uni040D" unicode="&#x40d;" horiz-adv-x="714" 
d="M675 29l-10 -29h-222l-10 31l19 5q36 9 47.5 25.5t11.5 58.5v345l-306 -333v-18q0 -39 11 -54.5t44 -25.5l18 -5l-8 -29h-223l-11 31l22 5q35 11 46 26.5t11 57.5v410q0 42 -11.5 58.5t-45.5 25.5l-22 5l11 31h199l12 -14l-12 -17q-23 -29 -32 -62.5t-9 -87.5v-263
l306 333q-1 36 -13.5 51.5t-45.5 23.5l-19 5l10 31h198l13 -14l-13 -17q-23 -28 -32 -61.5t-9 -88.5v-355q0 -39 11.5 -55t44.5 -25zM259 766q-27 13 -39 29t-12 37q0 18 11 33t28 24l141 -142l-27 -31z" />
    <glyph glyph-name="uni040E" unicode="&#x40e;" horiz-adv-x="585" 
d="M585 636l-13 -17q-25 -32 -50 -90l-166 -377q-39 -90 -79.5 -127.5t-90.5 -37.5q-48 0 -76 23t-28 60q0 33 22 58.5t55 25.5q19 0 19 -11q0 -3 -6.5 -21t-6.5 -36q0 -20 9 -31.5t25 -11.5q26 0 46.5 25t48.5 87l14 32l-212 334q-33 52 -56.5 77.5t-50.5 37.5l4 14h229
l10 -31l-20 -5q-36 -8 -36 -38q0 -22 22 -58l153 -236l87 196q19 39 19 72q0 26 -12 42.5t-34 21.5l-20 5l10 31h173zM192.5 748.5q-42.5 21.5 -42.5 62.5q0 29 22 46.5t51 17.5q8 0 13.5 -4t5.5 -9q0 -3 -7.5 -15t-7.5 -33q0 -49 81 -49q82 0 82 48q0 21 -7.5 33.5
t-7.5 15.5q0 6 5.5 9.5t14.5 3.5q28 0 49 -17.5t21 -46.5q0 -41 -42 -62.5t-115 -21.5t-115.5 21.5z" />
    <glyph glyph-name="uni040F" unicode="&#x40f;" horiz-adv-x="678" 
d="M352 -138q-17 63 -36.5 91.5t-52 37.5t-97.5 9h-119l-11 31l22 5q35 11 46 26.5t11 57.5v410q0 42 -11.5 58.5t-45.5 25.5l-22 5l11 31h199l12 -14l-12 -17q-23 -29 -32 -62.5t-9 -87.5v-349q0 -29 4.5 -43.5t16.5 -19.5t37 -5h153q25 0 37 5t16.5 19.5t4.5 43.5v410
q0 41 -12 58t-46 26l-21 5l10 31h199l12 -14l-12 -17q-22 -29 -31 -62.5t-9 -87.5v-355q0 -39 11 -54.5t44 -25.5l18 -5l-9 -29h-240v-148l-32 -12z" />
    <glyph glyph-name="uni0410" unicode="&#x410;" horiz-adv-x="639" 
d="M-15 31l21 5q37 11 53 26.5t30 57.5l142 410q10 32 10 44q0 17 -9.5 26.5t-30.5 13.5l-21 5l11 31h174l183 -524q15 -43 31.5 -64t50.5 -47l-12 -15h-205l-10 31l22 5q21 5 30.5 14.5t9.5 26.5q0 10 -4.5 23.5l-6.5 19.5l-43 127h-209l-22 -66q-20 -62 -20 -95t13 -55
l7 -16l-17 -15h-166zM222 304h171l-87 254z" />
    <glyph glyph-name="uni0411" unicode="&#x411;" horiz-adv-x="589" 
d="M40 31l22 5q34 11 45.5 27t11.5 57v349q0 54 -9 87t-31 63l-12 17l12 14h277q79 0 103 19l17 12l14 -12v-161l-31 -11l-5 22q-9 33 -19.5 50t-28.5 24t-51 7h-88q-35 0 -46 -14t-11 -56v-364q0 -75 29.5 -97t70.5 -22q63 0 99 40.5t36 106.5q0 60 -39.5 100.5
t-102.5 40.5q-24 0 -41 -4t-21 -4q-12 0 -12 21q0 16 25 24t62 8q67 0 117.5 -26t78 -69.5t27.5 -94.5q0 -89 -55.5 -139.5t-178.5 -50.5h-253z" />
    <glyph glyph-name="uni0412" unicode="&#x412;" horiz-adv-x="589" 
d="M40 31l22 5q34 11 45.5 27t11.5 57v448q0 12 -4.5 16.5t-14.5 4.5h-53l-11 34q39 15 103 27.5t122 12.5q125 0 185 -49.5t60 -128.5q0 -51 -23.5 -92.5t-71.5 -63.5q60 -20 94 -60.5t34 -89.5q0 -83 -55.5 -131t-178.5 -48h-253zM409 84.5q36 37.5 36 98.5
q0 53 -38.5 89.5t-103.5 36.5q-35 0 -61 11q-13 7 -13 21q0 15 12 15q5 0 17 -2t29 -2q61 0 95.5 35.5t34.5 95.5q0 58 -38.5 94t-107.5 36q-61 0 -61 -43v-404q0 -75 29.5 -97t70.5 -22q63 0 99 37.5z" />
    <glyph glyph-name="uni0413" unicode="&#x413;" horiz-adv-x="482" 
d="M40 15l12 16q23 30 32.5 63t9.5 88v287q0 53 -9.5 86.5t-32.5 63.5l-12 17l12 14h267q41 0 65 4.5t38 14.5l16 12l15 -12v-161l-31 -11l-5 22q-8 34 -18.5 50.5t-29 23.5t-51.5 7h-78q-35 0 -46 -14t-11 -56v-410q0 -42 11 -57.5t46 -26.5l22 -5l-11 -31h-199z" />
    <glyph glyph-name="uni0414" unicode="&#x414;" horiz-adv-x="661" 
d="M24 -164v203q74 10 112 69.5t52.5 154.5t26.5 276q2 34 -14 50.5t-46 24.5l-19 5l10 31h442l11 -14l-11 -17q-23 -30 -32.5 -63.5t-9.5 -86.5v-374q0 -27 29.5 -42t69.5 -15v-202l-32 -11l-5 22q-14 54 -29 86t-40 49.5t-65 17.5h-278q-40 0 -65 -17.5t-40.5 -49.5
t-29.5 -86l-5 -22zM398 52q25 0 37 5t17 19.5t5 43.5v410q0 42 -11.5 56t-47.5 14h-55q-28 0 -42.5 -7.5t-15.5 -29.5q-15 -229 -46 -352t-90 -159h249z" />
    <glyph glyph-name="uni0415" unicode="&#x415;" horiz-adv-x="551" 
d="M471 -13q-7 7 -15.5 10t-22.5 3h-382l-11 29l20 5q33 10 44 25.5t11 54.5v355q0 54 -9 87t-31 63l-12 17l12 14h277q79 0 102 19l18 12l13 -12v-161l-31 -11l-5 22q-12 49 -31 65t-66 16h-89q-35 0 -46.5 -14t-11.5 -56v-174h115q23 0 39 9t33 32l7 10l18 -10v-155
l-30 -11l-6 23q-10 31 -30 41t-70 10h-76v-185q0 -29 4.5 -43.5t16.5 -19.5t37 -5h97q33 0 51 6.5t28.5 23.5t19.5 50l6 20l30 -9v-156l-17 -9z" />
    <glyph glyph-name="uni0416" unicode="&#x416;" horiz-adv-x="912" 
d="M386 313q-33 -11 -55.5 -27.5t-35.5 -44.5l-82 -165q-22 -44 -51 -66.5t-70 -22.5q-52 0 -87 36l15 27q16 -13 35 -13q21 0 35 27l86 168q23 45 52 68.5t73 30.5l-184 234q-17 22 -33.5 33t-36.5 16l-22 5l11 31h155l17 -14l-10 -15q-12 -16 -12 -39q0 -27 16 -49
l149 -188h20q19 0 19 -22q0 -9 -4 -10zM508.5 59.5q7.5 -15.5 28.5 -25.5l19 -5l-10 -29h-184l-9 31l19 5q24 11 32 26.5t8 57.5v410q0 41 -6 58t-24 26l-20 5l10 31h161l11 -14l-11 -17q-18 -29 -25 -62.5t-7 -87.5v-355q0 -39 7.5 -54.5zM907 23q-35 -36 -87 -36
q-41 0 -69.5 22t-51.5 67l-82 165q-13 28 -35.5 44.5t-55.5 27.5q-4 1 -4 10q0 22 19 22h21l148 188q16 22 16 49q0 23 -12 39l-10 15l17 14h155l11 -31l-22 -5q-20 -5 -36.5 -16t-33.5 -33l-184 -234q44 -7 73 -30.5t52 -68.5l86 -168q14 -27 35 -27q19 0 36 13z" />
    <glyph glyph-name="uni0417" unicode="&#x417;" horiz-adv-x="528" 
d="M147 4q-48 17 -77.5 50t-29.5 80q0 42 26 68.5t66 26.5q11 0 14.5 -1.5t3.5 -8.5q0 -3 -10 -23.5t-10 -53.5q0 -50 29 -76.5t89 -26.5q66 0 103.5 35.5t37.5 98.5q0 65 -35.5 107t-107.5 42q-18 0 -32.5 -2.5t-21.5 -2.5q-4 0 -7 5t-3 13q0 13 11 19t41 12q72 14 97.5 46
t25.5 87q0 53 -29 83t-77 30q-62 0 -95.5 -25t-50.5 -96l-4 -20l-31 10v180l15 11l16 -11q12 -11 34 -11q15 0 40 5q5 1 30 4.5t58 3.5q81 0 137 -41.5t56 -117.5q0 -108 -130 -153q87 -19 124 -64t37 -120q0 -53 -29 -93.5t-83 -63.5t-124 -23q-56 0 -104 17z" />
    <glyph glyph-name="uni0418" unicode="&#x418;" horiz-adv-x="714" 
d="M675 29l-10 -29h-222l-10 31l19 5q36 9 47.5 25.5t11.5 58.5v345l-306 -333v-18q0 -39 11 -54.5t44 -25.5l18 -5l-8 -29h-223l-11 31l22 5q35 11 46 26.5t11 57.5v410q0 42 -11.5 58.5t-45.5 25.5l-22 5l11 31h199l12 -14l-12 -17q-23 -29 -32 -62.5t-9 -87.5v-263
l306 333q-1 36 -13.5 51.5t-45.5 23.5l-19 5l10 31h198l13 -14l-13 -17q-23 -28 -32 -61.5t-9 -88.5v-355q0 -39 11.5 -55t44.5 -25z" />
    <glyph glyph-name="uni0419" unicode="&#x419;" horiz-adv-x="714" 
d="M675 29l-10 -29h-222l-10 31l19 5q36 9 47.5 25.5t11.5 58.5v345l-306 -333v-18q0 -39 11 -54.5t44 -25.5l18 -5l-8 -29h-223l-11 31l22 5q35 11 46 26.5t11 57.5v410q0 42 -11.5 58.5t-45.5 25.5l-22 5l11 31h199l12 -14l-12 -17q-23 -29 -32 -62.5t-9 -87.5v-263
l306 333q-1 36 -13.5 51.5t-45.5 23.5l-19 5l10 31h198l13 -14l-13 -17q-23 -28 -32 -61.5t-9 -88.5v-355q0 -39 11.5 -55t44.5 -25zM231.5 748.5q-42.5 21.5 -42.5 62.5q0 29 22 46.5t51 17.5q8 0 13.5 -4t5.5 -9q0 -3 -7.5 -15t-7.5 -33q0 -49 81 -49q82 0 82 48
q0 21 -7.5 33.5t-7.5 15.5q0 6 5.5 9.5t14.5 3.5q28 0 49 -17.5t21 -46.5q0 -41 -42 -62.5t-115 -21.5t-115.5 21.5z" />
    <glyph glyph-name="uni041A" unicode="&#x41a;" horiz-adv-x="616" 
d="M216 59.5q11 -15.5 44 -25.5l18 -5l-8 -29h-223l-11 31l22 5q35 11 46 26.5t11 57.5v410q0 42 -11.5 58.5t-45.5 25.5l-22 5l11 31h199l12 -14l-12 -17q-23 -29 -32 -62.5t-9 -87.5v-355q0 -39 11 -54.5zM611 23q-35 -36 -87 -36q-41 0 -69.5 22t-51.5 67l-82 165
q-13 28 -35.5 44.5t-55.5 27.5q-3 2 -3 10q0 22 18 22h21l148 188q17 23 17 49q0 23 -13 39l-10 15l17 14h155l11 -31l-22 -5q-20 -5 -36.5 -16t-33.5 -33l-184 -234q44 -7 73 -30.5t52 -68.5l86 -168q7 -14 15.5 -20.5t20.5 -6.5q18 0 35 13z" />
    <glyph glyph-name="uni041B" unicode="&#x41b;" horiz-adv-x="658" 
d="M37 11q-27 24 -27 67q0 26 12.5 41t30.5 15q11 0 17.5 -7.5t11.5 -24.5q10 -43 35 -43q35 0 60 46.5t43 148.5t34 275q7 73 -65 86l-21 4l12 31h406l12 -14l-12 -17q-23 -29 -32 -62.5t-9 -87.5v-355q0 -39 11 -54.5t44 -25.5l18 -5l-9 -29h-222l-11 31l21 5
q35 11 46.5 26.5t11.5 57.5v410q0 42 -11.5 56t-46.5 14h-26q-27 0 -41 -7.5t-16 -29.5q-19 -229 -48 -355t-67.5 -173.5t-94.5 -47.5q-40 0 -67 24z" />
    <glyph glyph-name="uni041C" unicode="&#x41c;" horiz-adv-x="834" 
d="M14 31l20 5q36 11 49 26.5t16 57.5l25 359q1 11 2.5 32.5t1.5 37.5q0 31 -11 44t-41 21l-22 5l9 31h166l187 -456l191 456h131l14 -14l-10 -17q-18 -25 -25.5 -50.5t-7.5 -63.5q0 -15 1.5 -39.5t2.5 -40.5l17 -249q5 -56 19.5 -93.5t44.5 -67.5l-12 -15h-199l-11 31l21 5
q29 9 41 23t12 42l-1 34l-28 379l-189 -450h-49l-190 450l-20 -281q-5 -77 -5 -88q0 -37 7.5 -63.5t24.5 -50.5l12 -16l-15 -15h-170z" />
    <glyph glyph-name="uni041D" unicode="&#x41d;" horiz-adv-x="705" 
d="M36 31l22 5q35 11 46 26.5t11 57.5v410q0 42 -11.5 58.5t-45.5 25.5l-22 5l11 31h199l12 -14l-12 -17q-23 -29 -32 -62.5t-9 -87.5v-112h296v173q0 41 -12 58t-47 26l-19 5l11 31h197l14 -14l-14 -17q-22 -30 -31.5 -63.5t-9.5 -86.5v-355q0 -39 11.5 -54.5t44.5 -25.5
l19 -5l-10 -29h-221l-11 31l19 5q36 11 47.5 26.5t11.5 57.5v183h-296v-189q0 -39 11 -54.5t44 -25.5l18 -5l-8 -29h-223z" />
    <glyph glyph-name="uni041E" unicode="&#x41e;" horiz-adv-x="663" 
d="M166 31.5q-67 44.5 -100.5 120.5t-33.5 172t33.5 173t100.5 121.5t165 44.5t165.5 -44.5t101.5 -121.5t34 -173t-34 -172t-101.5 -120.5t-165.5 -44.5t-165 44.5zM437.5 77.5q46.5 37.5 71.5 101.5t25 142q0 66 -19 132.5t-63 112.5t-115 46q-64 0 -111 -39.5t-71.5 -107
t-24.5 -149.5q0 -120 51.5 -198t145.5 -78q64 0 110.5 37.5z" />
    <glyph glyph-name="uni041F" unicode="&#x41f;" horiz-adv-x="656" 
d="M40 15l12 16q23 30 32.5 63t9.5 88v287q0 53 -9.5 86.5t-32.5 63.5l-12 17l12 14h531l12 -14l-12 -17q-23 -29 -32.5 -62.5t-9.5 -87.5v-355q0 -39 11 -54.5t45 -25.5l19 -5l-10 -29h-221l-12 31l21 5q35 11 46.5 26.5t11.5 57.5v410q0 42 -11.5 56t-46.5 14h-154
q-35 0 -46 -14t-11 -56v-410q0 -42 11 -57.5t46 -26.5l22 -5l-11 -31h-199z" />
    <glyph glyph-name="uni0420" unicode="&#x420;" horiz-adv-x="539" 
d="M36 31l22 5q34 9 45.5 25.5t11.5 58.5v448q0 12 -5 16.5t-15 4.5h-52l-11 34q39 15 103 27.5t123 12.5q133 0 198 -60t65 -155q0 -59 -23.5 -107t-72 -76.5t-120.5 -28.5q-32 0 -56 8.5t-24 23.5q0 9 3.5 15.5t10.5 6.5q3 0 15 -3.5t29 -3.5q68 0 106.5 44t38.5 117
q0 74 -40.5 121.5t-114.5 47.5q-68 0 -68 -43v-388q0 -56 9 -88.5t32 -62.5l12 -16l-12 -15h-199z" />
    <glyph glyph-name="uni0421" unicode="&#x421;" horiz-adv-x="559" 
d="M162 31.5q-65 44.5 -97.5 121t-32.5 171.5q0 97 32.5 173.5t98 121t161.5 44.5q59 0 105 -17t72 -47t26 -69q0 -46 -27 -75.5t-68 -29.5q-21 0 -21 11q0 2 8 14.5t14 29t6 38.5q0 42 -31.5 68.5t-83.5 26.5q-67 0 -109.5 -42t-61.5 -107.5t-19 -139.5q0 -75 24 -138
t68.5 -99.5t102.5 -36.5t101.5 21.5t69.5 59.5q3 4 6 4q9 0 19 -8.5t10 -17.5q0 -3 -2 -7q-80 -115 -212 -115q-94 0 -159 44.5z" />
    <glyph glyph-name="uni0422" unicode="&#x422;" horiz-adv-x="539" 
d="M173 15l11 16q23 30 32 62.5t9 88.5v348q0 43 -6 56.5t-26 13.5h-41q-33 0 -50.5 -7t-28 -24t-19.5 -50l-5 -22l-31 11v161l15 12l16 -12q24 -19 102 -19h237q79 0 102 19l16 12l15 -12v-161l-31 -11l-5 22q-13 49 -32 65t-66 16h-42q-19 0 -25.5 -14t-6.5 -56v-410
q0 -42 11.5 -57.5t47.5 -26.5l22 -5l-11 -31h-199z" />
    <glyph glyph-name="uni0423" unicode="&#x423;" horiz-adv-x="585" 
d="M585 636l-13 -17q-25 -32 -50 -90l-166 -377q-39 -90 -79.5 -127.5t-90.5 -37.5q-48 0 -76 23t-28 60q0 33 22 58.5t55 25.5q19 0 19 -11q0 -3 -6.5 -21t-6.5 -36q0 -20 9 -31.5t25 -11.5q26 0 46.5 25t48.5 87l14 32l-212 334q-33 52 -56.5 77.5t-50.5 37.5l4 14h229
l10 -31l-20 -5q-36 -8 -36 -38q0 -22 22 -58l153 -236l87 196q19 39 19 72q0 26 -12 42.5t-34 21.5l-20 5l10 31h173z" />
    <glyph glyph-name="uni0424" unicode="&#x424;" horiz-adv-x="795" 
d="M274 -5l22 5q35 11 46.5 27t11.5 57v446q0 13 -6 18.5t-22 4.5q-90 -4 -145 -55.5t-55 -146.5q0 -84 48 -137.5t144 -65.5q13 -2 13 -15q0 -28 -35 -28q-62 0 -125.5 26t-106 80t-42.5 134q0 79 41.5 136.5t116.5 88.5t174 33q-1 45 -7 68t-25 28l-19 6l10 31h171l11 -14
l-11 -17q-16 -28 -24 -49t-12 -54q153 -4 239 -71t86 -184q0 -80 -42.5 -135t-105.5 -81t-125 -26q-35 0 -35 28q0 13 14 15q96 13 144 66t48 140q0 95 -56 147t-145 52q-16 0 -22 -5.5t-6 -17.5v-452q0 -39 11 -54.5t45 -25.5l20 -5l-11 -29h-222z" />
    <glyph glyph-name="uni0425" unicode="&#x425;" horiz-adv-x="615" 
d="M10 31l20 5q23 6 39.5 16.5t31.5 32.5l162 235l-156 219q-40 61 -81 97l11 14h216l10 -31l-22 -5q-34 -8 -34 -39q0 -13 6 -27.5t14 -26.5l93 -132l92 138q13 19 17 29.5t4 22.5q0 14 -13 40l-9 17l19 14h166l11 -31l-21 -5q-22 -5 -38.5 -16t-30.5 -33l-161 -228
l165 -233q19 -29 36.5 -49t42.5 -40l-13 -15h-215l-11 31l22 5q35 9 35 40q0 20 -21 53l-98 138l-95 -144q-12 -19 -16 -29.5t-4 -22.5t11 -40l10 -16l-19 -15h-166z" />
    <glyph glyph-name="uni0426" unicode="&#x426;" horiz-adv-x="678" 
d="M625 -153q-18 59 -32.5 90t-38 47t-63.5 16h-444l-11 31l22 5q35 11 46 26.5t11 57.5v410q0 42 -11.5 58.5t-45.5 25.5l-22 5l11 31h199l12 -14l-12 -17q-23 -29 -32 -62.5t-9 -87.5v-349q0 -29 4.5 -43.5t16.5 -19.5t37 -5h153q25 0 37 5t16.5 19.5t4.5 43.5v410
q0 41 -12 58t-46 26l-21 5l10 31h199l12 -14l-12 -17q-22 -29 -31 -62.5t-9 -87.5v-374q0 -27 29 -42t69 -15v-202l-31 -11z" />
    <glyph glyph-name="uni0427" unicode="&#x427;" horiz-adv-x="599" 
d="M314 31l23 5q35 11 46 26.5t11 57.5v182q-44 -33 -83.5 -49.5t-93.5 -16.5q-77 0 -118 36t-41 108v112q0 55 -5.5 81t-22.5 47l-12 16l12 15l117 13v-261q0 -52 26.5 -76t80.5 -24q48 0 78.5 16t61.5 45v166q0 42 -11.5 58.5t-45.5 25.5l-23 5l12 31h198l12 -14l-12 -17
q-22 -29 -31 -62.5t-9 -87.5v-355q0 -39 11 -54.5t44 -25.5l20 -5l-11 -29h-222z" />
    <glyph glyph-name="uni0428" unicode="&#x428;" horiz-adv-x="997" 
d="M36 31l22 5q35 11 46 26.5t11 57.5v410q0 42 -11.5 58.5t-45.5 25.5l-22 5l11 31h199l12 -14l-12 -17q-22 -31 -31.5 -64.5t-9.5 -85.5v-349q0 -29 4.5 -43.5t16.5 -19.5t37 -5h132q36 0 48.5 13t12.5 55v410q0 42 -11.5 58.5t-46.5 25.5l-21 5l12 31h195l11 -14l-11 -17
q-23 -30 -32.5 -63.5t-9.5 -86.5v-355q0 -38 9 -50t37 -12h148q24 0 36 5t16.5 19.5t4.5 43.5v410q0 42 -11.5 58.5t-45.5 25.5l-21 5l10 31h199l12 -14l-12 -17q-22 -31 -31 -64t-9 -86v-355q0 -39 11 -55t43 -25l19 -5l-10 -29h-900z" />
    <glyph glyph-name="uni0429" unicode="&#x429;" horiz-adv-x="997" 
d="M945 -153q-15 54 -30 86t-40 49.5t-65 17.5h-763l-11 31l22 5q35 11 46 26.5t11 57.5v410q0 42 -11.5 58.5t-45.5 25.5l-22 5l11 31h199l12 -14l-12 -17q-22 -31 -31.5 -64.5t-9.5 -85.5v-349q0 -29 4.5 -43.5t16.5 -19.5t37 -5h132q36 0 48.5 13t12.5 55v410
q0 42 -11.5 58.5t-46.5 25.5l-21 5l12 31h195l11 -14l-11 -17q-23 -30 -32.5 -63.5t-9.5 -86.5v-355q0 -38 9 -50t37 -12h148q24 0 36 5t16.5 19.5t4.5 43.5v410q0 42 -11.5 58.5t-45.5 25.5l-21 5l10 31h199l12 -14l-12 -17q-22 -31 -31 -64t-9 -86v-374q0 -27 29 -42
t68 -15v-202l-30 -11z" />
    <glyph glyph-name="uni042A" unicode="&#x42a;" horiz-adv-x="686" 
d="M146 31l21 5q34 9 46 26t12 58v410q0 70 -49 70h-24q-33 0 -50.5 -7t-28 -24t-19.5 -50l-5 -22l-31 11v161l15 12l16 -12q24 -19 102 -19h204l12 -14l-12 -17q-23 -31 -32.5 -64t-9.5 -86v-303q0 -74 30 -96.5t71 -22.5q64 0 100.5 40.5t36.5 106.5q0 60 -40.5 100.5
t-104.5 40.5q-25 0 -39.5 -4t-19.5 -4q-12 0 -12 21q0 16 25.5 24t62.5 8q67 0 117.5 -26t78 -69.5t27.5 -94.5q0 -88 -57 -139t-180 -51h-252z" />
    <glyph glyph-name="uni042B" unicode="&#x42b;" horiz-adv-x="848" 
d="M36 31l22 5q34 9 45.5 25.5t11.5 58.5v410q0 41 -11.5 58.5t-45.5 25.5l-22 5l11 31h199l12 -14l-12 -17q-22 -31 -31.5 -64t-9.5 -86v-303q0 -74 30 -96.5t71 -22.5q56 0 89.5 41t33.5 106q0 38 -17.5 70.5t-48 51.5t-66.5 19q-24 0 -40 -4t-20 -4q-6 0 -9 6t-3 15
q0 16 25.5 24t62.5 8q61 0 108.5 -26t74 -69.5t26.5 -94.5q0 -88 -54 -139t-168 -51h-253zM564 31l21 5q35 11 47 27t12 57v410q0 41 -12.5 58t-46.5 26l-21 5l10 31h200l11 -14l-11 -17q-23 -30 -32.5 -63.5t-9.5 -86.5v-355q0 -39 11 -54.5t44 -25.5l20 -5l-10 -29h-223z
" />
    <glyph glyph-name="uni042C" unicode="&#x42c;" horiz-adv-x="576" 
d="M36 31l22 5q34 9 45.5 25.5t11.5 58.5v410q0 41 -11.5 58.5t-45.5 25.5l-22 5l11 31h199l12 -14l-12 -17q-22 -31 -31.5 -64t-9.5 -86v-303q0 -74 30 -96.5t71 -22.5q64 0 99.5 40.5t35.5 106.5q0 60 -40 100.5t-104 40.5q-24 0 -40 -4t-20 -4q-6 0 -9 6t-3 15
q0 16 25.5 24t62.5 8q66 0 116.5 -26t78 -69.5t27.5 -94.5q0 -88 -56 -139t-179 -51h-253z" />
    <glyph glyph-name="uni042D" unicode="&#x42d;" horiz-adv-x="552" 
d="M134.5 4q-47.5 17 -77 50t-29.5 80q0 43 25 69t66 26q10 0 14 -1.5t4 -8.5q0 -3 -10.5 -23.5t-10.5 -53.5q0 -47 35 -75t83 -28q53 0 94 35t64 94.5t26 133.5h-282q0 16 5 31.5t16 23.5h261q-6 107 -55.5 181t-144.5 74q-46 0 -81 -25t-48 -78l-5 -21l-31 11v162l15 11
l16 -11q13 -11 35 -11q14 0 41 5q44 8 78 8q93 0 157 -44.5t95 -121t31 -173.5q0 -95 -31.5 -171.5t-95 -121t-157.5 -44.5q-55 0 -102.5 17z" />
    <glyph glyph-name="uni042E" unicode="&#x42e;" horiz-adv-x="943" 
d="M471.5 28q-63.5 41 -96 112.5t-36.5 162.5h-134v-189q0 -39 11 -54.5t44 -25.5l18 -5l-8 -29h-223l-11 31l22 5q35 11 46 26.5t11 57.5v410q0 42 -11.5 58.5t-45.5 25.5l-22 5l11 31h199l12 -14l-12 -17q-23 -29 -32 -62.5t-9 -87.5v-112h135q9 135 81.5 220t203.5 85
q93 0 157.5 -44.5t97 -121t32.5 -172.5t-32.5 -172t-97 -120.5t-157.5 -44.5q-90 0 -153.5 41zM724.5 77.5q43.5 37.5 66 101t22.5 142.5q0 66 -17.5 132.5t-58.5 112t-107 45.5q-61 0 -104.5 -39t-66 -106.5t-22.5 -149.5q0 -121 47.5 -198.5t136.5 -77.5q60 0 103.5 37.5z
" />
    <glyph glyph-name="uni042F" unicode="&#x42f;" horiz-adv-x="594" 
d="M-5 23l15 27q18 -13 36 -13q11 0 17.5 6.5t16.5 20.5l99 172q9 18 16.5 27.5t19.5 16.5q-69 17 -104 67.5t-35 117.5q0 88 63.5 142.5t194.5 54.5q58 0 121.5 -12.5t103.5 -27.5l-12 -34h-53q-11 0 -15 -4.5t-4 -16.5v-447q0 -42 11.5 -58.5t46.5 -25.5l20 -5l-11 -31
h-197l-11 15l11 16q22 31 31.5 63.5t9.5 87.5v388q0 42 -71 42q-69 0 -107.5 -42.5t-38.5 -108.5q0 -64 36.5 -102.5t101.5 -38.5q18 0 29.5 3t15.5 3q12 0 12 -20q0 -16 -16 -23q-27 -9 -39 -17.5t-23 -26.5l-82 -145q-22 -40 -37.5 -61t-36.5 -33.5t-52 -12.5
q-47 0 -83 36z" />
    <glyph glyph-name="uni0430" unicode="&#x430;" horiz-adv-x="546" 
d="M122.5 12.5q-37.5 25.5 -60 75t-22.5 120.5q0 117 63.5 185t171.5 68q36 0 98 -11q46 -8 83 -11l12 -11l-13 -17q-7 -12 -9.5 -18.5t-2.5 -17.5v-295q0 -28 29 -28q22 0 45 16l17 -23q-24 -27 -51 -42.5t-49 -15.5q-38 0 -55 22.5t-17 73.5q-36 -53 -74.5 -74.5
t-83.5 -21.5q-44 0 -81.5 25.5zM362 140v245q-39 26 -88 26q-65 0 -101.5 -48.5t-36.5 -137.5q0 -86 29.5 -126.5t73.5 -40.5q76 0 123 82z" />
    <glyph glyph-name="uni0431" unicode="&#x431;" horiz-adv-x="527" 
d="M142 22.5q-53 35.5 -81.5 101.5t-28.5 154q0 106 27 193t82.5 138t136.5 51q15 0 39 -2l32 -1q34 0 50 10q13 9 24 30q7 16 15 16q7 0 15.5 -18.5t8.5 -35.5q0 -41 -24 -61t-65 -20q-31 0 -74 9q-48 8 -70 8q-24 0 -41 -5q-34 -9 -50 -70t-18 -158h8q25 42 63 64t86 22
q54 0 101 -25.5t76 -75.5t29 -121q0 -68 -26 -122.5t-75 -85.5t-116 -31q-71 0 -124 35.5zM351.5 90q36.5 54 36.5 132q0 43 -14 84t-44 68t-76 27q-60 0 -94 -46.5t-34 -130.5q0 -82 33 -135t94 -53q62 0 98.5 54z" />
    <glyph glyph-name="uni0432" unicode="&#x432;" horiz-adv-x="558" 
d="M36 29l19 5q32 7 42.5 23t10.5 55v262q0 12 -4 16t-13 4h-49l-10 31q37 14 99 25t120 11q110 0 163.5 -32t53.5 -91q0 -33 -17 -60t-47 -45q45 -12 69.5 -39t24.5 -67q0 -127 -206 -127h-246zM371.5 66.5q32.5 21.5 32.5 64.5q0 36 -28.5 55.5t-78.5 21.5h-7
q-28 0 -47.5 8t-19.5 20q0 17 10 17q3 0 14 -3.5t28 -3.5q49 0 76.5 22t27.5 62t-29.5 62t-89.5 22q-42 0 -56 -11t-14 -27v-224q0 -67 31 -87t73 -20q45 0 77.5 21.5z" />
    <glyph glyph-name="uni0433" unicode="&#x433;" horiz-adv-x="419" 
d="M44 14l10 14q21 28 29.5 55t8.5 76v118q0 50 -8.5 81.5t-29.5 58.5l-10 16l10 12h222q38 0 60.5 4t35.5 13l14 12l13 -12v-149l-27 -8l-7 18q-7 32 -16.5 47t-26 21t-47.5 6h-48q-33 0 -43.5 -11.5t-10.5 -50.5v-225q0 -38 10.5 -52.5t43.5 -23.5l18 -6l-10 -28h-181z
" />
    <glyph glyph-name="uni0434" unicode="&#x434;" horiz-adv-x="543" 
d="M485 -144q-18 79 -44 111.5t-80 32.5h-203q-37 0 -59 -15t-36 -44.5t-29 -84.5l-6 -18l-28 11v186q56 6 84 38t38.5 81.5t20.5 148.5l5 45q3 15 3 25q0 22 -12.5 30t-46.5 14l-20 6l10 27h391l11 -13l-11 -14q-21 -27 -28.5 -57.5t-7.5 -83.5v-194q0 -26 22.5 -39.5
t58.5 -13.5v-187l-28 -11zM301 47q33 0 43 12t10 51v228q0 38 -10 50t-43 12h-34q-26 0 -38.5 -6.5t-14.5 -26.5q-12 -105 -23 -165.5t-29 -99.5t-47 -55h186z" />
    <glyph glyph-name="uni0435" unicode="&#x435;" horiz-adv-x="479" 
d="M139 16q-47 29 -73 81.5t-26 121.5q0 72 29 127t82.5 85t123.5 30q74 0 114.5 -39t40.5 -94q0 -38 -20.5 -73t-60 -57t-92.5 -22q-30 0 -65 10.5t-35 31.5q0 8 4 14t9 6q3 0 18.5 -5.5t40.5 -5.5q55 0 85 30t30 72q0 36 -23.5 62t-62.5 26q-59 0 -91.5 -51.5
t-32.5 -146.5q0 -81 34.5 -126.5t99.5 -45.5q80 0 132 52q3 3 8 3q8 0 16.5 -8t8.5 -17q0 -3 -2 -5.5t-2 -3.5q-34 -40 -80.5 -60.5t-99.5 -20.5q-63 0 -110 29z" />
    <glyph glyph-name="uni0436" unicode="&#x436;" horiz-adv-x="722" 
d="M10 21l13 25q16 -12 33 -12q10 0 17.5 6.5t14.5 18.5l60 114q20 35 58 55l-97 143q-13 20 -28 30.5t-36 15.5l-19 5l9 28h147l15 -13l-7 -15q-2 -5 -6 -16.5t-4 -20.5q0 -13 3 -22.5t13 -23.5l69 -99h16q17 0 17 -14q0 -7 -5 -12t-17 -11q-14 -7 -25 -16t-20 -25l-34 -67
q-30 -62 -52 -85t-59 -23q-41 0 -76 34zM248 28l19 6q32 9 42.5 23.5t10.5 52.5v230q0 38 -10.5 53t-42.5 24l-19 6l11 27h180l11 -12l-11 -15q-21 -28 -29 -59t-8 -82v-178q0 -38 6.5 -51.5t28.5 -20.5l16 -5l-10 -27h-184zM577.5 10q-21.5 23 -52.5 85l-34 67
q-8 16 -18.5 24.5t-26.5 17.5q-11 5 -16 10t-5 12q0 5 3.5 9.5t12.5 4.5h17l68 99q11 14 14 24t3 22q0 11 -4.5 22.5t-5.5 14.5l-8 15l15 13h148l10 -28l-19 -5q-43 -11 -66 -46l-95 -143q37 -19 56 -55l61 -114q9 -14 15.5 -19.5t16.5 -5.5q17 0 32 12l15 -25
q-34 -34 -77 -34q-38 0 -59.5 23z" />
    <glyph glyph-name="uni0437" unicode="&#x437;" horiz-adv-x="453" 
d="M100.5 17q-50.5 30 -50.5 84q0 28 19 46.5t48 18.5q8 0 14 -2.5t6 -7.5q0 -4 -4.5 -18t-4.5 -34q0 -32 26 -50t70 -18q53 0 79.5 22.5t26.5 72.5q0 41 -32.5 63.5t-87.5 24.5h-9q-19 0 -19 15q0 11 10.5 16t36.5 10q52 8 72 28.5t20 56.5q0 29 -24 48.5t-69 19.5
q-91 0 -119 -93l-5 -18l-27 9v148l12 12l15 -12q13 -9 32 -9q7 0 31 4q40 7 62 7q87 0 129 -28.5t42 -80.5q0 -82 -91 -109q56 -16 82.5 -48.5t26.5 -71.5q0 -35 -22 -66t-66 -50.5t-106 -19.5q-73 0 -123.5 30z" />
    <glyph glyph-name="uni0438" unicode="&#x438;" horiz-adv-x="615" 
d="M44 28l19 6q31 9 41.5 23.5t10.5 52.5v230q0 38 -10.5 53t-41.5 24l-19 6l10 27h181l11 -12l-11 -15q-21 -29 -29.5 -59.5t-8.5 -81.5v-127l219 206q-5 27 -15.5 38t-32.5 18l-18 6l8 27h183l10 -12l-10 -15q-21 -29 -29.5 -59.5t-8.5 -81.5v-178q0 -36 10 -49t41 -23
l17 -5l-8 -27h-205l-8 28l18 6q32 9 42.5 23.5t10.5 52.5v183l-219 -206q4 -28 14.5 -38.5t32.5 -16.5l18 -5l-9 -27h-204z" />
    <glyph glyph-name="uni0439" unicode="&#x439;" horiz-adv-x="615" 
d="M44 28l19 6q31 9 41.5 23.5t10.5 52.5v230q0 38 -10.5 53t-41.5 24l-19 6l10 27h181l11 -12l-11 -15q-21 -29 -29.5 -59.5t-8.5 -81.5v-127l219 206q-5 27 -15.5 38t-32.5 18l-18 6l8 27h183l10 -12l-10 -15q-21 -29 -29.5 -59.5t-8.5 -81.5v-178q0 -36 10 -49t41 -23
l17 -5l-8 -27h-205l-8 28l18 6q32 9 42.5 23.5t10.5 52.5v183l-219 -206q4 -28 14.5 -38.5t32.5 -16.5l18 -5l-9 -27h-204zM203.5 538.5q-37.5 21.5 -37.5 62.5q0 29 19 46.5t46 17.5q7 0 12 -4t5 -9q0 -3 -7 -15t-7 -33q0 -49 72 -49q39 0 57 13t18 35q0 21 -6.5 33.5
t-6.5 15.5q0 6 4.5 9.5t13.5 3.5q25 0 43.5 -17.5t18.5 -46.5q0 -41 -38 -62.5t-104 -21.5q-65 0 -102.5 21.5z" />
    <glyph glyph-name="uni043A" unicode="&#x43a;" horiz-adv-x="532" 
d="M44 28l18 6q32 9 42.5 23.5t10.5 52.5v230q0 38 -10.5 53t-42.5 24l-18 6l9 27h180l11 -12l-11 -15q-20 -29 -28.5 -60t-8.5 -81v-178q0 -36 10 -49t41 -23l18 -5l-9 -27h-203zM388.5 7q-24.5 20 -49.5 62l-63 105q-7 12 -17 19t-20.5 11.5t-13.5 6.5q-4 2 -4 11
q0 18 15 18h17l81 99q19 22 19 52q0 16 -7 31l-7 15l15 13h147l10 -28l-18 -5q-20 -6 -35.5 -16.5t-30.5 -29.5l-114 -142q45 -22 66 -56l70 -114q8 -13 14.5 -19t15.5 -6q18 0 34 12l14 -25q-33 -34 -77 -34q-37 0 -61.5 20z" />
    <glyph glyph-name="uni043B" unicode="&#x43b;" horiz-adv-x="552" 
d="M12 9.5q-22 22.5 -22 59.5q0 26 12 41t32 15q18 0 21 -28q2 -14 9.5 -24.5t22.5 -10.5q75 0 97 286l1 17q0 27 -12 37t-48 15l-19 6l10 27h361l12 -13l-12 -15q-21 -28 -29.5 -59t-8.5 -81v-178q0 -35 11 -49t41 -23l17 -4l-9 -28h-204l-10 28l19 6q32 9 43 24t11 54v227
q0 39 -10.5 51t-43.5 12h-16q-26 0 -38.5 -6.5t-13.5 -26.5q-13 -156 -38.5 -240t-57 -113t-70.5 -29q-36 0 -58 22.5z" />
    <glyph glyph-name="uni043C" unicode="&#x43c;" horiz-adv-x="673" 
d="M-2 28l21 6q31 9 41.5 25t16.5 51l36 246q1 4 1 12q0 20 -12.5 31t-38.5 18l-17 6l8 27h152l130 -276l132 276h118l14 -12l-12 -15q-32 -43 -32 -83q0 -12 3 -24l31 -154q2 -8 4 -22q12 -53 21 -78.5t32 -48.5l-10 -13h-183l-10 28l18 6q26 7 38 22t12 40q0 13 -3 29
l-36 226l-136 -291h-28l-137 291l-34 -218q-2 -14 -2 -20q0 -41 30 -85l11 -15l-12 -13h-156z" />
    <glyph glyph-name="uni043D" unicode="&#x43d;" horiz-adv-x="607" 
d="M44 28l19 6q31 9 41.5 23.5t10.5 52.5v230q0 38 -10.5 53t-41.5 24l-19 6l10 27h180l11 -12l-11 -15q-20 -27 -28.5 -58.5t-8.5 -82.5v-29h218v87q0 38 -10.5 53t-42.5 24l-20 6l11 27h180l12 -12l-12 -15q-20 -27 -28 -58t-8 -83v-178q0 -36 10 -49.5t40 -22.5l16 -5
l-8 -27h-202l-11 28l20 6q32 9 42.5 23.5t10.5 52.5v90h-218v-96q0 -36 10.5 -49.5t40.5 -22.5l18 -5l-9 -27h-203z" />
    <glyph glyph-name="uni043E" unicode="&#x43e;" horiz-adv-x="523" 
d="M100 51.5q-60 64.5 -60 173.5t60 172.5t162 63.5q67 0 117 -29t77 -82t27 -125t-27.5 -126t-77.5 -83t-116 -29q-102 0 -162 64.5zM352.5 87.5q35.5 51.5 35.5 135.5q0 43 -12 86.5t-39.5 74t-71.5 30.5q-59 0 -94.5 -52t-35.5 -138t33.5 -137t91.5 -51q57 0 92.5 51.5z
" />
    <glyph glyph-name="uni043F" unicode="&#x43f;" horiz-adv-x="581" 
d="M44 15l12 16q23 29 31.5 62t8.5 89v86q0 56 -9 89.5t-31 61.5l-12 18l12 13h447l12 -13l-12 -18q-22 -28 -31 -61.5t-9 -89.5v-154q0 -40 11 -56t44 -24l19 -5l-11 -29h-213l-11 31l21 5q35 11 46.5 26.5t11.5 57.5v211q0 42 -11.5 55.5t-46.5 13.5h-88q-35 0 -46 -13.5
t-11 -55.5v-211q0 -42 11 -57.5t46 -26.5l22 -5l-12 -31h-189z" />
    <glyph glyph-name="uni0440" unicode="&#x440;" horiz-adv-x="539" 
d="M53 -228l10 15q17 23 24 48.5t7 68.5v441q0 13 -4 20t-15 10l-47 11v28q14 13 54 25t70 12q23 0 23 -42v-4q58 56 131 56q55 0 99 -28t68.5 -77.5t24.5 -113.5q0 -72 -26 -130.5t-71.5 -91.5t-101.5 -33q-54 0 -90 25q-9 5 -9 16q0 10 3.5 16.5t10.5 6.5q3 0 19.5 -7.5
t43.5 -7.5q56 0 90.5 53t34.5 136q0 78 -34.5 127.5t-91.5 49.5q-30 0 -54 -8t-47 -27v-508q0 -35 7.5 -49t30.5 -19l18 -4l-8 -27h-160z" />
    <glyph glyph-name="uni0441" unicode="&#x441;" horiz-adv-x="460" 
d="M147 18q-50 31 -78.5 85t-28.5 121q0 72 27 125.5t77 82.5t116 29q70 0 114.5 -33.5t44.5 -86.5q0 -39 -25 -63.5t-64 -24.5q-9 0 -13 2t-4 7q0 3 6.5 13t11.5 24.5t5 37.5q0 36 -23.5 56.5t-62.5 20.5q-52 0 -83.5 -50.5t-31.5 -133.5q0 -84 37.5 -133t101.5 -49
q33 0 62 11t58 35q2 2 8 2q8 0 15.5 -8.5t7.5 -17.5q0 -7 -2 -7q-32 -37 -74.5 -56.5t-88.5 -19.5q-63 0 -113 31z" />
    <glyph glyph-name="uni0442" unicode="&#x442;" horiz-adv-x="443" 
d="M133 14l11 14q21 27 29 58t8 82v167q0 38 -5.5 50t-23.5 12h-9q-31 0 -47.5 -6t-26 -21t-17.5 -47l-6 -18l-28 8v149l14 12l14 -12q12 -9 35 -13t61 -4h161q38 0 60 4t34 13l14 12l15 -12v-149l-29 -8l-4 18q-9 32 -18.5 47t-25.5 21t-46 6h-12q-17 0 -22.5 -12t-5.5 -50
v-225q0 -38 10 -52.5t42 -23.5l21 -6l-11 -28h-181z" />
    <glyph glyph-name="uni0443" unicode="&#x443;" horiz-adv-x="551" 
d="M178.5 -234.5q-35.5 18.5 -53 48.5t-17.5 63q0 46 31 78t85 32q8 0 12 -2.5t4 -6.5t-12.5 -17.5t-22 -32.5t-9.5 -48q0 -36 21.5 -60.5t57.5 -24.5q56 0 83 46.5t27 124.5v134q-22 -40 -63.5 -63t-92.5 -23q-64 0 -99.5 39.5t-35.5 110.5v200q0 12 -4 17t-14 5h-41l-7 22
q23 24 56.5 39t61.5 15q13 0 21.5 -7.5t8.5 -19.5v-250q0 -54 22 -82t63 -28q61 0 95 45t34 127q0 75 -6 111t-30 66l-10 14l10 13l111 11v-482q0 -111 -54 -172t-147 -61q-50 0 -85.5 18.5z" />
    <glyph glyph-name="uni0444" unicode="&#x444;" horiz-adv-x="759" 
d="M299 -228l11 15q16 24 22.5 49.5t6.5 67.5v466q-39 32 -86 32q-55 0 -90 -51.5t-35 -145.5q0 -52 15 -90.5t39 -58.5t52 -20q32 0 49 7.5t20 7.5q6 0 8 -6t2 -17q0 -12 -7 -16q-42 -25 -96 -25q-82 0 -130 63.5t-48 173.5q0 113 53 175t138 62q65 0 116 -53v195
q0 14 -4 20.5t-15 8.5l-48 10v30q16 13 56.5 25t70.5 12q21 0 21 -42v-259q51 53 117 53q55 0 98.5 -27.5t68 -81t24.5 -128.5q0 -110 -48 -173.5t-130 -63.5q-57 0 -96 25q-9 5 -9 16q0 23 12 23q3 0 19.5 -7.5t47.5 -7.5q28 0 52.5 20t39.5 58.5t15 90.5q0 93 -35 145
t-89 52q-48 0 -87 -32v-511q0 -35 8 -49t30 -19l20 -4l-10 -27h-158z" />
    <glyph glyph-name="uni0445" unicode="&#x445;" horiz-adv-x="500" 
d="M303 51l-74 125q-81 -91 -81 -118q0 -9 4.5 -15.5t13.5 -14.5l17 -14l-10 -14h-141l-11 19q105 103 189 191l-100 170q-8 14 -17 19.5t-21 5.5q-10 0 -34 -11l-20 26q38 41 84 41q63 0 96 -62l73 -124q80 92 80 119q0 8 -4 14t-13 15l-20 14l12 13h142l9 -18l-24 -24
q-93 -91 -163 -167l101 -171q8 -15 16.5 -20t21.5 -5q16 0 33 11l21 -27q-22 -22 -41.5 -32t-42.5 -10q-62 0 -96 64z" />
    <glyph glyph-name="uni0446" unicode="&#x446;" horiz-adv-x="600" 
d="M542 -144q-18 78 -45 111t-81 33h-362l-10 28l19 5q31 7 41.5 23t10.5 54v230q0 38 -10.5 53t-41.5 24l-19 6l10 27h180l11 -13l-11 -14q-21 -28 -29 -59t-8 -82v-172q0 -38 10.5 -50.5t43.5 -12.5h106q33 0 44 12.5t11 50.5v230q0 38 -11 53t-44 24l-19 6l12 27h180
l11 -13l-11 -14q-21 -28 -29 -59t-8 -82v-194q0 -26 23 -39.5t59 -13.5v-187l-29 -11z" />
    <glyph glyph-name="uni0447" unicode="&#x447;" horiz-adv-x="522" 
d="M255 29l18 5q32 7 42.5 23t10.5 55v81q-27 -21 -59 -33t-75 -12q-139 0 -139 134v24q0 44 -1.5 62.5t-6 28.5t-16.5 27l-11 13l10 14l109 11v-167q0 -46 22 -65t64 -19q61 0 103 36v93q0 38 -10.5 52.5t-42.5 24.5l-18 6l10 27h181l11 -13l-11 -14q-21 -28 -29 -59
t-8 -82v-178q0 -35 10 -49t41 -23l18 -4l-9 -28h-204z" />
    <glyph glyph-name="uni0448" unicode="&#x448;" horiz-adv-x="866" 
d="M44 28l19 6q32 9 42 23.5t10 52.5v230q0 39 -10 53.5t-42 23.5l-19 6l10 27h182l10 -12l-10 -15q-21 -28 -30 -59.5t-9 -81.5v-172q0 -38 11 -50.5t44 -12.5h86q34 0 46 12.5t12 50.5v230q0 38 -11 53t-43 24l-19 6l10 27h179l10 -12l-10 -15q-21 -27 -29.5 -58t-8.5 -83
v-178q0 -36 10 -46.5t42 -10.5h92q33 0 43.5 12.5t10.5 50.5v230q0 38 -11 53t-43 24l-19 6l9 27h184l11 -12l-11 -15q-21 -27 -29.5 -58t-8.5 -83v-178q0 -36 10.5 -49.5t40.5 -22.5l17 -5l-9 -27h-759z" />
    <glyph glyph-name="uni0449" unicode="&#x449;" horiz-adv-x="861" 
d="M803 -144q-19 78 -45.5 111t-80.5 33h-623l-10 28l19 5q32 7 42 22.5t10 54.5v230q0 39 -10 53.5t-42 23.5l-19 6l10 27h182l10 -13l-10 -14q-21 -29 -30 -60t-9 -81v-172q0 -38 11 -50.5t44 -12.5h86q34 0 46 12.5t12 50.5v230q0 38 -11 53t-43 24l-19 6l10 27h179
l10 -13l-10 -14q-21 -28 -29.5 -59t-8.5 -82v-178q0 -36 10 -46.5t42 -10.5h92q33 0 43.5 12.5t10.5 50.5v230q0 38 -11 53t-43 24l-19 6l9 27h184l11 -13l-11 -14q-21 -28 -29.5 -59t-8.5 -82v-195q0 -26 23 -39t59 -13v-187l-28 -11z" />
    <glyph glyph-name="uni044A" unicode="&#x44a;" horiz-adv-x="580" 
d="M101 28l19 6q32 9 43 24t11 52v253q0 18 -6 26t-22 8h-3q-31 0 -47.5 -6t-26 -21t-17.5 -47l-6 -18l-28 8v149l14 12l14 -12q12 -9 35 -13t61 -4h152l11 -11l-11 -16q-21 -27 -29.5 -58t-8.5 -83v-109q0 -56 15 -83t36 -34t50 -7q46 0 74 25.5t28 67.5q0 38 -30.5 63.5
t-79.5 25.5q-26 0 -41 -4.5t-19 -4.5q-13 0 -13 17t26 25t60 8q92 0 141.5 -38t49.5 -95q0 -62 -50 -98t-158 -36h-233z" />
    <glyph glyph-name="uni044B" unicode="&#x44b;" horiz-adv-x="773" 
d="M44 28l19 6q31 9 41.5 24t10.5 52v230q0 37 -11 52.5t-41 24.5l-19 6l10 27h181l11 -12l-11 -15q-21 -28 -29.5 -59t-8.5 -82v-114q0 -55 16 -82.5t37.5 -34.5t50.5 -7q40 0 66 26t26 67q0 37 -29 63t-74 26q-26 0 -41.5 -4.5t-19.5 -4.5t-7 5.5t-3 11.5q0 17 26 25t61 8
q56 0 97 -18t62 -48.5t21 -66.5q0 -62 -48.5 -98t-151.5 -36h-232zM512 28l19 6q32 9 42.5 23.5t10.5 52.5v230q0 38 -10.5 53t-42.5 24l-19 6l9 27h183l10 -12l-10 -15q-21 -27 -29.5 -58t-8.5 -83v-178q0 -36 10 -49.5t40 -22.5l17 -5l-8 -27h-204z" />
    <glyph glyph-name="uni044C" unicode="&#x44c;" horiz-adv-x="522" 
d="M44 28l19 6q31 9 41.5 24t10.5 52v230q0 37 -11 52.5t-41 24.5l-19 6l10 27h181l11 -12l-11 -15q-21 -28 -29.5 -59t-8.5 -82v-114q0 -55 15.5 -82.5t37 -34.5t51.5 -7q45 0 72.5 25.5t27.5 67.5q0 38 -31 63.5t-80 25.5q-26 0 -41.5 -4.5t-19.5 -4.5t-7 5.5t-3 11.5
q0 17 26 25t61 8q91 0 140.5 -38t49.5 -95q0 -62 -50.5 -98t-159.5 -36h-232z" />
    <glyph glyph-name="uni044D" unicode="&#x44d;" horiz-adv-x="475" 
d="M96.5 17q-50.5 30 -50.5 84q0 28 19 46.5t48 18.5q19 0 19 -10q0 -4 -4 -18t-4 -34q0 -32 25.5 -50t63.5 -18q58 0 94 45.5t41 123.5h-192q0 38 19 51h173q-7 72 -42.5 114.5t-89.5 42.5q-91 0 -118 -93l-5 -18l-30 9v148l15 12l15 -12q13 -9 32 -9q6 0 30 4q40 7 62 7
q68 0 119 -29t78.5 -82.5t27.5 -125.5q0 -67 -28.5 -121t-79.5 -85t-115 -31q-72 0 -122.5 30z" />
    </font>
</defs>
</svg>
